<mxfile host="app.diagrams.net" agent="Mozilla/5.0 (Windows NT 10.0; Win64; x64) AppleWebKit/537.36 (KHTML, like Gecko) Chrome/129.0.0.0 Safari/537.36 Edg/129.0.0.0" version="24.7.17">
  <diagram name="第 1 页" id="ON2MXk0J_E2Gm01HffDa">
    <mxGraphModel dx="1800" dy="577" grid="1" gridSize="10" guides="1" tooltips="1" connect="1" arrows="1" fold="1" page="1" pageScale="1" pageWidth="827" pageHeight="1169" math="0" shadow="0">
      <root>
        <mxCell id="0" />
        <mxCell id="1" parent="0" />
        <mxCell id="uucI94osu4saLkTW7OXQ-1" value="&lt;div&gt;多项举措满足观众参观需求&lt;/div&gt;" style="text;html=1;align=center;verticalAlign=middle;resizable=0;points=[];autosize=1;strokeColor=#666666;fillColor=#f5f5f5;fontColor=#333333;" vertex="1" parent="1">
          <mxGeometry x="70" y="50" width="170" height="30" as="geometry" />
        </mxCell>
        <mxCell id="uucI94osu4saLkTW7OXQ-3" value="事前预判" style="swimlane;whiteSpace=wrap;html=1;" vertex="1" parent="1">
          <mxGeometry x="-15" y="100" width="340" height="880" as="geometry">
            <mxRectangle x="230" y="100" width="100" height="30" as="alternateBounds" />
          </mxGeometry>
        </mxCell>
        <mxCell id="uucI94osu4saLkTW7OXQ-2" value="&lt;div&gt;&lt;b&gt;1.旺季期间的大客流&lt;/b&gt;&lt;/div&gt;" style="text;html=1;align=center;verticalAlign=middle;resizable=0;points=[];autosize=1;strokeColor=#666666;fillColor=#f5f5f5;fontColor=#333333;" vertex="1" parent="uucI94osu4saLkTW7OXQ-3">
          <mxGeometry x="90" y="120" width="130" height="30" as="geometry" />
        </mxCell>
        <mxCell id="uucI94osu4saLkTW7OXQ-42" value="&lt;div&gt;&lt;b&gt;2.黄牛无序刷票，影响观众购票体验&lt;/b&gt;&lt;/div&gt;" style="text;html=1;align=center;verticalAlign=middle;resizable=0;points=[];autosize=1;strokeColor=#666666;fillColor=#f5f5f5;fontColor=#333333;" vertex="1" parent="uucI94osu4saLkTW7OXQ-3">
          <mxGeometry x="45" y="270" width="210" height="30" as="geometry" />
        </mxCell>
        <mxCell id="uucI94osu4saLkTW7OXQ-54" value="&lt;div&gt;&lt;b&gt;3.积极响应文旅倡导的“取消预约”&lt;/b&gt;：&lt;br&gt;6月21日，市文旅局发布消息，除故宫、国博等&lt;/div&gt;&lt;div&gt;旅游景区和对外开放单位外，北京全市旅游景区&lt;/div&gt;&lt;div&gt;已&lt;span style=&quot;background-color: initial;&quot;&gt;全面取&lt;/span&gt;&lt;span style=&quot;background-color: initial;&quot;&gt;消预约要求。&lt;/span&gt;&lt;/div&gt;" style="text;html=1;align=center;verticalAlign=middle;resizable=0;points=[];autosize=1;strokeColor=#666666;fillColor=#f5f5f5;fontColor=#333333;" vertex="1" parent="uucI94osu4saLkTW7OXQ-3">
          <mxGeometry x="25" y="500" width="280" height="70" as="geometry" />
        </mxCell>
        <mxCell id="uucI94osu4saLkTW7OXQ-70" value="&lt;div&gt;&lt;b&gt;4.应对不同时段不平衡的入馆参观需求&lt;/b&gt;&lt;/div&gt;" style="text;html=1;align=center;verticalAlign=middle;resizable=0;points=[];autosize=1;strokeColor=#666666;fillColor=#f5f5f5;fontColor=#333333;" vertex="1" parent="uucI94osu4saLkTW7OXQ-3">
          <mxGeometry x="50" y="700" width="230" height="30" as="geometry" />
        </mxCell>
        <mxCell id="uucI94osu4saLkTW7OXQ-5" value="应对措施" style="swimlane;whiteSpace=wrap;html=1;verticalAlign=middle;" vertex="1" parent="1">
          <mxGeometry x="400" y="100" width="470" height="880" as="geometry">
            <mxRectangle x="230" y="100" width="100" height="30" as="alternateBounds" />
          </mxGeometry>
        </mxCell>
        <mxCell id="uucI94osu4saLkTW7OXQ-6" value="&lt;div&gt;&lt;b&gt;延长开放时间&lt;/b&gt;至19:00闭馆，每日延时2.5小时&lt;/div&gt;" style="text;html=1;align=center;verticalAlign=middle;resizable=0;points=[];autosize=1;strokeColor=#666666;fillColor=#f5f5f5;fontColor=#333333;" vertex="1" parent="uucI94osu4saLkTW7OXQ-5">
          <mxGeometry x="40" y="70" width="260" height="30" as="geometry" />
        </mxCell>
        <mxCell id="uucI94osu4saLkTW7OXQ-9" value="&lt;div&gt;&lt;span style=&quot;background-color: initial;&quot;&gt;&lt;b&gt;错峰开馆&lt;/b&gt;，暑假期间由周一闭馆调整为周二闭馆&lt;/span&gt;&lt;/div&gt;" style="text;html=1;align=center;verticalAlign=middle;resizable=0;points=[];autosize=1;strokeColor=#666666;fillColor=#f5f5f5;fontColor=#333333;" vertex="1" parent="uucI94osu4saLkTW7OXQ-5">
          <mxGeometry x="40" y="120" width="280" height="30" as="geometry" />
        </mxCell>
        <mxCell id="uucI94osu4saLkTW7OXQ-10" value="&lt;div&gt;&lt;span style=&quot;background-color: initial;&quot;&gt;机动调整入馆时间，&lt;b&gt;提前15分钟开馆&lt;/b&gt;&lt;/span&gt;&lt;/div&gt;" style="text;html=1;align=center;verticalAlign=middle;resizable=0;points=[];autosize=1;strokeColor=#666666;fillColor=#f5f5f5;fontColor=#333333;" vertex="1" parent="uucI94osu4saLkTW7OXQ-5">
          <mxGeometry x="40" y="170" width="220" height="30" as="geometry" />
        </mxCell>
        <mxCell id="uucI94osu4saLkTW7OXQ-43" value="&lt;div&gt;&lt;b&gt;调整退票规则&lt;/b&gt;&lt;br&gt;7月4日，北京天文馆发布了《北京天文馆关于调整退票规则的通知》，&lt;br&gt;对于全年累计退票20单及以上的观众，&lt;span style=&quot;background-color: initial;&quot;&gt;将判定为“疑似黄牛”的异常&lt;br&gt;行为用户，并限制其180天内购票资格。&lt;/span&gt;&lt;/div&gt;" style="text;html=1;align=center;verticalAlign=middle;resizable=1;points=[];autosize=1;strokeColor=#666666;fillColor=#f5f5f5;fontColor=#333333;movable=1;rotatable=1;deletable=1;editable=1;locked=0;connectable=1;" vertex="1" parent="uucI94osu4saLkTW7OXQ-5">
          <mxGeometry x="35" y="250" width="400" height="70" as="geometry" />
        </mxCell>
        <mxCell id="uucI94osu4saLkTW7OXQ-45" value="&lt;div style=&quot;&quot;&gt;&lt;b&gt;&lt;span style=&quot;background-color: initial;&quot;&gt;调整公益活动爽约规则&lt;/span&gt;&lt;br&gt;&lt;/b&gt;&lt;/div&gt;&lt;div&gt;&lt;div style=&quot;&quot;&gt;&lt;span style=&quot;background-color: initial;&quot;&gt;7月10日，北京天文馆发布了《北京天文馆关于调整公益活动爽&lt;/span&gt;&lt;span style=&quot;background-color: initial;&quot;&gt;约规则的&lt;/span&gt;&lt;/div&gt;&lt;div style=&quot;&quot;&gt;&lt;span style=&quot;background-color: initial;&quot;&gt;通知》，&lt;/span&gt;&lt;span style=&quot;background-color: initial;&quot;&gt;对于存在全年累计免费活动票爽约2次及以上&lt;/span&gt;&lt;span style=&quot;background-color: initial;&quot;&gt;异&lt;/span&gt;&lt;span style=&quot;background-color: initial;&quot;&gt;常行为的&lt;/span&gt;&lt;span style=&quot;background-color: initial;&quot;&gt;观众，&lt;/span&gt;&lt;/div&gt;&lt;div style=&quot;&quot;&gt;&lt;span style=&quot;background-color: initial;&quot;&gt;取消其当年所有预约制免费活动的报名资格。&lt;/span&gt;&lt;/div&gt;&lt;/div&gt;" style="text;html=1;align=center;verticalAlign=middle;resizable=0;points=[];autosize=1;strokeColor=#666666;fillColor=#f5f5f5;fontColor=#333333;" vertex="1" parent="uucI94osu4saLkTW7OXQ-5">
          <mxGeometry x="35" y="340" width="400" height="70" as="geometry" />
        </mxCell>
        <mxCell id="uucI94osu4saLkTW7OXQ-57" value="&lt;div&gt;采取&lt;b&gt;线上预约+窗口售票相结合&lt;/b&gt;的方式&lt;br&gt;满足不同观众的购票需求&lt;/div&gt;" style="text;html=1;align=center;verticalAlign=middle;resizable=0;points=[];autosize=1;strokeColor=#666666;fillColor=#f5f5f5;fontColor=#333333;" vertex="1" parent="uucI94osu4saLkTW7OXQ-5">
          <mxGeometry x="65" y="515" width="220" height="40" as="geometry" />
        </mxCell>
        <mxCell id="uucI94osu4saLkTW7OXQ-7" value="实施效果" style="swimlane;whiteSpace=wrap;html=1;" vertex="1" parent="1">
          <mxGeometry x="930" y="100" width="957" height="914" as="geometry">
            <mxRectangle x="230" y="100" width="100" height="30" as="alternateBounds" />
          </mxGeometry>
        </mxCell>
        <mxCell id="uucI94osu4saLkTW7OXQ-28" value="&lt;div style=&quot;text-align: left;&quot;&gt;&lt;span style=&quot;background-color: initial;&quot;&gt;控制场馆人数在最大承载量之内，安全第一！&lt;/span&gt;&lt;/div&gt;&lt;div style=&quot;text-align: left;&quot;&gt;&lt;span style=&quot;background-color: initial;&quot;&gt;在减少了场馆拥挤程度的基础上，最大限度&lt;/span&gt;满足观众的参观需求&lt;br&gt;&lt;/div&gt;" style="text;html=1;align=center;verticalAlign=middle;resizable=0;points=[];autosize=1;strokeColor=#666666;fillColor=#f5f5f5;fontColor=#333333;" vertex="1" parent="uucI94osu4saLkTW7OXQ-7">
          <mxGeometry x="30" y="115" width="360" height="40" as="geometry" />
        </mxCell>
        <mxCell id="uucI94osu4saLkTW7OXQ-46" value="&lt;div&gt;&lt;b&gt;限制了黄牛购票资格，黄牛票数量减少&lt;/b&gt;&lt;/div&gt;&lt;div&gt;截至2024年9月1日，已有131名“疑似黄牛”的异常行为用户&lt;/div&gt;&lt;div&gt;被限制本年度购票资格或本年度免费活动的报名资格。&lt;br&gt;&lt;/div&gt;" style="text;html=1;align=center;verticalAlign=middle;resizable=0;points=[];autosize=1;strokeColor=#666666;fillColor=#f5f5f5;fontColor=#333333;" vertex="1" parent="uucI94osu4saLkTW7OXQ-7">
          <mxGeometry x="30" y="255" width="330" height="60" as="geometry" />
        </mxCell>
        <mxCell id="uucI94osu4saLkTW7OXQ-55" value="" style="shape=image;verticalLabelPosition=bottom;labelBackgroundColor=default;verticalAlign=top;aspect=fixed;imageAspect=0;image=data:image/png,iVBORw0KGgoAAAANSUhEUgAAAyIAAAH1CAYAAAAK6UrgAAAACXBIWXMAABYlAAAWJQFJUiTwAAAgAElEQVR4XuzdB3iUVfo28Htmkkx6b5BA6L13kA4KiCIWbNh72VV31S2u65Zr/667lhW72BtSVgWRIkgV6V1K6CWQAul9+neeEyaEBNt+ZDLlPl65JPO+857z/s4wzDPPKYaKigoXWChAAQpQgAIUoAAFKEABCnhQICgrK8uD1bEqClCAAhSgAAUoQAEKUIACgMGlCiEoQAEKUIACFKAABShAAQp4UsDoycpYFwUoQAEKUIACFKAABShAARFgIMLXAQUoQAEKUIACFKAABSjgcQEGIh4nZ4UUoAAFKEABClCAAhSgAAMRvgYoQAEKUIACFKAABShAAY8LMBDxODkrpAAFKEABClCAAhSgAAUYiPA1QAEKUIACFKAABShAAQp4XICBiMfJWSEFKEABClCAAhSgAAUowECErwEKUIACFKAABShAAQpQwOMCDEQ8Ts4KKUABClCAAhSgAAUoQAEGInwNUIACFKAABShAAQpQgAIeF2Ag4nFyVkgBClCAAhSgAAUoQAEKMBDha4ACFKAABShAAQpQgAIU8LgAAxGPk7NCClCAAhSgAAUoQAEKUICBCF8DFKAABShAAQpQgAIUoIDHBRiIeJycFVKAAhSgAAUoQAEKUIACDET4GqAABShAAQpQgAIUoAAFPC7AQMTj5KyQAhSgAAUoQAEKUIACFGAgwtcABShAAQpQgAIUoAAFKOBxAQYiHidnhRSgAAUoQAEKUIACFKAAAxG+BihAAQpQgAIUoAAFKEABjwswEPE4OSukAAUoQAEKUIACFKAABRiINMFroLS0tAlqZZUUoAAFKFBVVQWbzUYIClCAAhRoAoH6n4EZiDRBJ1RWVjZBraySAhSgAAUsFgvsdjshKEABClCgCQTqfwZmINIEncAqKUABClCAAhSgAAUoEOgCDEQC/RXA+6cABShAAQpQgAIUoEATCDAQaQJ0VkkBClCAAhSgAAUoQIFAF2AgEuivAN4/BShAAQpQgAIUoAAFmkCAgUgToLNKClCAAhSgAAUoQAEKBLoAA5FAfwXw/ilAAQpQgAIUoAAFKNAEAgxEmgCdVVKAAhSgAAUoQAEKUCDQBRiIBPorgPdPAQpQgAIUoAAFKECBJhBgINIE6KySAhSgAAUoQAEKUIACgS7AQCTQXwG8fwpQgAIUoAAFKEABCjSBAAORJkBnlRSgAAUoQAEKUIACFAh0AQYigf4K4P1TgAIUoAAFKEABClCgCQQYiDQBOqukAAUoQAEKUIACFKBAoAswEAn0VwDvnwIUoAAFKEABClCAAk0gwECkCdBZJQUoQAEKUIACFKAABQJdgIFIoL8CeP8UoAAFKEABClCAAhRoAgEGIk2AziopQAEKUIACFKAABSgQ6AIMRAL9FcD7pwAFKEABClCAAhSgQBMIMBBpAnRWSQEKUIACFKAABShAgUAXYCAS6K8A3j8FKEABClCAAhSgAAWaQICBSBOgs0oKUIACFKAABShAAQoEugADkUB/BfD+KUABClCAAhSgAAUo0AQCDESaAJ1VUoACFKAABShAAQpQINAFGIgE+iuA908BClCAAhSgAAUoQIEmEGAg0gTorJICFKAABShAAQpQgAKBLsBAJNBfAbx/ClCAAhSgAAUoQAEKNIEAA5EmQGeVFKAABShAAQpQgAIUCHSBoEAH4P1TIBAFXC4X7NZK7Nm2CUdyCuGEEWnte6J/11YwGgyKxAVbVQnWrV6FgycKEN+8DYYNH4L4iBDooy4ninKPYNOW3Si32GGOiEP/wYOQHB2qOYtzj2Lrzj0oqaiGwRiEZm27qWu3gckoz2ahAAUoENgC8h5aevoENm/dqd4nLQgKjUKfwRchLS4cBvUeLO/Rp49nYs26LSi1GtGuez8M7tUepjPvz067Fft2bMG+47lwugxIbtkR/Xt3gtlU9/tlF4pOHsD67QdgiknFqMF9EGzie3Bgv/K87+5Nf1XF+5rl3y0qLy9HZGSkf98k786rBawV2XjtmX9j3b4cRMXFwl6ah6UL56M0LANdWyfDaSnBjDemYXVmATq0b4GDm1fi21056NmzO8KCjdi9chZeePsLVLjMiI0MwoEd67H0uz3oMaAvQp1FeP3ZF5BVDsTHx6G66CSWqWsftcShT+cWOpBhoUBTCVRXVyMoKAjBwcFN1QTWSwEc2bwI/371YxRZDIiJCUPW3q346pv16NJ/CGLDjDh9aBNefOU9WMJTkBJhw9KvvkRpaAY6q/dnQ1UR3n7lOSzZuB/hMfEwWYqweukiZFVHoUfHlmeCFcBeXYLZ77+DbZn7sSe7CqOG9GUgwtdekwvU/wzMjEiTdwkbQAHPCzhcdnQadBluHzUIMWHygcyF1p+9hvkbN2HyqK7I27sZ27NsuPO3j6BLWgwqBnXDc8+9irW7huOyAW1RbYzF3Y/8XgUtqTqwsBYcwtP/moZdh4swpmssbv3Nk0hMiqsNOros/gDvr9iA0ivVP7Kev13WSAEKUMCrBKrtZkx94FH07tBCBQ6AszoXz/7lGWzdk4WMQWlYs2wZItoPw313XYUI9eVP2/gP8cHSrzC0fyc0d1mQ2nUkrrpXZakjzTCo7EmPlrPw7iqVPblkCBIiTDprvX/TcmQ50zB2IPDlLptX3T8bQwG3AOeI8LVAgQAUCItsiXEThp0JQlQY4rShqLgcoRERCFIDtQ7v24Ooll3QJiVaBxMRiS3QrU0SDuw7DLv6ve/wcbVBiAQx5aUlsDpMiFBDt4wmM5LqBCEOawVyThUhLj0NEQFozVumAAUoUF+g86DR6NexJgiRY1VlJaiyO9V7aDislaU4eDQXPfr21kGIlE4DBiGk/BSOZRcCkam4bNxIJEgQoo65nHYUl5TCHBqOoDNDr6wl2Vi4bCtGXToB8aH8zrm+P3/3HgG+Or2nL9gSCnhMQMYgu4ulvADLvvovlu8pwfX3DocJKigpLEdsXCc1hKXmPIMpGAlx0cg8XaSOAkFnnu9yOXBcZU9mzf4CMR2HoUeLaH1Zp60au7ZvxJHjJ3Ho0FEVyTTHHVMvAwfDeKyLWREFKODFArXvwSpzkXN4J2bN/C+Q1heDu6TAVn4YZZXBSIw/O4TbFBaP2GCbmk+ixrwakmqzzQ5LGdYsnouv1hzCmOvuRpRZAhcX1n39BZAxEAM6NsPe414MwaYFvAADkYB/CRAgcAVcyDu8A5/MmIPTjjjc9uDD6N46RXFUw+FwwaTG0Z8NVwzqmzajnkDpOgPmtFdi1ZezsGDNLnS9aAKunDACESEmfVS+ocvOOo5TBSUoKihEWGgyrBYODQjc1xrvnAIUqC/gtFuwcdkX+OLrjWjZdzQeuuJiRKkMSIX6gkcWEAkynh20ot6BYVJvr+otuLaU5h3GJx9+gEPFwbjqtvswoIssNgKUndiOxVsLcOdjd6nJ62ffxevXz98p4A0CDES8oRfYBgp4WEACiuy9a/HqO/9Fet+L8fvJY/UwrZpERzAio8xquFUxHE6X+sdQ/UOm5pSUllUh2ByqMiYSaFTji7enYe1xB6bc9TD6d1JDDOqsiGUMicC4K6fqwMVhq8La+R/jtdffxZ/+9AgSzPyH0cPdzeooQAEvE3A5bPhm1htYvKMAl910P4b1bKsmktcEHiZTJMKCLHrVQXdxOstQUWWEOaRmTl/xyd2YNu1thLcdjMfuvQIpUaFn3r+r8dWcuTBEx2PfxuXYry6QcyALtlI7liz+BsPHX4L4EC/DYHMCWoBzRAK6+3nzgSpgr8zHnFlfoPXQq3DX9RMQG66W5a0drmVCy9YZOJ11CEUVVk1kqyjBgePZSG/TCmb1+/4187HygBX3/eY3GNRFrdJSJwhx2m0qgFGjB9T1jOobvWBzBAb064Xq4izkFTsClZz3TQEKUKBW4OT3y7Fgcx5ueuARjO7TvjYIkRPM4dFIaxaJfXvVnLwzKZCCA3tQZI5Ci5QkuGxl+HzGTIR2GINH7r4WqWrZ9LOjbZ1o1W0IhvZqV5vRlvdi+frH/X92AwW8SYAZEW/qDbaFAh4SKMvOxIHTNvSuPIVvFi+qrTUkLBEXjRqANt0GoPk3GzHzs0W4fEQPZK5bhBPWJFyu1rFXM0Cwbdt2hETG4cCmVThQp82tuw1CUsUezPzuGPr26YnmidEqiCnEyoWLEZ3SAWnxfMvxUBezGgpQwIsFdm7dCrU6CE7uWY/cPWcbmtahN3q2S8WQwQMwfe7XWNo8Bh0SXfjis2/QusdYtEpU2Wq1N8iBkwXq/bUaS+u8fyM0BsOHDMTgi8edc+fbF+fje5XRvnjcGKjvnFgo4FUC/FTgVd3BxlDAMwJ2ZxDatstAad4x9XO2zrDoDAxUgUhUfEvcettUfDZvCT58f5taqz4Z195yC9okhauTLYiIa4E0RyUyMzPPaXBEeg+0btkGKea9WP31PFSpeSFGNdE9vll73HfLZYjhbHXPdDBroQAFvFrAHJ2AjKRyHKj3HmpIaKcCkWZoP+ASTKm0Y+WKeVjvNKJ5+4tw9ZWjEKxSG+VqA8OWrdujqigLmUV1bjMyBYMG9G9w35EJqWjfyqqXCWahgLcJqOWn60598rbm+Wd7cnNzkZqa6p83x7vyKwGHzaqCCStCzGEICa6ZiP6zblC9rdhsFlisdhWIBCE01Hxmx/af9WyeRIFGEyguLobZbEZYWFij1cELU+CCCKj3UUt1FWxOA8LDQ/keekFQeZGmFqj/GZgZkabuEdZPAS8WMAWHIFL9/OKixiQHh4Sqn1/8TD6BAhSgAAVEQL2PmsPC9bw8Fgr4qwAnq/trz/K+KEABClCAAhSgAAUo4MUCDES8uHPYNApQgAIUoAAFKEABCvirAAMRf+1Z3hcFKEABClCAAhSgAAW8WICBiBd3DptGAQpQgAIUoAAFKEABfxVgIOKvPcv7ogAFKEABClCAAhSggBcLMBDx4s5h0yhAAQpQgAIUoAAFKOCvAgxE/LVneV8UoAAFKEABClCAAhTwYgEGIl7cOWwaBShAAQpQgAIUoAAF/FWAgYi/9izviwIUoAAFKEABClCAAl4swEDEizuHTaMABShAAQpQgAIUoIC/CjAQ8dee5X1RgAIUoAAFKEABClDAiwUYiHhx57BpFKAABShAAQpQgAIU8FcBBiL+2rO8LwpQgAIUoAAFKEABCnixAAMRL+4cNo0CFKAABShAAQpQgAL+KsBAxF97lvdFAQpQgAIUoAAFKEABLxZgIOLFncOmUYACFKAABShAAQpQwF8FGIj4a8/yvihAAQpQgAIUoAAFKODFAgxEvLhz2DQKUIACFKAABShAAQr4qwADEX/tWd4XBShAAQpQgAIUoAAFvFiAgYgXdw6bRgEKUIACFKAABShAAX8VYCDirz3L+6IABShAAQpQgAIUoIAXCzAQ8eLOYdMoQAEKUIACFKAABSjgrwIMRPy1Z3lfFKAABShAAQpQgAIU8GIBBiJe3DlsGgUoQAEKUIACFKAABfxVgIGIv/Ys74sCFKAABShAAQpQgAJeLBBUv21WqxUul6v+w/z9AgrY7XZYLJYLeEVeigIUoAAFfo6AvP8aDAYYjfwe7ud48RwKUIACF1LA6XSec7kGgUhlZSXqn3QhG8BrARLsVVRUkIICFKAABTwsUF1dDQlGHA6Hh2tmdRSgAAUoIO+/dUuDQCQ2NpZKjSwggUh8fHwj18LLU4ACFKBAfQHJhJjNZoSFhdU/xN8pQAEKUKCRBeQzcN3C3HQjg/PyFKAABShAAQpQgAIUoEBDAQYiDU34CAUoQAEKUIACFKAABSjQyAIMRBoZmJenAAUoQAEKUIACFKAABRoKMBBpaMJHKEABClCAAhSgAAUoQIFGFmAg0sjAvDwFKEABClCAAhSgAAUo0FCAgUhDEz5CAQpQgAIUoAAFKEABCjSyAAORRgbm5SlAAQpQgAIUoAAFKECBhgIMRBqa8BEKUIACFKAABShAAQpQoJEFGIg0MjAvTwEKUIACFKAABShAAQo0FGAg0tCEj1CAAhSgAAUoQAEKUIACjSzAQKSRgXl5ClCAAhSgAAUoQAEKUKChAAORhiZ8hAIUoAAFKEABClCAAhRoZAEGIo0MzMtTgAIUoAAFKEABClCAAg0FGIg0NOEjFKAABShAAQpQgAIUoEAjCzAQaWRgXp4CFKAABShAAQpQgAIUaCjAQKShCR+hAAUoQAEKUIACFKAABRpZgIFIIwPz8hSgAAUoQAEKUIACFKBAQwEGIg1N+AgFKEABClCAAhSgAAUo0MgCQY18fV6eAhSgAAUoQAEKUIAC/98CLpcLJ06cwIoVK1BRUYHk5GRMnDgRoaGh51xbzlu0aBGKioowaNAgtG3bFocPH8aOHTsgx+qWiIgIjB07FiaTqUH7jh49igULFiA/Px8DBw7E6NGjERISgurqaixZsgR2u/2c5xgMBgwZMgQpKSlwOBzYsGEDdu/erf/cqVMnDB8+HEYjcwB10RiINHjZ8QEKUIACFKAABShAAW8T2LJlC6677jrExMSgS5cuOiB57733MHPmTERGRtY2d+PGjbjllltQVVWFl19+WQciK1euxKOPPnpOICIBRceOHXXAUD8Q+f777zFp0iSkpaWhefPm+joPPPAAnnrqKZSWluL+++/XwZC7SFAiAcfSpUsRHh6ujy9cuBB9+vTRwYe06cknn8Rvf/tbBiN1XlgMy7ztbxnbQwEKUIACFKAABShwjoB8yH/11VfRtWtXfPvtt/jwww+xbt06HUR8/fXXtedKcPGHP/wBDz/8sM5MuMutt96KvLw8nDp1Sv/s2bMH7du3x/XXXw+z2XxOXZI1efrpp9G/f38d7EigM336dLz55pvIzMxEUlISjhw5Unstue4999yjg6N+/fqhvLxcn7Np0ybdNsnO/OUvf8H777+P4uJi9mwdAQYifDlQgAIUoAAFKEABCni9QFhYGKKiohAcHKyzCpIFkeyDe2iWBBAff/yxzoRIYCBDpdxFMh4yrEp+5PmSraisrMRNN910znlyvtVq1QHHRRddVFvXmDFjkJqaitWrV+tLuq8l/8/JycHs2bN1tkPaIue98MILOhMj9Uo7nE5n7bW8HtqDDeTQLA9isyoKUIACFKAABShAgV8uIB/oH3nkET3k6e6770bnzp2xbNkyXHbZZZAgQYrMH3nppZfw7LPPNpg3UrfGwsJCvPXWWzobIsOu6hcJVORxybZIhkWCCwk4JMNy6NChc06XAEOGh8XFxemhXFLqBkAWi0UHR88//zx+//vf62FlLGcFGIjw1UABClCAAhSgAAUo4PUCkv2Ij4/XwYDM0zh58iRGjhypP/jLHI1p06bpORmjRo3SWZHzFcmayHApGU518803N5gbIs+RbMtDDz2EG2+8ERdffDFiY2P1kCqZ7C7Dr+oWCX5mzJihsyF156nIOXLsj3/8I5YvX66HZt12220Nsi/na2MgPcZAJJB6m/dKAQpQgAIUoAAFfFDAZrPpyd6SrZA5F/KhX1a1kqCjVatWaNeunQ4I7rrrLsyaNUsHImVlZXoeicwrGTBggA4CZIL5G2+8gSuuuELPEfmhIgGI1CNDriTIkVWzJKtRd96JBDVSl7TpqquuOifIOHDgAG644QbIcDJZeatnz54MQs6D7RuBiOpoS1UZSirsiE+IQ5Dx7Ji/mntyoaq8BOUWqEg5BqY6YwL1cZcTxYX5akBfFGKjws7DcO5DDmsl8gvLEZuUCLOp3jQa1ZbqylKUVjmREB8LU722uFRd5cWFsBlDERcdwRfdT2rzBApQgAIUoAAFKPDjAhKIbNu2DTLpXOaJSJEApGXLlpAVrjIyMnDppZciOztb/8g8DxlWtW/fPuzfv19PPJciq2dJkCBDuOqvlFW3BZIVkeBFfqTIMrwyF0SWA3YPvZJJ7zJpXjIdMjndXaTeJ554Qi8vLMcTEhL4ebAubp0/e30g4rSWYO6H72DV98cg4UdITCquu+V29GmbojvVYSnHks8/xNfrMyErQ5vjWuCe+x9Au5QI9ZsLZaeO4KN330NmTikM6oTWvUfh9hsvR4y54XrRLpcDe9cuwoeffYNqp3q6KRwTb7wDY/q0g8QbLkcVln/2Ib78dhcM6gUaGpuOm+++C13S4lRbVIBSmodZ772DLYdOqba6kNSmH+6/90YkhHk98w+8PPgwBShAAQpQgAIUaHoBmaMhWQmZjzFs2DCdzZBMw/bt2/XcEZlYLj/uUlJSgjVr1uggQSakS5HMxnPPPaf3HunRo8c5NyUrXclqW3JtWSJYlgo+fvw4hg4dqodYySpc8hx3YCLZkM8++0wHO5L5qLs/iKyoJQGP1Cv7jbiLDC2TTIvsXcJSI+Dln5BdWL/gU6w9ATzw+JNIVwHw8i9n4tOPZqLl7x5EUngQ9m9cjK+35GDKXb9F9zQzvvzkbbz7/iz86bE7EO6qxKI5M5BjaoHHnrwOQSWH8c7bH2Lu8jTcPKE/6i8ZVnJiN2Z8vgzdL74ek4Z3xc7ln2HOzI+Q3vwxdG4WhcOblmDu2sOYcs9j6J1uxsJZ76sJSP/FHx65HdFmA9bM/xR7itXa0b/7M5IMBfhw+tv48PNVeGTqGB1EsVCAAhSgAAUoQAEK/HKBoKAg/N///R8ee+wxTJ48GZIhkQ/0f/vb3/Qwq7oTxOXqku2QbIlkT9zHJKshmxzKhPe6gYMEFZs3b8bnn3+OqVOn6sZJYCKTy2VuiFxLMiEvvvhibRAhQ7xkzxAZCiZ7jdQtckyyIPPmzdM/7iKracnyvgxEzmp5eSBSjV27DqLX0FvRMb0m5XXJpROx7V8vYdvBfIztGoeNG7ag/YDxGNS9FSTHcdVVE7Hpnx8h80Q52odk4ftDRRh3391omaRWKUjsiUuH9cCcrZtQPLof4lXwcLa4sH/HJtgTO2HiqP6ICjVh4NgrsHXLP7Bl92EViHTGhnWb0arfxRjePUM/bdzES7HjhfdVtqUM/ZrbsH7LEVw05dfonJ6ojiZi0rghmPbZOpyeMgbJIXWq4h8pQAEKUIACFKAABX6RgAx/kr04ZNUr914dkmU4X5EARLISdUuvXr30hPP6xT3X48EHH9RZFykjRozAzp07kZubq1fNkmFWdYMXmaPyxRdf1L+U/l2CDVn+l+WnBeonBX76GR49w6V2wFTrOVustbWa41ORkRih0mQn4bBXICe3HK3atNBBiJTwZq2REmxDdm4eSguyUWqKQ+uk6JqDBiPS27RCVUk+Ssuq692JBSezTiE5rRUizgzbCgqNQMu0JGRnnYTdWoQTeRVo06ZN7fNiElKQEGVE1sl8OAtPIs8Rgoz0s8vAZWS0BmynkX1aTV5hoQAFKEABClCAAhT4/xKQ7IZkG2ROyA8FIb+0AplPItf81a9+dU6wIQGIzEORTEbdIOSXXp/n/7CAl2dEwtC7dyd8smIeFkfZkBwRrCalF+JEcSVi1CY0Tmc5KqqDEBUeevYOjZGIDHPBqlJ2VpVWQ2gYQlQ6z12CVQQbpHbnlB06zylq3GBZVTXCUqIQ5E6UqMAlMiIMjjIrnGr1hXKHHZFRkbVPM6idOCPUSgnyAq5UKzO4VOqu7l+K4MgImNVcEavVrgKqED02UYr8X57DQgEKUIACnhWQ91/5QPFjk1Q92yLWRgEKNLWAvCc89dRTuhn8fNa4vSH7rtQtXh6IGNB3/HUorp6D5fNmwYJgtFC7VEoMYVZRqsEQCnOwE9YzH/BrbswCnUBRwURQqFk+9evdLN3FoTaWqQkH6kGrICJUBRUlKkDQ89TlsKzWZbHVXEwdM6sXqs0qv58p6toW1RiD+k+iZqfTBbsKgNSUen2CSzXEKjPoVVskgpfl3aTIOEeZdMVCAQpQgAKeFZD3X3kv5nuwZ91ZGwUoQAERqJ9Z8vJARAUEwVG4+JrbMeaqmmDCVZmD5/+5D+lqYpDJFA21gi6ycwrg6tFSTwh3lufhVJUJA+LiVXaiHOaKIuRVVCElRgUlKrAoVkO2TBGRiAivt4yvIQRJidHYm5eNaocLESYDnHYr8goKEds2CcFhMUiKCNFLwqFvzaQki9pMp6iyGl2T4mGKD0OMnJ+fj86pNcOzTp/Kg8sQhsSE849f5EuSAhSgAAUoQAEKUIACgSrg5XNEgOqKUpRVVKuMglEFBhasW74Up43N0btDkgpSQtC9Wyfs2bwWOcVVOnDYsupb2KKao2PrJMQlt0JGikst37YdVTYHLJVFWLN+O9LbdkNCpOQ8nDhxcA8OnTit/mxCh+7dUXJsF/YeydNZlLzDO7H3pBXdO7dR9UeiR6/22L3hW+Sq+SVS165t61Gi2tI5Q+0nEpaO7u0isGHtBpSpLIrdUoE1321ATKueaBHFNbMC9S8Y75sCFKAABShAAQpQ4PwCXp8Rydu7BtO/3ILmqQmwqPkh2QUWTLz+djVfRA1tUp/v+428FNv3TcdrL01DakwQDh/Lw8XX3YvUMPnwn4BLJ47D25/Mx0snv4ep6jTyrTG4/aahCFaHHeXZeFftrtlm/F1oq1blatZhAEb12omZb72C9S1TkXP0MDL6X4K+7VK0Xp9Rl2Hb7lcx7bkXkBZvxrGsPIy84lakRskwMRcunnQVXn/rU0x78SgiUI4ThQ5MfWC8GlDGQgEKUIACFKAABSjQmAKykpbM8YiLk/3danZRlz1AZM+R+kOCfk47ZHUu2b29d+/e5ywPLMvzynK/sjqWDM2XOWcbNmxAx44dERurhuqw/GwBg1qyTGYxeG2xVZXi8KHDyD1dBIM5XK2Q1Q7pKQl6g8Ga4kKlWgUrc+8+Nb8DSGvZFu0y1OoG6gWoi9rp/PTJw8g8eALG0Ei07dARqfE1O3IeWDsX768+hd/95i61wWFNckgyGQf3ZSKnoFTtrJ6uXlRtER58NnFUXVaA3XsyUaZ2PGBPsPYAACAASURBVEzVdTU7u9O7qqvo1AlkHjgKuxrqldGuI1okx57z4pUmyVJwsgIDCwUoQAEKeFZA9gQwq4VGwsLqDc/1bDNYGwUo0AgCsgGh7DMiE8+7deuGr7/+Gn/9618xY8YMtG7durZG2YNEdjzPysrSAYoEMHv37kXfvn31srvx8fH6c1pBQQHK1GJEsgmiPCbXlyV7r7nmGowbN05vrjhnzhzcc889uPHGG3H77bfrPUpYflig/mdgr8+IBIdFo2O3Xuj4g/dkQHhMEvoMqtlnpMFpakhXUno7/XNOcVZh8/YjuPq6W2qDEDkeZI5Apx590anBhWoeCI1KQN+BZ3fuPOc0VVdcSksMVj8sFKAABShAAQpQgAKeE2jRooXexFACh7feegtz587Vu6XLErx1iyxYIbuhL1u2TC8DLFmPhQsX6g0T//znP+utGiZMmKCzHLLLuvuLi+bNm+O7777T+5jIKqlbt25FpVrFVTZJrFKrq06ZMsVzN+snNZlUpPhXP7mXX3gbJrTt2gvpao+R+rtx/sIL/eLTJfKWjXBYKEABClDAswLV1dV65UL3KoaerZ21UYACjSVw6NAhvPvuu8hXiwbJMt0HDhzAli1b9K7n8rgEF7IhorvIZ78//vGPOHLkiNqb7oQ+V/YSWb9+vX5+Xl4enn32WZ3lkM0RZduHjRs36qBD3kfkfHlMhmXJt/wyXEvq2r9/P1599VUdqNQPgBrr3n3puvU/A3v9ZPVGw1XZi/CI8LNDuBqtIl6YAhSgAAUoQAEKUKAxBWQYlQy3uvbaa/Hwww9j/PjxOpDo0qWLzmKcr0gwMnHiRFx55ZVITEzUQUe7du0wcuRIPdRKggn3F8cyhEsClO5qYaN169YhJydHz0cZNGgQvvnmGz2Uy6K2iHjmmWf0Fx0yBLT+nhnna0OgP+b1Q7MCvYN4/xSgAAUoQAEKUIACPy0gH/67du2qMxvucvr0aR1QyLG6RaZIy5ArmeMh8z8k+PjPf/5Tm9XYtm0b0tPTazc/laBl4MCBePPNNzF27Fg9r0QmxX/wwQdoq/a4k+zHpZdeitdffx2XXHKJDlBYflqAgchPG/EMClCAAhSgAAUoQAEvF5AhUzt37jxn5Sr3UKr62QkJLCT4kMyGZDsiIiL03bnng8hwLTnu3vxUAo+3335bBy1jxozBihUr8Le//U0Pw5IARLIxkhGR+SMyRIvl5wkwEPl5TjyLAhSgAAUoQAEKUMBLBWSuhgyv2rNnDxYtWqSX3JUshUwmlwnsdeeFydwOWTlLMhvHjh077x0NHTpU7YPtwieffIIrrrhC/1kmtkdHR+O1117Tw7RWrVoFmcAudb3yyit6xS05T+pj+XkCDER+nhPPogAFKEABClCAAhTwQgFZsUoCjjvvvFNnOH7729/ioYce0sOkZDiVBA/yuAQIkv2Q+SQygV0CEgkc5PkydEuyHDIHJCWlZv84CTZkiV8JNkaNGqXPyc7OxtKlS/VqXPPmzdMT2eWaMiTs73//OwYMGMAFiX7BayRwJ6v/AiSeSgEKUIACFKAABSjgfQISSKxZs0YHBRIoyKpXF110kZ6ELsGHLMErk8plArsMpZIiq2f97ne/wxNPPKFX09q0aRMeeOABPQxLAg4Z4iXZFFlVS4ZjSeZEMi4yBEvmn8jcEAlIJJsi15V6hw8fjuXLl+Pqq6/2+Gqs3tcrP79FDER+vhXPpAAFKEABClCAAhTwIgFZtlc2EezcubNulQQMkumQoEOGVMlwKQlE5HdZPUvmiri3bViwYIGeoP7rX/+6di6IBBqPP/44Vq9ejZ49e+ole+sWmYj+8ssvY/HixXpeyX333aeDHdkNY/LkyXozxe+//14P3fLyPcO9ohc5NMsruoGNoAAFKEABClCAAhT4pQISOLz44osYPXq03mBQ9vG47bbb9HApKfK7DJe666679ORzeVwCk08//VSfL5seym7pd999Nw4fPqyDCxnKJZPQJdshwYo8Xyaiy/yT+fPn6wnp77//vh7CJQHO008/jX/84x/o168f/vWvf+nNEB955BH9fO5Z9OM9alDRmuvHT+HRCy1Qf3v7C319Xo8CFKAABc4vUFxcrIdRuFfGOf9ZfJQCFPBFAflIKxsaypwPd5HAIzk5uTbjIY/L5oOykaFkUSSDIs+TeR+yUtZNN91Ue65cR35kpSxZfWvz5s21c0jcz5GgRoIg96pbko3ZtWsX2rdvr5cNZjlXoP5nYAYiTfAKqd8JTdAEVkkBClAgIAUYiARkt/OmKUABLxGo/xmYc0S8pGPYDApQgAIUoAAFKEABCgSSAAORQOpt3isFKEABClCAAhSgAAW8RICT1b2kI9gMClCAAhSgAAUo0BQCLmsFrBvfaoqqWaeXCgT3uhHGyORGbx0DkUYnZgUUoAAFKEABClDAewVctipYN73tvQ1kyzwuENRhHOCBQIRDszzetayQAhSgAAUoQAEKUIACFGAgwtcABShAAQpQgAIUoAAFKOBxAQYiHidnhRSgAAUoQAEKUIACFKAAAxG+BihAAQpQgAIUoAAFKEABjwswEPE4OSukAAUoQAEKUIACFKAABRiI8DVAAQpQgAIUoAAFKEABCnhcgIGIx8lZIQUoQAEKUIACFKAABSjAQISvAQpQgAIUoAAFKEABClDA4wIMRDxOzgopQAEKUIACFKAABShAAQYifA1QgAIUoAAFKEABClCAAh4XYCDicXJWSAEKUIACFKAABShAAQowEOFrgAIUoAAFKEABClCAAhTwuIDPBCIupxN2ux1Ol+s8SC7YLNWoqKw6/3H1nKrKclRZbOd5bsOHnHYbyssrYHeepy51Lbu1GuUV56/LpY5bqipRWW2F/JmFAhSgAAUoQAEKUIACFGgoENTwIS97xGXHng0rsGTNVlRanTBHxGLw6PEY2LUVTEYDnA4rdq5dgiXfbkOF1YXkjM64bspkJEYG6xuxlOdj6fy52Lo/CwgKQ/eBozFhVH+EmgznuVEXcg5sw9yvliKnqBJRCc0xfvLV6J6RWHOuasvudd9gwYpNqLC5kJLRCZOvvBzNY8P0cbulDKsXzcPanQfhMASjTbchuPryEQgP8pl47zwmfIgCFKAABShAAQpQgAIXXsDrPyFn7ViBt2YuQVq3wZhy7dXolhaKz95/CztOlCgNF07uWYOPP1+JVn1G44ZrLkX18U14Z+Zi6NyHy4pvv5yJlbtOYewV12PCRV2xYeFMLN104LySlQVH8dEHn6Aquj1uumUqMkJL8OF7H+JEsUWfn5e5Du+qa6erum6cchns2TvwweyFqLI5VV1ObF/+BeZ/tx+DLrkSky8ZhP3fzcNny3ecty4+SAEKUIACFKAABShAgUAW8PqMyIE9uxDbcTCuHjccKgGCdq1TcXzfP7Fr7zH0TuuM9au/RUr3UeqD/xCEqBOSgirwl9e+wv68S9DadBJrtx/CmOsfxuCeGaqf26Mi7xiWffsdRvTrgOh6d39o+zrkmdLxu2svQ0pUMDKSb8aRp/+FjbuPIv2idli3ehViugzHdeOHQBIqMUHVeP61uTiQfzG6JrmwetVm9LvkDowe2BNGFSS5irPx3vIVmDS2N2K8PuQL5L8GvHcKUIACFKAABShAAU8LeP3H4zbtO6L05AFk5ZfBYrHg9PFDyC43olP7FnDYKnH0WD46du2ggxAp8R26IsVQhWNZOSg+fRyFjjh0bZUMg8Ggfkzq3E4ozT+B4pKaLMdZcAuOHMpCs4wOiIsMUQ8bEBIZj/atktTjx+C0FeLQ0UJ07tpNBSFSlwHJaa2RFG3H4aMFcBYcw9HKYHRu30YHTKoydOrcBc7K4zh+yu7pfmV9FKAABShAAQpQgAIU8GoBr8+ItOo3DlfnnsKL//cXxMfHoKC4EqOunIq+reLgqD6B8moToiPDa5ENxihEhanJ6dXVsDjL4AoLR1hwzXyRmuAiCkY16d2mJqQD5rOd47CjTE1AD28Zg+Az00cMRhOiIiJgrayEvaoKZXYHYqJjap9jDDUjMjgElWpyuqWsDE5TECIjI2qPh0ZGIhhOVFVZ1MR1k55sL0X+b7Vaz9bNP1GAAhSggEcE5P3XaDTCZDJ5pD5WQgFfEHDxM4kvdJNH22iz2eBohNeFUy0+Vbd4fSCSf3g7lm05ihETr0K7ZjHIPrAVa1ctUxmRVmgdE6QmrKPeSllOOM7co1H+oVFzN+quXiWrb513LSuVwTCpf5zcx3Usola9qgFTv6mKZDiWU12vtqhVtWQVL5Vr0f+oyXWddVbacqlz9dnqeZKRCT4TEAUFBSEkRLIuLBSgAAUo4EkBef+V92K+B3tSnXV5u4DTFgJ+PertveTZ9sn7pKkRPqvKF0F1i5cPzXJipVqFKrL9MEy6eCi6deuOi9Wk807RJfh61Vb1rVakyoY4cLpAJq6fKZYCFFYa1eORCI2JRVBFKYqrzw7DqiwsUImQUJjNdbIh8lRjCGJjIlCSfxpqcS5dXCpLUlhSgvCYaLXgVgRiQ4Nx+vRpd02wq0xJibp2dEwUgmJjEWqzoqi4uPZ4aWEhHConEh0VWvsY/0ABClCAAhSgAAUoQAEKqI/f3o1gUNkNhxraVHm2mU47qq12NbzJAWNwGDq0a4nM7dtRLitXqXJk+xaUBsegbatUxCVlICWyClt2HVWZCwksLNi27XskNm+LhOia4VrlJQUoKpPrB6Fdp/Y4dWQPsgtr6qssPIG9x0rQUWVfjMYYdOrQHLu3bEaVQ2py4fjB3civjkaHjHiYojPQPsWA7Tt2w6FTLmoVrW3bEJLYHi3jOARAdw4LBShAAQpQgAIUoAAFzgiY/qqK92oYEBdhwNKvFuBgbimK8rKw5psF2Hq0CldNuQbN4sKRHBeJNUu/wu6jp5F/Yi/mLViFTiOnYHTPlggyRyLMUYgFX32NAjX/Y+/GZfh212lcfv0NaJ0YCYOagP76v/6FA5Z49O2Yjui4BJzYtQbLN+5BZWk+Fn85F5aEbpgycQRC1V4gKclxWLfkS2w/nIeCk/uwYPFKtB58KUb3aadGbgUhPsKFRfMX4ERBGY58vw5L1u7FuOtvRefmZ+eViHV5ebmaSxLpvexsGQUoQAE/FahW8wfdw7P89BZ5WxT4xQIutfiPbcv7v/h5fIL/CgT3uBbGiKQLfoP1PwMb1PyJ806ZuOA1/48XlOblH9+L7zbuRHFFNSJiktB38EVonRKj513I8aLsA1i5eiOK1YaGGR16YeQg98pWMs3Dgf3b1mKj2mTQYI5Cr0HDalfROrF9Kf4zezMee+J3aBYpWQsXrOUF+HblKrXSVQniUttgxMihiA0Pkmkees5Iad5hLF21HqUqLdKiQ08MHdBdByk1h504vncL1m7ZA5vRjM59hqBfpxa6nXVLbm4uUlNT/0cRPo0CFGgqgfXr12Pp0qUNqm/WrBluvvlmPeTz1KlTeP7557Fv3z706NED9957L5o3b177fiXDO999911s2rQJ0dHRGDt2LKZOndrgmvKAzFHbsUPtV/TBBzh69ChatmyJ22+/Hb1799bvfXl5eXj99dexXWWFO3fujF//+tdIS0s751pyjdmzZ2Pr1q0YOnQoJk2adN66AuXBYjV8VvopLKxmI9pAuW/eJwV+TMBZkY+K6SN/7BQeCzCB8KlzYErufMHvuv5nYK8PRC64gPuCLhvmvfsywvteg4t7tWy0as534fqdcL5z+BgFKOB9Ap988glefPHF2obJh/z9+9UmpoMG4csvv9Sr4U2YMAHyrfvVV1+Nzz//HLFq/ticOXPUqn/xKCgo0I8Xqvlj1113nc6OHjx4UB+vXyTQWLt2La699lr07dsXI0aMwK5du3QQ8tBDD0E+UE+ZMkUHPnKtuXPn6m/658+fj4SEhNrL7d69W7dJVouS86dNm1a/qoD6nYFIQHU3b/ZnCjAQ+ZlQAXSapwIRr181q/H63IUeo65GekZ641XBK1OAAn4lIJmLutmLY8eOYdiwYbjpppv0N+xffPGFDiw2btyIVq1aYfLkyRg/frzOokhAIZkQyYgsWrRIZzekuJf1rg8lj//xj3/ExIkT8fLLL9cusOE+f+XKldi7dy+++uor9OrVS7dhyJAhmDdvHu64447aa8voWwlUJIhhoQAFKEABCniTgJdPVm9EKkMIWrfJQLCs/8tCAQpQ4H8QkMAiMTGxdriTBAcDBgxARkaGvlqHDh10BuPbb7/Vw6wkWyEZkeTkZJw4cQKlpaU/uJ9FdnY2JJtx22236QyLnC8ZF8l6yLVWr16tVhLshk6dOum6ZEiWBCLyuHvErQQ8MkTskUceaTBE9H+4XT6FAhSgAAUocEEF+Cn8gnLyYhSgQKAISGbjnXfewd13362HX0lwcPLkSbRu3bqWQIIGmT8iczkkmJAMigQlffr00QGLBCnPPffcmf2KzpU7fvy4fs4//vEPnfGQ8yXQkOc7HA5IoCLBh3s/DFmbPT09XQ/VkuNFRUX4+9//jj/84Q/nDNUKlP7hfVKAAhSggPcLMBDx/j5iCylAAS8TkIzD+++/r4dL3XDDDbUT0SUYcW9c6m6yBCNyvvxIgCCBydtvv41169bhrrvuwt/+9jfIJPj6RYZgyUIXMvRLMhtLlizRgcY999yjljSv0sGL1FV3MYy6db355ptISkrSGRgWClCAAhSggDcKMBDxxl5hmyhAAa8WyM/P16tVyaRxyYZIMZlMephWVlZWbdslWJDMSVRUlM5cyP8HDhyoMxsyfOvxxx9H+/btzxuIxMXF6WFYMs9Ehl/JMCzJcMgQrZycHJ3lkP+754y4V9GSOg4fPoxXXnlF1/nkk0/iiSeeQGZmJtasWYPXXnsNNpvNq33ZOApQgAIUCAwBBiKB0c+8SwpQ4AIJyAf+Tz/9VGc3ZIJ43SKrZ23YsAElJSX6YQkUZPldCT4keyHZDclsSEZDisz5kOFX7n2F5PeysjKdPWnXrp0ONr755pvaOR+yypYEJ+Hh4fqaMgFdhoNJkfkmkmWRx+V6EnyMGjVKZ1FkCFdoaKh+XOan1F9SXF+AhQIUoAAFKOBhgQBeNcvD0qyOAhTwCwFZglfmhsiwKlmSt26R7MVLL72EX/3qV3pfkQ8//FBnJWTlKyn33Xefntj++9//HldccYVe8reiogKXXHKJHmolz5X9PqZPn46IiAg8+OCD+Pe//62DGFll65lnnsHIkSP18C55jizFK1kVacusWbN0wHLVVVfpwOOBBx6obZoEO8uWLdPZl2uuucYv+oE3QQEKUIACvi/AjIjv9yHvgAIU8KCADHvq2bOn3liwfmZBAoAZM2boPT5k6d3Kyko9H0SyEnKuTDqXuSWHDh3SAYQs9fvRRx/ppX5lbxHJtMikdMl4yPn3338/Hn30UXz88cd46qmn9BCtV199VWdFJBiRgEiCD6lLJqlL4CPXql9k2Jhka7p3717/EH+nAAUoQAEKNJlA4G5o2GTkADc0bEJ8Vk0BDwjIECsZfiUBRf3J6xI4yBwNOS57j7gnnMt+IBJYyC7qsuO6u8j5cq7MBZGhVbI6Vt0i15KA53x1eeBWfa4Kbmjoc13GBntAgBsaegDZx6rghoY+1mFsLgUoQAG3gAzHci+rW19FMh31j0uwIY/985//1BPa6xY5X4KMHyoSyMTExPzQYT5OAQpQgAIU8FoBzhHx2q5hwyhAgUARkGBD5nywUIACFKAABQJJgHNEAqm3ea8UoAAFKEABClCAAhTwEgEGIl7SEWwGBShAAQpQgAIUoAAFAkmAgUgg9TbvlQIUoAAFKEABClCAAl4iwEDESzqCzaAABXxfQPYC2bx5c+0GhDIJXTYklKV5/5disVj0kr6y0lPdIpspfv7559iyZYtegUvq2b17N77++mu9HwkLBShAAQpQwBcEOFndF3qJbaQABXxCQCadyyaFspeIbEQoAYjs8fHII4/ghhtuOGfp3fXr12Pu3Ll6+V4JLBYuXIg+ffroP3///feYMGGC3ktEdlOXPUNGjBihf5frycT21atXo3Xr1pg/f77eWFGW8F26dCmGDBnSYOUtn8BjIylAAQpQIOAEmBEJuC7nDVOAAo0hIFkJ2evj7rvvxuzZs5GTk4MlS5bondRlt/P6mQrZYPCyyy7Tu52PHj0aZrNZb5Qomw6GhoZizJgxelne6667Tu+mLkGIFNmRXXZNlx3Zi4qKkJmZiauvvhqrVq3SAY8s/yvtkN3UpU0sFKAABShAAW8VYEbEW3uG7aIABXxKQDIZTz75pM5wyA7qssv5hg0b0KNHDx2cdOnSBU888cQ595SdnY1PPvkEt9xyC2QTRMmgSBAhQ7Jk41PJksimh4MHD9bP27t3LySTIsHKvn37cODAAaSmpuK1117TAYns+i5/lmPSHsnK/NgeJD4FzMZSgAIUoIDfCTAj4nddyhuiAAWaQkCyDxs3btTDpd544w3ceuutOii47777dJaifkbE3UY51rJlS50FSUlJQXJysg4+5DHZSV1+3CUtLQ0DBgzQWZQ9e/bojEjHjh314bi4OD0sSzIhO3fuxO23316bRWkKD9ZJAQpQgAIU+CkBZkR+SojHKUABCvwCgYSEBKSnp5/zDAkmZOhV/SLZEwk+jh49qrMmJpNJn3LnnXfi0KFDOpvRuXPn2qdJ0HLq1Ck9LEuGY0ldMvwrKSkJvXv31gHK1q1b0bZtW/270cjvmuqb83cKUIACFPAeAQYi3tMXbAkFKOAHAjKJXCaO1y0ypErme9Qv7dq1w3//+18sXry4/iF9DQlQ3BkRybjIClqlpaX405/+pAOXa665BpdffjkKCgqwY8cOHbzI8CwJSBiENCDlAxSgAAUo4GUCDES8rEPYHApQwHcFMjIy9JyQ06dPY9u2bXruhwy56tevn37cXWSYlmQ1ZKjV008//YM3LOetWLFCBxgScLRo0UIPu5IhXzJXpFu3bjpYkZW0JFCRVbP279+vJ7OzUIACFKAABbxdgIGIt/cQ20cBCni9gDsIeOqpp/ScEAkuJBB566238N577+mJ47KfSN++fdG8eXN9P5IFOXLkiM5cZGVl6cc3bdoEmcB+8cUX62FZQUE1b9EyZEvmfsiEd3n8hRdewG9+8xs9j0QClcTERD1MS+qXwEcmy7NQgAIUoAAFvF2AgYi39xDbRwEKeLWABCHu1apefvllnaGQlawkSzFz5ky9ApbM45BgYfjw4Vi0aBE6dOiAKVOm6PuSDIcMsZIsR2xsLLZv366zJ8uXL8fkyZMxdOhQPXldivxfAg0pErzMmTNHZ0rkeVVVVTrgkaxMdHS0PoeFAhSgAAUo4M0CnMnozb3DtlGAAl4vIIHGX/7yFx0MyDwQCUxk6V35XbIjBw8e1MOoJNiQ/UBkmV4pcp5kTR599FH86le/0vM65FpSrrzyStx222147LHH8NBDD+lsiLtIRuTxxx9HSUkJhg0bpodjSRAj1xk/fjzy8vL0MsEynOuHVuqqvRj/QAEKUIACFGhCAWZEmhCfVVOAAr4vEBISgr/+9a96+VzJRMiu5//4xz9qMxeSqYiIiNArYsmyvjLcyj2Ua9myZZg2bZo+Jnt+LFiwAPfee69edlfmlcheJP/85z91gCKrbq1bt05vXCjXlCClU6dOOisiE97vuecejBs3TmdnHn74YR2svPrqq3pXdhYKUIACFKCANwoY1D+I3HrXwz0j35bK0A0WClDA/wRsNts5GQy5QwlW5Me9O7q87crmhbIcrzwuRVbDWrlypc6auIdWyXmyepZ7U8KTJ0/qgETmg8jckuPHj+uhYLIjuzzHff2ysjId7Mj13Y/5n/T/dkfFxcXa0D3c7X+7Cp9FAf8ScFbko2L6SP+6Kd7N/5dA+NQ5MCWfXT7+/+tidZ5c/zMwMyIXSpbXoQAFKKAEZG8Q+fmxIsGBBBN1iwQSkyZNOucxOU+yKe5Sf38SmawuP/WLBCAsFKAABShAAW8X8PpApLqyHDZHw6RNUEgoQs3BMMAFh82K/FN5KLO4kJSSjOjw0LPfAqpvBS1V5XrMNszRSElKQGjID9+2y2lHWVEBcvNLEZ+SirjoSJiMhtp+dNitKDyVi+IqJ5LVRmRREaEwqg8Luqi6rJZKnMrLhc0QhpTkRIRJG93Hvf3VwPZRgAIUoAAFKEABClDAQwI//IncQw34qWq+fPffWHuw9Oxp6sO+Q62t32PsjbjrisGwVhRi7ifvYv2+UwgLMaAakbjpngfRu7V82+hC/rHv1fKZM3DKYoTRXoWYjD648/brkBJZMxyibv0uhxUbl36GOV9vhDkiHJUVVgy7YiomDe+FIDWt32kpwbyP3sHq3dmICDXBgghMue0uDOjQXAUbLpTnH8EHb7+Hw4U2BMOGoLg2uPeBO9AitmbFm5+6Vx6nAAUoQAEKUIACFKBAoAh4fSAyfNIt6FFpr+2PkpOZmDl3hVr+srWKM5zYs24xNhyx4pYHHkWH5BAsnfMuPv14Ntr84X5EoQyL5n4Oa3JPPDZ1EoIqTuK9N6dj3tI2uPPKi2Cq18sFx3Zi7tLNGH7Vnbi4f1vsW78QH86fg7ZtWqFny1hkrl+MlXuLcfuvH0dHVdeKLz7CZ7O+QLvH7kF8qBGr5s9GrjEdD/3uesQZSjHjrdfxyefL8bs7JoLLkwXKXyne5/8qYFn/Ohy53/+vT+fz/EwgqPVwhPS83s/uirdDAQpQgAJ1Bbw+EElt2Q6107pdNnyzdQkiW/VB37ZJcKlhUlu2bEeHgVeiR9tU/WF//GXjsPLv72BfVgk6mLOw91g5rvj1xUiJVeOsY9rhkqG98PGGrSgaPxiJYXXDAyf279gCY0oXjBzYRWVXjOg+eCzar1mPbbsPq0CkCzZv3Il2Ay5B7zYp2nD4mLFY9/xbyMwud5ig1QAAIABJREFUxcA0CzbtzMaQm65DRlKMOhqDCWOH4LkZm5BbPRHNa5b+56uPAhT4AQFH3i44jqz+gaN8ONAEjFFc7SvQ+pz3SwEKBJ6AT31RX5Z3CGu2HcPQ0SMQEWxSm3eV49Qpi5qs2aw242BOaomUEDtyTp1CWWEuKoLj0TI+sqZnDUakZrSApbQQZeVn1+WvOWhFTk4Bkpq3RHhwDYspJAzpqYnIy86B3VKM7IJKvVmYu0TGJSI+Mggns/PhVHXlu8xIb1YTpMg56ektAEchck/XryvwXmi8YwpQgAIUoAAFKEABCtQV8PqMiLuxLpcd29asgDWhEwZ0bqHmZKg5G85yVFpMar5GnXSDIQIRYS7Y7Q7YysvVBHUzgtUa/e4SpFagCVZzTBps9GW3obyqGqHN1Hr/7rnpKnCJiAiDs9QGp1q3v0JdMyLy7Ao2BnOICoiCVF12VJaXQW0GgLDQs/NBTOERkJZJW2QpTTlPivzfvalZ3c7gnykQyAIuZ8NFKQLZI9DvXeYCNsb7pLz/ytLHsncLCwUoUCPgOrPRKj0o4BaQpegdjfC6qP/522cCkarC41i18QAGXXU/4tREcSlGFXSEhThQVRfKVYnKKsCgVroKVhPOoVbUsjsd6uya5TQdak1+q4piGqxkpTYZiwg1q9WwquBUZ+sa1ByUyspqdS0jDCrYCVf/cMlGYu4if3ErbXbEqOPhKsBxqXpqdkauCYycVZWoVp+tjKotUp97SU/Z0My9d0DtxfgHCgS4gL3O6nQBTsHbVwIm9b7aGO+T8v4r78WNcW12HAV8VcBpC4HVVxvPdjeKgLxPms7sc3UhK5AvguoWnxia5VIBwfffLUd5dBsM7q4mqZ8ppqBIJCYE4cSJPLU+Vk2xF59EniUIKYmJiIhNRlhVEU6WVNYcVFmJ0yezERIZg0iV6Ti3mNVyu7HIzzmJKpuEIirjYrMg53QBElJTEBwag5SYUGRlZdU+rUptjFWkVtZKTUmEMT4FcU4rstWQMHfJyclRUUgUkhJVQMRCAQpQgAIUoAAFKEABCtQK+EQgYivPwbLvdqPfsFFIjDibxDEGmdGrZzdkbvoWh3JLYbdWYvXSFTAktELHjHjEJmegXVowVi1fi9JqGyqKsrFy7Q606tQT8eFy605kbl2LbfskuDCiQ49eqD65G5v3HIPdYceR79dDrQqMXl3aquPh6N23M/ZtXI1Dp2rq2rxuNSrDWqFzixiYQpuhd6d4rF/9LfLLqlFdXoAVq9chqWMfpJ0dzcWXHgUoQAEKUIACFKAABSigBHxiaNbe9ctREJKG2/t2VBsY1ilqDkfP4ROx59B0vPnivxETbkJhmR2Tb70fiWY5MxaXTr4C77w/B8/+axuM1nK4olvhrksGI0gdthUfw4yPP0WPK3+F3h2B5LZ9MXFoJuZ/9DrWxEWjpKAI3UddhZ6tanZA7j78MvTf9zpee/5fiFMBUXG5AxOuvwNJESF6H5Exk6/Fkekf4IV/H4RZ7WhSaYjD7Q9c4hvI/OtAAQpQgAIUoAAFKEABDwoY1CRqr58hWlFaBIszCHGxUecGIhpK7WZeVYETx4+j1OpCs+YtkByvzquz23l5yWkcPZ4DozkS6S3S1c7rZv3MPatmY/Y2K37/q6kIk8hEFadaEjgv+wTyCksRm9gcac0S1WT3s4kju6UCx48dR1m1A8m6ruizO68rysqyIhzPOgm7wYzmqq64yLAG81Fkl/fU1NpFiXW9LBQIdIHKeQ/CcXhVoDPw/s8IBPe4DqFj/nzBPYrVkFqzWsQkLKz+8NwLXhUvSAGfEXBW5KNi+kifaS8b2vgC4VPnwJTc+YJXVP8zsE9kRCKi49Qe5j9UDAgJi0Sbjl3Of4IKSCLVXJFu6uec4qzEll25uF5lNNxBiBw3BoWgWcs26uf8lwsyR6BNhx/oGFVXeHQ8OnWNP/+T+SgFKEABClCAAhSgAAUooAV8IhBplL4yhuPmBx9qlEvzohSgAAUoQAEKUIACFKDAjwv4xGT1H78FHqUABShAAQpQgAIUoAAFfE2AgYiv9RjbSwEKUIACFKAABShAAT8QYCDiB53IW6AABShAAQpQgAIUoICvCTAQ8bUeY3spQAEKUIACFKAABSjgBwIMRPygE3kLFKAABShAAQpQgAIU8DUBBiK+1mNsLwUoQAEKUIACFKAABfxAgIGIH3Qib4ECFKAABShAAQpQgAK+JsBAxNd6jO2lAAUoQAEKUIACFKCAHwgwEPGDTuQtUIACFKAABShAAQpQwNcEGIj4Wo+xvRSgAAUoQAEKUIACFPADAQYiftCJvAUKUIACFKAABShAAQr4mgADEV/rMbaXAhSgAAUoQAEKUIACfiDAQMQPOpG3QAEKUIACFKAABShAAV8TYCDiaz3G9lKAAhSgAAUoQAEKUMAPBBiI+EEn8hYoQAEKUIACFKAABSjgawIMRHytx9heClCAAhSgAAUoQAEK+IEAAxE/6ETeAgUoQAEKUIACFKAABXxNgIGIr/UY20sBClCAAhSgAAUoQAE/EGAg4gedyFugAAUoQAEKUIACFKCArwkwEPG1HmN7KUABClCAAhSgAAUo4AcCDET8oBN5CxSgAAUoQAEKUIACFPA1AQYivtZjbC8FKEABClCAAhSgAAX8QICBiB90Im+BAhSgAAUoQAEKUIACvibAQMTXeoztpQAFKEABClCAAhSggB8IMBDxg07kLVCAAhSgAAUoQAEKUMDXBBiI+FqPsb0UoAAFKEABClCAAhTwAwEGIn7QibwFClCAAhSgAAUoQAEK+JpAkC802OVy4FjmDny/7zCqHcFITW+Nfn27ISxI4igXSk9nYcPGrSiqcqFlh+4Y0L0tjAZDza25nDi+bzu27joAV2gsevQZgLbN437wtu3VJdiyfj2O5JQgqUVrDOjfB1FmU+35lYUn8d26TSisdCGjQ1f07dYewaazdeUdzcTG7bthNYShc8/+6NwqGQZ3W36wVh6gAAUoQAEKUIACFKBAYAl4f0bE5cLWxZ/ghTc+wpHTFbBXFWL5l4twstKiesqFsrz9ePn5/+C7XcdhKc3F7LenYc7KPeqIHHZh73df4j+vfYisYgty92/CKy++hJ1ZReftZYcKQma+9RJmLV4PO6xY9eUneP2DL1Bu01eDpfAw/vPsc1i94yhs5afw3/dew+xlW2BX9UhdJ3d/i+emvYnMkyUoOrEXb7z4PNYdOHXeuvggBShAAQpQgAIUoAAFAlnA6zMiFTk7MGPhVky66zGM7Zmu+8rlcMBpNMLldGDDN4tQldANj/76NsSFmtBnxad446v/4qL+nZGKU1i89Dt0H3cjbr20PwyOKsx67d9YuGgVOt49GeYziQz3CyBrzzpsOWbF3b95HF3SolA8tDueef4DbMwchNHd07B+2UIUhbXDnx97ADEhQJ81X2D63IUY2r8rWkQb8fWCBUjrOwEPTB2PEIMNiz54CXM/W4B+f7hD/R7ILzPeOwUoQAEKUIACFKAABc4V8PqMyN5tW2Fs1h3DujdHdVUlqqqtgApCTGq4k9Nuwd59R9Cl7wAdhEjpMmgIIi0FOHD0FApPHUN2SQgG9+2kzzcGhWHQwN44dXw/Csrs9V4LdhzYvRcJrbujdWq0OmZATLMO6JoRoetwOcuwe/cxdBswRAUhElUY0K5LXyQEFSLzeBEc5ceRmWVDPzWUK0RUDcEYOKg/qnIycazUWa8u/koBClCAAhSgAAUoQIHAFvD6jEhubg5Cg2IxY/oryM4vhstoRttuA3H5+GEIcZSiuBTonBhT24uGsEQkhDlQVFKCKmshLGHR6nfzmeMGRCUmwVm1VQU1amhXdJ3bd1pRWFSOmJRkhJyZEmIwBSExLhYnCgvVkLBSNS/EhlbJybV1hURGIEZdu7CwGPaYMlQEBSNBne8ucQmJMKIaxUXVcEWHwemsCUjk/3Z7/UAosF+IvHsKuGSIIwsFzgg41euhMd4n5f3XobLqjXFtdh4FfFXA5eBnEl/tu8Zqt7xPuhrhs6r7s7C73V4fiMg/FpbyMqT0H4GhY5OQf2wXvvxqLoJikjGpfxTsTiOCg+reRrD6XaZsuFTGxKayIEEwqAyKuxjUwZop7vU+9KhJ7TaFHhQcrI/rorIowXIxi0sPB7Opawar47XFaEKwDBHT/2DaVD0GBNVpi9QlLXN/wKo7aZ0T2M8y8k8U0H/d1H8sFHAL6LxzIyz04b5mY1ybvUcBnxVohL9rPmvBhmsBeY9sjPfJ+tf0+kAkNDQUUS0649JRgzVMu7ZtUJZ9CGv3ZOKKAaMQbrahtLzy7MvGVY7ySgNCVMAQEhkJV2Ulqm02dbwmgLCXlcNuMsGkfs4ppmBEhoUir7RUTVQ/c7aag1Kurm0KCYEpLAyR6jmlJSoFg5qsiMtiQbnViiR1PFTVZbA7UFFRASRE6UtbyytgVfFOSEjwOR1qlKFl9es/tzX8jQKBJ8A4JPD6/EfuWP6xaoz3Sfd1G+PaP3I7PEQBrxZwqi9WWShQV6CxPqvWD0S8fo5Im7btkH9oL/ItNcOa5FvTILVsryzPawoOR3paLA4dOArHmWEd5cf2I8cZghZpzRCTkI5YFOJAjhrSpRe2cuDwgYOIjEtBTHSo9pYUkdMp2ZEQZLRqhpysQyirrElR2qrLcTgrDy0yWqq64pChJrAf2L9fX0tW7Co8lY2CUhdatUyCMaEl0kKqcfBoVu3xQ4cOwGBuhvQUNbOdhQIUoAAFKEABClCAAhSoFfD6QKRdn2FIM+Xio4/nIiv3FA7s/Bartp1Ar57d1bArNRF9yGAc37oM32zYi5wTBzFj9gIktR+IzmnhiExqiX5d07D08/+qCeXZOLRzLRZ+txe9Bl+EWJlw7rRg4YzpmLtqhwJRk897DUJM+WF8plbVys3LxYovZ+GEMwUDe7RVx4MxeOhQ5G5fjsUbdyP3xGF8OfcrmNv0RafUKNWWWAy9qDvWfz0PW/cdxbF92/DF1+vQdehIJHp93ol/IyhAAQpQgAIUoAAFKOBZAa//iGwMT8Yd996F2bPn4vVpm2AIMqPL8CtxSf82ekx5qz5jMaWwDEsWfIKVDiCuWVvcedOkmqV5DaEYe/VNqJg9Ex+/8TKgApeOF12OiUO66NHoZSd2Y+WWQ7hm0BStHpXaHjdPvRJz5i/DtM3fIDQqEVNuvhmtE8P08Ra9RuGmy4ox/6sZWO1wIb5ZO9xy7SREnpndPmj8tSiqmIUvPpoOJ0xo0XkkrpswwLM9ytooQAEKUIACFKAABSjgAwIGNZHaJ5aqcTpsKC+rgDEkFBFqLsc586rULVRXlqtd11UwoeZqmNSk8bpFhmSVlZbpICYyIuzMlFgX1nz+JnajG+6+aujZCerqiXZrlZpnYkFYRBTMweeOmxQuS1UFLDYnIiKjEOTeVf1MhS416b1STa53GIJUXeFnd3iv06Dc3Fykpqb6wMuDTaSA5wQq5z0Ix+FVnquQNXm1QHCP6xA65s8XvI3FxcUwm80IU/P+WChAgRoBZ0U+KqaPJAcFagXCp86BKbnzBRep/xnY6zMibgGjmkweHXt2adxzZFRUEqqChppZHw3NDAYTomPqPddZDWtYa1wzYuA5QYg8OygkTA3dOv8/UjLJJjQ88kfqMiIi6uxywg1bw0coQAEKUIACFKAABShAAZ8JRC54VxnDMHrCuAt+WV6QAhSgAAUoQAEKUIACFPhpAa+frP7Tt8AzKEABClCAAhSgAAUoQAFfE2Ag4ms9xvZSgAIUoAAFKEABClDADwQYiPhBJ/IWKEABClCAAhSgAAUo4GsCDER8rcfYXgpQgAIUoAAFKEABCviBAAMRP+hE3gIFKEABClCAAhSgAAV8TYCBiK/1GNtLAQpQgAIUoAAFKEABPxBgIOIHnchboAAFKEABClCAAhSggK8JMBDxtR5jeylAAQpQgAIUoAAFKOAHAgxE/KATeQsUoAAFKEABClCAAhTwNQEGIr7WY2wvBShAAQpQgAIUoAAF/ECAgYgfdCJvgQIUoAAFKEABClCAAr4mwEDE13qM7aUABShAAQpQgAIUoIAfCDAQ8YNO5C1QgAIUoAAFKEABClDA1wQYiPhaj7G9FKAABShAAQpQgAIU8AMBBiJ+0Im8BQpQgAIUoAAFKEABCviaAAMRX+sxtpcCFKAABShAAQpQgAJ+IMBAxA86kbdAAQpQgAIUoAAFKEABXxNgIOJrPcb2UoACFKAABShAAQpQwA8EGIj4QSfyFihAAQpQgAIUoAAFKOBrAgxEfK3H2F4KUIACFKAABShAAQr4gQADET/oRN4CBShAAQpQgAIUoAAFfE3gfwpEXC4XnE7nD9yrC9XVVXC6fuAwH6YABShAAQpQgAIUoAAFAl7gFwciLocN3y2chQ37886L57IW4u1X30JumfW8x/kgBShAAQpQgAIUoAAFKECBXxyIAC4UHMvE3M9m4dNZc7B87WYUlFbVSmauW4IFK9bidJmFuhSgAAUoQAEKUIACFKAABc4rEHTeR8/7oAsOhxMmUwi6dumIb1ceR/axA9iwYiGePZKN5LY9MHpQZyz7ahFueuQpdG8eed6r8EEKUIACFKAABShAAQpQgAI/OxCx5O/HP1+Zh2tunQqDKwSjJt2ACT2bo6K8DIV5xzD9P8/gww+2osuYW3H1qG4wGgzUpQAFKEABClCAAhSgAAUocF6Bnx2IFBWWwFh1Es/8+Q8INblgiN2E/a1SUVlaDGN0MkZc/zDua5OEmW+8jkXrB2HykA7wXCzigs1qhc3hQmiouWEQpCbXywR6qGxOaMhP37JTzYOpqrYhNCwMJmO9gEpdy26zwmJ3ISysYV0ykd9qqYbTYFJ1BSsDBmTnfeXxQQpQgAIUoAAFKECBgBb46U/lZ3hSOwzArTcb4UhogV1LZmHj4SL1Yd2OgZfegBHdU1FuC0dcpAmTJ43ECzNmYGCPJ9A8KuQC4DqxeOZbOFzoOOdaI664DV3TwuF0WLFrwzIs/XYrKtT8+ORWnTHlqklIiKi5NWtFIZYt+BJb9x0DgsPRfeBojBveB2bT+QIEF/IO7cC8Bd8gu7AS0YnNMW7SlejaMqGmbpcdmRtXqDkwG1FudSFV1XXFFRORGhOqjzus5fh/7N0HYBRl3j/w7/bd9E4C6Qm9N0GkFwURe8He9Synnuf188p7d969d+e1v3oq9t4FOwoKSO+d0FMgpPe69f/8JmwIIfhC2JVs9vt4eyQ7M8/MfGYyM7952vKFH2Plln1w6kzIHjIOl84aD5uxE01xfCDHLChAAQpQgAIUoAAFKNBVBU7jCdmBtV/Px1/+9jQOHi5D/xHDkLdtDTbtysVXb/wL9z/yKD5fvBj/fvodjBqahFWbDqpm7T5InmpsWrMNblscMjIyWj8RNoPK3IPCXSvx6ruL0XPQeFwxZzrq9q3CC28vhENW7bHj24/fxKLNhzDxwiswbXRvrPj4DSzasL/DDWusyMMrL72GGlsarp57JZIMZXj5xVdxuLqlB7CSPWvw3Bufooda11WXnI/GvA14+d3P0ehQXRl73NjyzXzMX7YTI6ZciNlTRmDHkg/wwZKtHa6LX1KAAhSgAAUoQAEKUCCYBU65RMTTWIleoy/DjX1z8eWXy1Hw7TdIGX8Vrp89Co3bKjGgoRGfvvJfNPSajutuuhF7dxVA1VI68+pZ1aUocxlwwfSLMSKlpeTBe8A8qjRk9bJliB80CZfPmgiLqkbVw9yA3z3zOfYWz0CG4TBWbtqHqVc9gPEj0lWw0A8NJflYsmw5Jo7IRni7vd+/eRWKdEn4yTWXIDHChMykSOT9+W9Yu+MgLhuXjVVLlyC87wTMvXAipJAj2uLAP57+CPvKpmNAvAdLl6zDyBk3Y8a4EdBLGFZThJcXf4OLpg5D5GmEfMF8QnLfKUABClCAAhSgAAWCQ+CUA5Hdq7/C/z7+BvTWMISgAQeKapFRWoP/2fAJCksqMO3WRzFr0hG8u3In1u+vw/jBfdFR5afTZa0sKoJdF4qwEGnn0QSd3gCzyai1vXA5GnAwrxR9L+urBSGSYvsOQoLnfeQdKkRUaD7KHVEYlJHQ0lZDtdvoP6g/FmxZg8qaZoTHWNpsjh0H9ucjMW0gYo5WKbOEx6F3Wrz2vfucGOzLrcCAmYNVENKyrh7JmYgPc2B/Xhn6GeqQW2/EpD7Zqo2KZKtD/wED4P7sNeSXOjG4xylTny4R56cABShAAQpQgAIUoEDACZzy03G/KdfjnRET8d//zINHNcJOrnchJrEfbrtmCtZ88CxeevdJbI1OxSMP34BPvlyM0dlzVaP2Mw9FqmpqoPfU4Ynf/0yVsLhhVQ3jx02+ALOmjIbeXYe6RgMiw0Nb4XWGCISroKWhsQnN7hp4QkIQora3JelgDo+A3uGAQ32ANoGIaqBeW9+E0OQomI5utgQ9EWEhsDfUw9nYiFqHE5GRka3r0quG8WFmMxoaGtCsttNpMCIs9Ni22MLCYYIbjQ3NatsNcDqd2rLyr101rmeiAAWOCXjcPqnMSdJuIuByu/1ynZTrr16vV13RS/VeJgpQQAQ8fCbhidBOQJ6TXX44L9zq2t42nXIgIgstevcVeHoORj9zGXpkTETv2s2YvyQHc4YPQnnmVZiYbkVKZi/sWrURBaqxd+/4Yw/lnT3CaUMn40fxA7X2Jm5nM/JyNuKTj95AaHwSJvc1ql6t1PdSB6w1uaW5hpb0KpCQBdtOlmCmw8cdVcJiUB/p9Uqma7GI+rk1b526cakv3d7M20zXqbm9NzVZ3pta16WWkxIck6klIDIajTCrAIaJAhQ4JuBs30MdcYJawKCCBX9cJ+X6K9dif+Qd1AeMOx/QAm6HGXw9GtCH0OcbL9dJgx+eVeVFUNt0WoHI5Gsfwmz1xr9412oUWBIxKv0qVH/wIUr1SUhLikFGVoKW96RzB2GPjwIRvSUM6RnHBkfMzEzGwR3bsU9Vl5rafyjCQ10oK69Wa01u2a/mClQ06DE4LAyW0CgY62tQ3dyMBLQ8+DeUV6iCEIv6X7tAQG9SpR2hOFBeCrsKZKzKyeNyoqKqBiHxkTDaQhFlMaGstEytJ0lbl7O+AdVNzUiPCIcxSg+rih4rq6tU111x2vTayko4VZlIeNjxbVtaNpT/TwEKUIACFKAABShAgeAVOK0m1KFHqx0l9BuDkZmqS1u9GVMvuRR9hozHxH4tD99CGd9vLEZmxPhEtTB3P2qbW6o0SYb2+ipU1jUhPDwcBpMVfbJTkLN1K+ql5yqV8rZsRJUpEplqjJOYhFT0CK3Hxu15qiRDAgs7Nm/ehtikLMREtAQi9dUVqKpVY4yogCG7bzZKD+7EERVESWqoPIyc/Cr06Z0OvSESffskYcem9WjUVuVBwYGdKGsKR5/0GBjCU5Gt4rDNW3dCDWeiklutazPMsdlIi2EVAA2UiQIUoAAFKEABClCAAkcFTr1ExN2EJd9uwuRJ5x43SJ/eZMGRzV/ig43NePi2OVq2OjVwoNa7rg/S3nVf4JNNJeinGn7HhQA7t2xGmScRV52jBkzUG3HulBlY+cTLmPeiG30STVixdDkGT7wWGZFG1XNVT0ydMAKvffQqXFUTYKrJw4odlbjq7ltgkxDMUYkX/vVXhIy4FLfPGYv0wePQb+laPD9vHs4b3hs5676FO3EIxg5KVTPrce60WVj296fx1LNG9O9pw5rlK9Bn3MVIjwnRegebMXMannx9AV62lyMalfh25W5Mv+VHCDmtcM8HaMyCAhSgAAUoQAEKUIACXVzglAORg6s/wn/e2Y8h6SFYuHo/oiNVI/DoZAxRvUo1uJtRXFarShyasOCZx/D0N+V4dt7fkRplO+Pdn3D5nYhLX41d+wtQVu3AgLHn49xxYxEfIdWddIhOG4aHHrCqLnnX4HCZAxMvvQ1Tzxt6tOcqPUaefw1CYnthzZb9cFjjcOt9l2FIVg+tDUjhrg04qEo0fjx5lLadprA43Hzvg1j6zRLkFxxGyrBpuHHKRERZW6Kq8KT+eOTH9+PLJatQWFqLcXNuxMSxw2A+Wrc9a9RM/NAWixUbdqJKZ8ZVdz2EMYPSztiAGVCAAhSgAAUoQAEKUKC7CZxyIJIx7gIM/eoF5G5bhUXL9iM73oCDFaqOUkklfvj0b5EStgyl+9finSX78PDP/4TkyDMPQgRbr0pXBo6eqD4d00sj8PhUNZr6Df07nEGn2n4MGD1F+xyX1Cjp69dtxQVX3YBerQOK6LReuS645OoO85Jij6hefXD19X06nC69bGUOHqt9mChAAQpQgAIUoAAFKECBkwucciAipQ/y0J/RfxAm6c7BVcMtePqznUiszj3aw5QTq75ZgTn3/grTR2aoikxdPbkwcOJlSM1M6eobyu2jAAUoQAEKUIACFKBAtxM4jUBEDRS+51s88vvVKFO9Un37rh6Rg2ajb3SEFoi47c0I7TsGMycMDIAgRG2wzoKs3hnd7oByhyhAAQpQgAIUoAAFKBAIAqcViIT0GoDLJvfB8jwrpvYxY9HuY71O525egiMlB7B48VeITOyN62+6FinRvqmeFQiQ3EYKUIACFKAABShAAQpQ4NQFTqsGlfSGFRYaAos1RI3fEaIahGvD/mkpQnWVO2bMGIw5Zwj2LHkbLy5YpXWZy0QBClCAAhSgAAUoQAEKUKC9wGmViNTnb8I/n92mDRi49Ws9Ygar7nqPDhcSlz4Qw/qkI7RnD+zaehi3XjG+pe1I+zXydwpQgAIUoAAFKEABClAg6AVOKxCJ6DMRv7p+FD7OCTnaWD1HAXpUyYcHjvpSPPO3P8A2+ipcOvdqJISbGYgE/elFAApQgAIUoAAFKEABCnQscFpVsySL+ooSLPrwRTz273nYsGU7aux1aKj1qDE4euAXj/21EkF5AAAgAElEQVQJrn0rkV/rYhDSsTe/pQAFKEABClCAAhSgAAWUwGmViDhUz1iWxEG48+b4FjxDCFJTEhAXZ8YqpxMRSf3w40d+gKff/ALnDrgTsSGnlT0PCAUoQAEKUIACFKAABSgQJAKnESmYcMmlsxGX0gcT1Kdtcjsr0TOph/ZVRM/+mHt+DUqrGlQgEhEkjNxNClCAAhSgAAUoQAEKUOB0BE4jELFh1KhBHeatM0TiistnHJ2mQ+qgMarlCBMFKEABClCAAhSgAAUoQIGOBU4jEOk4A/lWp9PDYGgzXXXre6xj35MvxykUoAAFKEABClCAAhSgQHAKnHZj9eBk4l5TgAIUoAAFKEABClCAAr4UYCDiS03mRQEKUIACFKAABShAAQqckgADkVNi4kwUoAAFKEABClCAAhSggC8FGIj4UpN5UYACFKAABShAAQpQgAKnJMBA5JSYOBMFKEABClCAAhSgAAUo4EsBBiK+1GReFKAABShAAQpQgAIUoMApCTAQOSUmzkQBClCAAhSgAAUoQAEK+FKAgYgvNZkXBShAAQpQgAIUoAAFKHBKAgxETomJM1GAAhSgAAUoQAEKUIACvhRgIOJLTeZFAQpQgAIUoAAFKEABCpySAAORU2LiTBSgAAUoQAEKUIACFKCALwUYiPhSk3lRgAIUoAAFKEABClCAAqckwEDklJg4EwUoQAEKUIACFKAABSjgSwEGIr7UZF4UoAAFKEABClCAAhSgwCkJMBA5JSbORAEKUIACFKAABShAAQr4UoCBiC81mRcFKEABClCAAhSgAAUocEoCDEROiYkzUYACFKAABShAAQpQgAK+FDD6MjO/5uXxoCBnPdbtKkBkUjYmjRkCowqjPB43SvJ2Yenytahs9CCt3zBMHTcMZkNLjOV22bFr/Qqs2bobsEZhxNgJGJLdE3qdroPN9aCxuhjLvl6C/UeqkJCahUmTJiI+3NIyr9qGisN7sGjJSlQ0uJHebygmjh2OELNBm+5xO3Fg+zosX7cNDr0NA0eOwzmDM2HocF0drJ5fUYACFKAABShAAQpQIEgEAqZEpKn6MN59dwE2rl2BlRtz4PTIEfKgMn8rnnhiHgrqDOgVH4Jl81/Cq5+th1ub7MLmRe9i3lufwxyTjBBHKV5++kms2Vvc4eF11Jfh1aefwNIdR5CemYrcDYvw1HNvobLJpc1fV7QT//znU8it0SOlRzhWfPIGXvtkBexutTEqSNm//ks8+fy7sFtjEWNuwjvPPYnFm/M6XBe/pAAFKEABClCAAhSgQDALBESJiJQ0rFv8KdzJozHGsBeb61oOmcftwupvvoIxZTTuum0uwlXJRP8eVvzr3Y+RN2EEeumKsfjbjTjnopswd+oQwN0My/P/wOKvvsWw7KtgaxeG5W1fhZwKC+798Z3ITgjFhGGZ+NvfnsHanZNwwYhUrP76SzgThuC+u25CqJLr2zMMT765CPkTRyIzWofFC79G7/EX45YrJsOkcyLa8DQ++Xihyudu2DoqgAnmM4/7TgEKUIACFKAABSgQ1AIBUSJSU7gTizYWY/asqbC11ILSDprL0Yg9+wrQf9gwLQiRlDliNCIdVdifX4zK0jwU1YdgtKoeJVWx9AYLRo4YivLC/aiocbQ78A7s27UXcRkDkRwXpqbpEBaXhv5pEdi9NxduVw127T6MgSPOUUGIRBU6pPcejDhLLfbkV8JVk489JW4MHzYIJlHVGTFi5AjYy/Yiv7KlRKXdCvkrBShAAQpQgAIUoAAFglag65eIeOz44sP5SD93JvomhuNwm0PldteiplaPITERrd/qLNGItrlRXVuLRkclnLZwRFqPtvFQwUNITAw8TY1obm5Wy5iO5eZ2oLK6HhFJcTAfDc90BiOiIyORW1UNZ2OtqqLlQHZcbOsyxpAQRFjNqK6qgUPN02Q0IkrN700R0dEwwI6amiZ4okPgcrUEJPKvw9E+EArac5A7TgFNwCNVHJkocFTA7Xb75Top11+n0+mXvHnwKBCoAh4+kwTqofPbdst10u2H80Ku7W1Tlw9ECjZ9jQ3lkfjZnSNVqUZ7b7dqC6KDQd+mmEQ9+mvt1OWZRj3Y6NQvujaNxeV37+TjclNtPNzqYzAaVI5Hk1rO4M1Mmw4YVXDSmvR6rSG6R/0nsLKettsi65ItU4tqyWBo2U69LHf052OZ8ScKBLdA27/T4Jbg3ouAzk/XSbn2ej+UpgAFWgQ86kUqEwXaCsh1Uu+HZ9X29/qufeY1leG9BV8hLKI3ln62QPPJPViG6mY7Pv5sCWZNH4ZQqyrJqDnaaERmcNegpkEHq8UCc5iqYlVfj3q7HfFHSz/sNTVwqj84Y/s/OoMJ4aFWHK6shEMFDmYVjUgblJraephCbTBYbQg3GVCppgMJ2ra4m5pQq/JOUtMs4S7oHU41fy0Q11Iq0qh+tnvUtqhSk+OCIakmpm6yTBSgQBuBE140UCeYBeR08Nd1Uq7H/so7mI8Z9z1wBdxtXtgG7l5wy30p4K/rZPtApGs/DXsMGDV1NsYNzUZERIT2sZqN0JssCA8PhclkQ3pqPPbu2tPSc5U6AuV7dqAE6vuUnoiKT0WssQo7c0u0Uglp9J6zIweRccmqypVVO14OexOaVQChQg9kZKWgKG8PKuvs2jR7XQX25pciIzMNBlMMstJikLNzR2uPXSWHD6KszojM9DjoY9KQHuZAzt4DWsmJFMnk7NoFfWgqUhPaVAHTcmaiAAUoQAEKUIACFKBAcAt07RIRWzQmTJp6/BEq2ozy6hRMnjAaFoMH506YgLUvf44FX0ZjYC8zFn74BVKHTETvHqpExJOMscOz8NX8dxClvwim6gNYuC4X5139A4TLnrvq8f4LT6sW7pMx9/yRyBpyLpK+eQpvvv8JLhjbH9u//RQVljSMGZShZjZg7MTJWP7MB3h/YTwG97Lh608+Q8yAsegdH6aKr4CJk0bjzcULoJqyIFZXifmLN2DU9JsR1bbmWHCfb9x7ClCAAhSgAAUoQAEKaAJdOxDp4CDFJWehd0y8apshE3XoNXACbr7Cjq+WL0POBqBH5lhcfukFWtUq6MyYdMn1cJkWYMmnH6pfbRh30bWYMTJbawdSmbsN6/aW4eaLemtrColLx0233ICPPl+M99/dgbCYnrjp1kvQK6qlsXtiv3Nxx7WN+GzpCuzd4FYDHo5Qy85EiNZNFjB86mVocH6KVUs+g0tnQv+Jl2HOlKHaNCYKUIACFKAABShAAQpQ4JiAzqNSwIOoXXDYm+FQDfGtqoes9qOmy+jrzU2qlyy9ERaL6WhjdDe+fvNJHI4ZjxsuGH6sgbrCcDkdsNsdMFmsqnH68bXXhMvpsMPp8sCs2qEY2rWgl3XZVY9cHp0BFrNaVwf1LouKipCYmBjw7NwBCvhSoGHBfXAdWOrLLJlXAAuYhlwD67RHfb4HVVVV6j5ggc1m83nezJACgSrgVgM61z87OVA3n9vtB4GQ69+FIaG/z3Nu/wwccCUiHYqoh30JGk7WEkOn08Pa/qajBjcMUQMhXnbOkOOCEMnfYDTBpj4dJQksTGbLd67LohqvM1GAAhSgAAUoQAEKUIACJxfoHoHIyffv5FP0NowdP/bk0zmFAhSgAAUoQAEKUIACFPCbQNfuNctvu82MKUABClCAAhSgAAUoQIGzKcBA5Gzqc90UoAAFKEABClCAAhQIUgEGIkF64LnbFKAABShAAQpQgAIUOJsCDETOpj7XTQEKUIACFKAABShAgSAVYCASpAeeu00BClCAAhSgAAUoQIGzKcBA5Gzqc90UoAAFKEABClCAAhQIUgEGIkF64LnbFKAABShAAQpQgAIUOJsCDETOpj7XTQEKUIACFKAABShAgSAVYCASpAeeu00BClCAAhSgAAUoQIGzKcBA5Gzqc90UoAAFKEABClCAAhQIUgEGIkF64LnbFKAABShAAQpQgAIUOJsCDETOpj7XTQEKUIACFKAABShAgSAVYCASpAeeu00BClCAAhSgAAUoQIGzKcBA5Gzqc90UoAAFKEABClCAAhQIUgEGIkF64LnbFKAABShAAQpQgAIUOJsCDETOpj7XTQEKUIACFKAABShAgSAVYCASpAeeu00BClCAAhSgAAUoQIGzKcBA5Gzqc90UoAAFKEABClCAAhQIUgFjkO43d5sCFKAABSgQdAIejwe1tbXIz89HQ0MDwsLCkJWVBYvFolk0Njbi8OHDkPm8yWq1olevXtDr9XC73Thw4AB27dqFhIQEDBo0CCEhIdDpdCdYulwuHDp0COXl5XA6nYiKikJ6ejrMZvNx8zY1NWHfvn3Izs6GrMubZF2yLcXFxdpXPXv2RFJSUofrOmHl/IICFAgIAQYiAXGYuJEUoAAFKECBMxOQ4GLJkiX41a9+hby8PMTGxmoP+tdeey3++te/agGFTJffIyIiWh/4hw4dijfffFOb/tZbb+GRRx7Rli0rK8PUqVPxzDPPaAFN+/Tss8/iT3/6kzZNAp0jR47gsssuwz//+U8tL4fDgdWrV+Mf//gHFi1ahM2bN2tBkSQJkh577DG8/PLLCA0N1eaVYOfJJ5/E+eefz2CkPTZ/p0CACrBqVoAeOG42BShAAQpQ4HQEpIThyy+/xMyZM/HNN9/g22+/xauvvoq3335bCwgkHTx4UCt1kMDA+5GHf5vNhsrKSvziF7/ALbfcguXLl+O9997D0qVLteCko5SSkoJ3331Xm1c+ErC88847WLlypTb7Cy+8gOuuuw7V1dVaSUvbJEHL9u3b8fTTT2vbKZ8JEybgb3/7m1Zqw0QBCnQPAZaIdI/jyL2gAAUoQAEKfKeAVK362c9+hvDwcBgMBm3eESNGaFWl6urqtN/37t2Lvn37ok+fPifkJcGAVKO67777EBkZiXHjxmH27NlaQHLHHXecMP9FF1103HfDhw/Xql55q3ENGDAAn376qRbgXHLJJcfNK0HMa6+9ppWGyPxSmiPVwHbu3Amp8sVEAQp0DwEGIt3jOHIvKEABClCAAt8pIA/00k5DkjzYS/Dx4IMPat+dc845WqnEnj17tDYdf/nLX7TqVFOmTMGQIUO09iE5OTlaWxFpGyJJ8pNpixcv1qpOmUym49Yv65DApaCgAOvWrcNTTz2F6dOnawGMJCnhkCSlJe2TBEfetiTeKmX//ve/ceedd2rBCRMFKNA9BFg1q3scR+4FBShAAQpQ4JQEpERBqlSNGTNGa3gu1aUSExO1QGTw4MFaNawvvvhCq0p13nnn4Xe/+50WaFRUVGjtPYzGY+8wpWRElmtftcq7IVKtSwKPu+++WysN+fWvf31cg/T/a4MlWJJlLr/8ctxwww1a+xQJipgoQIHuIcC/5u5xHLkXFKAABShAgf9TQHqvknYXc+fO1UonpB3IwIEDteUkwJCSEGk/Io3WpY2GBCHz5s3TSjWkgbr0uCV5eJNUq5LA4GTBwQMPPKC1O5F2ISNHjsSMGTOwZcuW/3M7ZQZpJ3LFFVdoVb9ef/11/PGPf9SCJCYKUKD7CLBqVvc5lgGzJ3a7XbvBFRUVaTe+fv36QeoDSzG/3OCk+L+wsFD7OTo6GtJji/Sw4q1KIHWE5c2czJ+cnAypZ3yym6AXRd6qbd26Vctj9OjRrUX+0uhx1apV2L9/P/r3769N83ZjKct6G0zKtsgbQ6mj3L76QcDAc0MpQIGgFpDrnwQZEmzI58Ybb2xtKyIwMl0+3uupXJ+lNEN61Kqvr9eukdLLlly75Zot88p1Vbrd7ei6KNdobxUrqcIlPWitWLECH374IYYNG/adx6K5uVlrzyLXbmlgn5aW9p3zcyIFKBCYAoERiKiLncvlhEt1qiEXRr2+fX/lHjQ3NqDJ4VGN8EKhVxe/45LHjbraGsAUgjDb8f2Xd3TY3I5mVNc1IiwyAqb2RcBqW+zNDWhoVuuKCIWh3brkwtxYXwuXzoSwkGON8jpaTzB+Jw/2999/v3YzyszM1Ooiy83qxRdfxLnnnqtVBZC3XlIPWaoASFAiN8Lnn39eexN26623ar27yLISREgXlFJU/13F9XJMpBtJyVeCIGmMKb3CyPI//vGP8cEHH2hvBLdt26bVP5Y3gHJTXbNmjbY+uSnHxcVpdaeltxiZ3r4f/GA8ltxnClAgsATkhcorr7yC1NRU9O7dG5s2bWrdAXnQl2uldK174YUXalW05Pos107v+B3y4keuw0888QQeffRRrWTjs88+wx/+8ActHwkapLvdUaNGaY3gpSRFqnbJyya5jspLn9zcXC0/qcpVWloKCThKSkq03+X+INdeeQEl833++ef4+c9/rs0nH0nyokjy6yjwCayjwa2lAAVEoMsHIsUHtmD+xwtRUKK691MXSZNN9dQxfTamjRkIowpI3M4mrP5qPr74djOanB5EJ/fBLTffiKTIloCjsfoI5r/9FrbsLwT0FgwYMw1XXjQZIcb2wYxwuJG3bQXe+vBLlNU2wxYZj9lX3YAxfZNazhaPA+vVuhYs2aCtK7ZXH8y9fi7S41oazjkaq/D5e29g1fZcuHUGpA0YhxuvnY1wE2vAef/cZNAqKd6Xxo3pamCrmpoa7eFfbnbSWFJufl9//bUWiMjDvjRwvPLKK7W3eNIDy2233ab1OR8fH6+VmMhy0p3jTTfdpJVYdJRknRLo3HvvvdoN1JukjrQEIS+99JLWIPOTTz7BPffcg1mzZmnBj9xcJUCR4EhKZOSm+IMf/ABXX331//k2r6Pt4HcUoAAFzqaAPPTL9XDDhg3adc6bJEj417/+pVWDkrFBZKwPueZJQ3MJCuS6KddtSdJgXK6l0uWvVNOS6/I111yjTVu/fj3+53/+R5smL5ikly0JWKQdifxeVVWlrVfGKZFtkWv/2rVrtRdEEsTIeuVlo7w0kpdFcn/4zW9+c1ypjbyEkhISb4P51p3gDxSgQEAKdPlA5NDB/YhKG4IJF/ZHbJge29d8g4/ffB6RCY9ibGY08rZ8g3e+3IgZV9yA4alWfPj6S3j2lfn4+f1Xw+xpxuIP3sAmFYPcdPdDMFXuxSuvf4hPoxNw5aSBaB+K1JXswyuvvo/YEbNw89Sh2LDwbbz18ktI+PFDyIi14fDWJXj145WYes2tOCfNhk/eeg0vvTEfP/nBtQhRnYWsW/gOluwoxzU334MEXSlee+kNvPlZHO685NwT1hWQZ4sPNnrs2LGQj/dtlrzdkhuKlE7I27iJEye2rkV+l+J/mUfewklgIm/qvEmmy5s9yetkb8ekgeXjjz+OyZMna2/mvIGIvH2TN3nSnaRMk3VccMEFWhUDCZKkdEYG1JKqWnIjliRBkswnN1AmClCAAoEmIL1NLVy4sMPubyXwkOvbf//7X/z5z3/W2nVI43J5YSSl0xJISJJuduX6KCXLUlIsgYFcf6UBvIwZcvPNN2P8+PFaQCEveaQNiZRuyDVXrufywsjb2F265+2oK1653ktwJFXA2if5XrofZqIABbqHQJcPREZOuxwj21gnnD8DG9ZtQXFpNTxpoVj57QqkjzofM8cPgfSKftO1l+CXj7+NnMI5yDKqLgN3HMLMW3+CQZk9VQXYRFxUsAcfr1yBGeMGIMrUNhTxYM/GVagOz8Z9F09DTIgR519xPXarOq1rth1AxuS+WLlsBRJHzMAlal2SLr/yYvz1X28ip3g2hvVwY9nybRh3yT0YMyBDTc3AlRfm4qlPlqJi9rmI7fLS388J3TZgkOBDSjSkJOK5555rvTnJjUuqZMnbNWmgKP3US4mFJLmZHTp0CLt379YaU8pAWn//+99b39a13QsJVJYtW6Y1klywYIH2JtCbpDRFbrTSX763mpXcdCUQ8c4nb/KkBERuzlKVQEYWlm2RNitMFKAABQJNQIIJGTH9u5IECRJgyKejJHn06NFD+7RNct2WEozf//73rddyuXZK4HGy0ur/a1tYBbajI8DvKNC9BALi8dijHj7t9mY01Ndg+8rFqLb0xHBVXcrpbMChw9UYMC5dC0Ikhadmo4fejoLCIsSFHkY1YtA7qaXfdKjqUhm9s1C/aqUaybUZUXHWNkfTjvy8I0hKGYpwWwuLyRqOjNR47M8rgMsRj7zCGvSZfWyQp5iEXoiL8CCvoBxDTHU4bLdgZlpKa56ZWdlA8wocKnUgNun4/tW712l0ensjAYK07XjooYewceNGrU6yPOB7k1SX+t///V/tpib1lqXLRu8NSYrwJUCQNiZSf1mK8r190bffCqk2IA0ypdtIeavXNhCRt3BS4tH2TZ/cYOWNoYzyK0kaZkopiLzVk7eFEjhJVYKTlb60Xz9/pwAFKBAsAhK4yCjtTBSgAAVORyAgApHczV/jnYVrUFFeClNsJq5XDYhToq1wNJSiocmIiNA23fnpwxEeohqvq+ozdnctPFYbrKrY2JtMYWpEWfU23Kkavx+XXA7UNTTBFheB1uYjegPCQ0PgqG+CSz2E1qrlwiOOFQnr1NueMLNJq0fbpB56PWqk2pCQYwMtWULDYIbalia7qnZkbO3yUN7GywN1sCZp93H77bdrwcFHH32kPfBLYOAtopf6w1JXWRouyvTrrrtOKzGRalsSLEj1Km+jcxkg6+KLL9bma/sGT4IdKfaX3rDkbZxUt5KgR+xl8CzpP1+K96U+tJwrUtwv0yS4kZIRCVKkNETmkQaW3n71JXiSqmTSnoXJtwIet8e3GTK3gBZwaS+gfH+dlL9z+Xv3jiwe0EjceAr4SMDjh781H20aszlLAlK13eWH86L9mEMBEYjEpw3EnIuTUFlSgM2bN2PB++8jQjVIT7AaYTR44FQ3rGPJCcfRGEMvAYiaJg+l3uRRN6G2c7dOUDcmkwok3CpAkbm1SltqOafT1fKbmmbS6eHSfj+aVN5O9fCkU//JW3LV8aFaXqa3NE73qLy0TVGZyQO09026FH0Ha5GzPPhLT1XSXkMaR3ZU11dspARCRvuVnl2kn3up1yx93oujFPdLksaTUmIi3ffu2rUL06ZN8x4Z7ZhLLytS9UqCGEkSZEjQIT25SO8vEgBJUCIPJlIyIsGH9IwlgY+UfkjVsP/85z+tbUSkephUJZDetaQONJNvBZwn9Ibn2/yZW2AJGNQ12R/XSbn+yrXYH3kHljC3lgLHBNwOM3wf9lM4kAXkOmlQz2O+Tt7uwb35BkR3TmGxSRigei86b8pM3PWDuxDXeABfqPYYen0EIiPcKCmtOubUWIayBj2i1AOjLTIapvpqlDc2tU6vLVNdAKpSEpt6631c0pnVA2coqkpL0Hw0UpFAokz18hGmGiubbOGItpm0bga9yaF6+ahSeUdFR8Kg5glR0WO5qifrTVXqwdcNC6IiOQCT10Taa0jQINWp5EFfesOSj3QjKUGCVKWSdh0SFEg0Lj1oybghGRkZWoNHqbIly0vwIFWvpCtKCU6khxUJPqRal7QZkekyGu/HH3/c+pHeXKTqlXQFLCUic+bM0QIPafshgYf0rCXBizRal15eZJ0vvPCC9p1sy/z587X2KRLcMFGAAhSgAAUoQAEKnJlAFy8RceJIYQUSEuNaxwaRt2TSja8UFxlMFvTvk4FlG9ej+rwBiDDrsWfdGtRbY9E7M1G1DtGjZ2QT1m7ciz4zR0DnalIPv1vQI2UwYiNk1z2oKiuGwxCK+Ohw9B7QH5+9sRr5JTPRp0cYaksOYGdeHaZOSYdOBT0DB6Tgk3WrUTd9KEJVo5QDuzej3BGDfunRMITFoV8vA9Zv2IJz+kxX1bvcWL9uPayJ/ZAWFRDx3pmdSae4tAQTEmRIN7neXlhkUal2JaPnyoO+dAfp7VVFqmtJ15DSPa+0GZGBsGRQLJkugYdE7NKdr/QrL9Oltxcpueio6oUsI9Ux5F+ZLsHIL3/5S23QLPnI9sjAXdIuRKZL7zEy4JeUysjvMv2nP/0pS0NO8VhzNgpQIHAEvDUH2l6Xz3TrJU95KSQveqT0u23e8p1Ua5aSb0kyTV76SBVbX27Dme4Dl6cABfwroFMXii5cMVu9pf7LH7CvOQJ9s9NgVdWw8vftQmG9BXc98CD6JYWjrmgP/vP/noErKgMZCSZs2rgDoy6+A9dOk56tPNi14iM89+5SZA0ZDmNtAXYdtuPm+x/EsNRouJuK8b+/+RPiJ9yAO+acA1dTNd5+/glsLHRj+MBM7Nu2AZa0c3H/7VciTPWw1VSRi389/h80RqSjT6JNDea0E0NmXIe5M0erwMODwzu+xX+e+wA9eg9BFKqwZc8RXPmDRzCh3/G9i0iXhCfrRcS/hzswcpeSEWnMLvUIZTyRttW35HSVxuTega+knYk3aJHqWxKkvK+q7sk4I6eaZJR2yU+6Am5fVczbS5cET9L1pJSoMPlHoGHBfXAdWOqfzJlrwAmYhlwD67RHfb7dMpaFt0twn2ceoBnKdVWun1JFVbrmld9lrBHpmtebpPRYpssI6RIoyHVa2uF5awlIqbFcJ6U0WV4KSVs7qf4mJdjyvZQ4y/VVXkZJj4VyPZW2gFKqLe33Lr/8ckyaNAkPP/yw9uKJ6fsVcNeXof7Zyd/vSrm2Li0Qcv27MCT09/k2tn8G7uKBiBqptaIQO3btV931lsDh1iMytgcGDBqCpFjVr7nGox5MS/LVwHdbUGVX405kDsSoIVnHRjz3uJC3ews27TyoxjMMx4Dho5DdM0ZbMnf9Z6p73d34yU8fQHxIS79bjoYqbFSNqQ+p7oGjeqSrcSSGI8Lq7ZMLqC8/hJVrN6Gm0YVeWQMwYlBvmA0tWwI1gvuRg7uwYdseOHUW9B48AgPSe5zwdqf9QfD5UQ7CDCVgkDYn0rXu1KlTTzAPQpKA22UGIgF3yPy6wQxE/Mp7QubSq6AEBnIdlTZw0vZuxowZrd30yuCE8gJNesbylljISxwJKqQr39WrV2tt6radBSsAACAASURBVGRk9bvuugu33HKLVgU3Pz9fuy5Luz8pkZZSELlGX3/99dq4I7eqzmdkTCfpCEQCEKm+ezovkk7YEX7RKQEGIp1i69YLfV+BSBevmgWExfTEmPPUGCAnTTo1uGEaps9O63gOGeG83wjtc1zy2LF+427MuXpuaxAi000hURgzaQbGdJwbQmOTMWNWcsdTVWP2JBUIXaQ+TN+vgFSdkjdpTBSgAAUocPoCUvohPRZKqYeUMkvgIIPP9unT0mW9vECTwV3bVpuSeR955BEMGjRIGzW9oKAAzzzzjFbqIeNDrVmzBp9//rnW86CUhkhV28LCQq0qrswryyxduhQjRozQ5pV/pUMTKWWRwEfa60lbPSYKUKD7CnT5QMR/9HpMuPh6xCacehUe/20Lc6YABShAAQqcPQF5mXPfffdpXZVLkupZEix4e7iRXgclEGmbvEHJvffeq42CLp/f/e532L59u1a6IW33pOt0CWokyfwSeEg7EGkTeODAAW0e6XjknXfe0X6W0hEpKZEASAaYlZ4R2/eyc9xG8BcKUCCgBYI3ENEZ0SMxIaAPHjeeAhSgAAUocCYCEnBs2bIFb731llYqcemll+KHP/yhFjRIFamePVtqJHQ0CrosK21DpDdDb7frv/jFL7QSFWmrJ0naingDFgkopMqW9FQoVb+kwbq0J5FG6hJwyPhMMsbUp59+qg0ee7LBas9kf7ksBSjQtQTYnVPXOh7cGgpQgAIUoMD3JiBBglStkh4BpfqUlIjIdxJkVKru6CVIkOpSUnXrq6++0tp8tE1XX301Zs6cqbUnueGGGzBu3Dit/YdUq5LgRdp+SDAiSXrQevLJJ7U8HnjgAa0zEuluXapiyQCy0t5E2pBI43YZOJaJAhTo/gIMRLr/MQ6IPZSbnnx8naROstzc5AbYNknjdmmcWV9fr/XOJeuWm6FUP/DHdvh6v5gfBShAAV8JSAmGBA3eLs4lX/lZGqevXbtWK/XYv38/Zs+e3Xp9lOumND4fPXq01tZDrp3tP1K9SoIaGSdK8pDeCaXhujRQl6pYUmXLrrrilxIY6TFLqoJJ+xJZt4wNxUQBCnR/geCtmtX9j21A7eHhw4e1onx5oxYTE6Pd/OTNnHcUdQkkpPGijOvh7UJ3xYoV2mCIcqOTm6LkIVUJ5IYndY6lSoG8WZNeWB577DGt4aUEGdJd5Pnnn4/f/va3WqNJWY+Msi51maVR5RtvvMFuegPq7OHGUoAC/hCQ6lNZWVlaT1pyXZXrc3JyS2ctEjTItdT7kkf+lapXUtohAYy3rYlci5966imta3UpLXn99de1qldSPUt66XrwwQe1BunnnXeeds2Wxu7Dhw8/oSt1f+wf86QABc6+AAORs38MuAVKQN5+SQmF9MAiI59/8cUXWL58OS6++GLNR8YOkQEGZbBDbyAib+LkjZq8PZNgROoU/+pXv9LGIJGeWn7yk59oed59992tb9dkPin6l8aVko8MiCg3RBmFXbqfvPLKKxmE8IykAAWCTkBKhyVokDYbUkoh11x5WSNd7Up1qq+//lp7ESTXS2m7IeMu/fznP9euvzIGybJly7SgQoKL6667TivZkJc/3gFivaCyzEcffaQGF16vlYJI+xSpviUvneR3aUMiA9d625UE3YHgDlMgyAQYiATZAe+quytF/NJIUYIBuQFJkCBVBeRtnCQp8pc3bG17bZHGkVJyIr2vyCjp0mOL9Lgi88pNUPqz/+CDD7TgRm6gkqTURIIeCUCkD3zpYlIaSUq1LAlapDcXyXPv3r3amz5Zjj22dNWzhttFAQqcqYCUEksj9T/84Q/a+CFyHZTBByUokKBC2n/I9Xnu3LnaqiTwkNIRuYbKR5b95S9/qbXx8CZp3yGl0/IySEo5pDRE2oN4k5R+yICI8uJI8n7hhRe0NirSYF5Kp+W6PXLkSK10nIkCFOjeAmwj0r2Pb0DtnVQDkDdpHaWTvR2Tm5jcsOQmlq5GWZdgRm6ekpf03iJ1lNv29iJv/SRIkRvlkiVLtMBEbpBSgiI3ZOnjXm7CUvoigYjcLJkoQAEKdGcBeakjjc4loJBqrNKtrlR9leuqlH5IMCLX2T/+8Y949NFHsWPHDq067Pz587VBDOfNm6eVoPzlL3/RGrdLsCJjgkjVLRmRXapjeZNMl5dE8tLoiSee0K69UhIjJdrXXHONVlpSXFysVZuV5aWdHxMFKNB9BVgi0n2PbcDsmVQFePzxx7WbmzQsl37mJcmNTt68SZJ/O2rQLjcpadshNzIZ3ffZZ5/VAgi5EUpx/+7du1v7sJd8evfureW7bt06TJkyBbGxsdrbN+m/XrqOlN5eZHtkeWlQydIQjZ+JAhTopgLykkfaZMhHfo6MjMSf//xnrbqqlC7LNVlKm+X6K9OlqpX0siUBhfSy9dxzz2m9Ysk1VKpwSfVWuc5KkmuytP3zBhPSrkQCj1mzZuH+++/Xrq8yZsioUaO0QEhKpCVJACLVvSQY4TW4m5543C0KHBVgIMJT4awLSInF73//e61esDSK9A5+JRsm7TnkZic3x5SUFC3Q+NGPftRaf1hKPKROsbdhZNudka4nZXkJMCTJjdTbGF3WJ9UC7rjjDq2Ostwo5cYqN1xpYyJdVfIGeNZPDW4ABSjwPQi0L3GWkma5LsvnZCObS6nytGnTWrdOqtNKCUrbJPm27f1KruF33XXXcfPIaO7tk4zYLiXbTBSgQPcXYCDS/Y9xwO6h1C2WIvqcnBythELewkmvK97udaXkQ97iSfDQ/kYqOy0BjfTwIsGH1DuWm6AEJ/fcc4+Wp3QpWVdXp73Nu+qqq7RGmFLfWbqpnDNnTsC6ccMpQAEKUIACFKBAIAgwEAmEoxSk2yilHNJv/UsvvaS155Bienk7JyUVEoRIPWNp4yFBiJR8SEAhXUfKNCnRkCTVsHbu3KlVJ/jZz36GqKgorW6yVA+QXrckX6nn7K0DLQ02pZqXtDFhogAFKEABClCAAhTwnwADEf/ZMufTEJCqUYcOHdIaPEoDcRkgS9puyPdSlC/d7d52221aQ3NpTN62DYc0MJfqWtKIUnrBkkBCupaUHl2kLnLbnlektxapziXzSePLDRs2aCUkUnIi1QGkNGTy5Mkc1fc0jh1npQAFgIYmBzbtLSIFBVoFRvVNgsXMxyyeEhT4LgH+hXyXDqd9LwLSda508yilFw8//LAWeEjjRQkQ7rvvvtY2IxKAyPgi0se99Dkv9ZglcJFuI6UL3rZ1kaWqlfTmIkGF9AQjDSG9bT6kC2BpYCmBi3TTK21EpLRl0aJFWpeTUj1LGsxLY/aOqnx9LyhcCQUoEFACZdUN+OubKwJqm7mx/hWY99M5SGAg4l9k5h7wAgxEAv4QBv4OSEnE9OnTtcEKpeqUlE785je/0fqzlxF5pVGklJDIKOnSPkT+la4epRqWdNErXfZKQ0n5WaphXXDBBVrwIg0nJeiQgERKRqThpZS2SFWsBQsWaNW+Lr/8cnz11VdaMHPJJZdoI/5KaYmMICztUaRbyrZjlwS+NveAAhSgAAUoQAEKdA0BBiJd4zgE9VZI0OAdcFAgZCRf+UjQIN09SsAhpSCSpActGa1XSjfkexkISwIZSTIeiHQfKd3uSkmGlJhIr1jS/kOCEAliJACRaluvvfaaNl0CF+nnXgbSys7O1vKRXlwGDhyoBTcSGDFRgAIUoAAFKEABCvhegIGI702Zo48EpPqVBAfeAKF9tlJ1qm2SBuYSiLRN0pZEBjqUJMGJDJjVfpmOGqYPGTLkuPn4CwUoQAEKUIACFKCAbwU4srpvPZkbBShAAQpQgAIUoAAFKHAKAgxETgGJs1CAAhSgAAUoQAEKUIACvhVg1Szfep7V3FbvOITKuqazug1cedcRyOoZjT4psV1ng7glFKAABShAAQpQoI0AA5FudDp8+G0OcvLLutEecVfOROCqKQMYiJwJIJelAAUoQAEKUMCvAqya5VdeZk4BClCAAhSgAAUoQAEKdCTAQKQjFX5HAQpQgAIUoAAFKEABCvhVgIGIX3mZOQUoQAEKUIACFKAABSjQkQADkY5U+B0FKEABClCAAhSgAAUo4FcBBiJ+5WXmFKAABShAAQpQgAIUoEBHAgxEOlLhdxSgAAUoQAEKUIACFKCAXwUYiPiVl5lTgAIUoAAFKEABClCAAh0JBMQ4Ik57I0pLSlHfZIfBZEF8j0SEWk3QaXvkgb2xFvl5+ahp8iCxVwqS4iKh07VMhceDmsoS5OUfAiyRSE1NRmSotSML7Tu3sxlFh/JRWFqLmKSeSE7qAbPhaF5quqOpTq0rF1UNHiT1SkaP+CgY2qyrvqZCrSsfDp0NySmpiImwHduWk66VEyhAAQpQgAIUoAAFKBBcAl0+EKkt2oPXXn8P+4uqERkZjrqqSkSkDcFdt16H+DATmmuK8cYLz2FnUROiQw0oq3Hiilvvx3kDktSR9KBwz1o8//J7sFujoG+qhi46C7ffcRNSom0nHGmPsxFLP3oDn6zIQVx8NMpLyjFs2hW4etY4mFXZkauxDG899yw2F9QjNsKEihoXZl9/GyYNyYBe50FVYQ6em/cKyl1W2NCEen0s7rjvB+idEHbCuvgFBShAAQpQgAIUoAAFglmgywciubu2w5o6Ag9ePwpxUaGoKz2AeU8+j2Wbx+Hy87KwdfkX2FFuwZ0/vBfpMWYs+/BFfPDW2+j/64cQ5anGFx99AlvWeNw/9wIYGkvw8n+fxEdfrsbd10xB+50vObAZny/Pwazr78bEwSnI3fw1nnnzI/Tr3wejMuOwXa1r/SE37v3RT5AeZcSKT1/Hp+8vwMDsexFv0+Obj99DfVR/PHjrlYjQ1eGd557Em+9/hV/dcxkMwXyWcd8pQAEKUIACFKAABSjQTqDLtxHpc+4s3HTFBUhJjIPNakNcYk9EhZjQ2NgEj6pGtWnzNvQfMwl9esXAYgvDlJnT4Sk/iN15FaguycPew82YMmOCKi2xIiI2BdPGD0NuzhZUNLjbUbixZ+smWHoNwpghWTCbLcgeOh59EzzYsvOgmrcBG9fvQN8xU9A3KUpb19jxkxHSkIucQzVwNR3Bxp1lGDd5MhIjQxASkYAZU85F6e6NKGzgeUcBClCAAhSgAAUoQAEKtBVoXyjQ5XQsKvjQkmrr4bTXY4kqddhTbcY9QzLhctahtMyBUckJR9uLAMboZCRanSgqLUNyaDHqLdHoFRHSkodqyxGv2nXYa3ejrq4RCSGhx/bX04zi4koV6PSFzdjSJkSvgpFeCXHYVlSk2oYko6iqCYOSU1qXsUXFIEZVDztypAzu0DpU6M1ISkhonZ7Us5dqdFKNkrJG1V7kWLsUj9oX+TBRwK8C6hQLqPOMfxJ+PR0CMXN/nb+8Bgfi2RCA2xxQ12BegAPwDPP7JvvjGtw+zy4fiIiybHTFoRy8/cZbyK234Ya77kGfhFDVSL0MTXYDbCpgaE2qkbhNPfO73W44Ghqgs5hhNByrGGUIscHYUSDgcqGhqRkWNb21bbpOD5vNAk+tCx41rUHNY1PTvUlnMqmgxQiX24XGerUuvQFWy7Ft0asgSsIPl6ul9MXpdGqLatvmcBzbZh/95PG0L+XxUcbMJiAF/HWe+Quj/cXJX+thvoEh4K/zV67Der3e59dgp9P31/TAOFLcypMJyDnhj3v9ydZ3Jt97HC3PJ2eSB5ftXgIOdU7o/fKsenzQGwCBiAe5W5bg+Tc+Rny/cXjorlnoGd1SkqHXhyLEIgFE07Gj76mHiglgMOhhClPzqQDCoQIIwKTN46yrVz1a6VTj8na10lRAEaoimAq1sMytwagH+/qGRuhUIKOzWhFqNKC+vl5NiNfy8tjtqFcHKUpNt6l1edR6GrVtaQlWXA31UB15adsivXiZVOAiyaDmN5vN2s++TLr2++TLzJlXwAno1Xnnj/PMXxBO/bHe6fy1DuYbOAISLPjj/DWqa71ci32dt9HYcn0PHGFuqb8FjH44z/y1zW6HCXZ/Zc58A1LAZDLC4IdnVbm2t01dvo1IY+levPTaAvSfcg3uvuny1iBEdsJgCEN8vAX5+UXwlgXYywpQ7DAiMT4B4dGqm197BfIr61r2WZWEFBUUwBIejbCw9l34qmpVSTEoPZKPBntLbi57Ew4XlyGhZxJM1kgkxdiQl5fX6ldfWY6KWid6JsVBH5OEODTj0JGi1umHD6sugw1RqovfE3voCsizkhtNAQpQgAIUoAAFKEABHwl0+UBk+5pvUa6Lw+DseBTm5+LAgQPap6i8BjqjGSOHD8HudUuwM79cteOowZeffQVjQh/0S4tEREIa+qaG4JsvvlElHXbUlBzAohVbkD14BGJUL1eq0hQ2LluIFVv2q5/16DNkBJxHdmL5xt1wqCLVnHXfYE+FCcMHZqnpNowcNRj71i7B9gJZVy1WLF2M5sgs9E+OhMGSgJGDE7Hqm8UorKxHQ9URLPx6JXoOOgdJjEN8dLoyGwpQgAIUoAAFKECB7iLQ5atmHSkshKO2EPP+88/jzAdNnYu7LjsPg8ZfhDF58/DcPx+DxaSDXRem2pDchyj1MxCOi668Gs8/9woe+/166FzNiEwdhuumj9HagdjLD+C9Dz7B2Ose1vKOzRiOK87fh7fffhbL5lvQ1OTAuDk3YHBKlDa9v1rXlP3P4NnH/6TapRjgVFXDrrj5TsTa1OCKahyRqZdei/xnnsff//g7GHVOGKMycPfl09h1r6bHRAEKUIACFKAABShAgWMCXT4QufDWn+GCm0/szUFvaNl0U2gUrrz9R5haUowauwc9evRQ7Ua8dXV1iE0ZiB/96rc4UlgCvTVMVZOKgUm19ZDBDnduXIPQvpMxa1S6JqLTmzD6/LmqO+AZKK2sRWRsIqLVyOj6oyOnG8zhuOS2hzChtBi1TS7EJSQiTAtCtKURFpuOH/zk1ygpLoZTZ0FCjzhYtHUxUYACFKAABShAAQpQgAJtBbp8IGI0qV6vvvOYqYbnBhPikpJVG40OkjQSt4QiNSPj+InuRuzJb8L111wBU5tGsjrViCY8Ol77dJQkAIpL7HXSdRnNVvRMSetoUX5HAQpQgAIUoAAFKEABChwV+O5n/O7MpA/B1bff0Z33kPtGAQpQgAIUoAAFKECBLivQ5Rurd1k5bhgFKEABClCAAhSgAAUo0GkBBiKdpuOCFKAABShAAQpQgAIUoEBnBRiIdFaOy1GAAhSgAAUoQAEKUIACnRZgINJpOi5IAQpQgAIUoAAFKEABCnRWgIFIZ+W4HAUoQAEKUIACFKAABSjQaQEGIp2m44IUoAAFKEABClCAAhSgQGcFGIh0Vo7LUYACFKAABShAAQpQgAKdFmAg0mk6LkgBClCAAhSgAAUoQAEKdFaAgUhn5bgcBShAAQpQgAIUoAAFKNBpAQYinabjghSgAAUoQAEKUIACFKBAZwUYiHRWjstRgAIUoAAFKEABClCAAp0WYCDSaTouSAEKUIACFKAABShAAQp0VoCBSGfluBwFKEABClCAAhSgAAUo0GkBBiKdpuOCFKAABShAAQpQgAIUoEBnBRiIdFaOy1GAAhSgAAUoQAEKUIACnRZgINJpOi5IAQpQgAIUoAAFKEABCnRWgIFIZ+W4HAUoQAEKUIACFKAABSjQaQEGIp2m44IUoAAFKEABClCAAhSgQGcFGIh0Vo7LUYACFKAABShAAQpQgAKdFmAg0mk6LkgBClCAAhSgAAUoQAEKdFaAgUhn5bgcBShAAQpQgAIUoAAFKNBpAQYinabjghSgAAUoQAEKUIACFKBAZwUYiHRWjstRgAIUoAAFKEABClCAAp0WYCDSaTouSAEKUIACFKAABShAAQp0VoCBSGfluBwFKEABClCAAhSgAAUo0GkBBiKdpuOCFKAABShAAQpQgAIUoEBnBQIqEHG7XXA6XR3sqweNddUoLa+Cy+M5cbrHjaryElTVNZ44rYNvXPYGFBeXotnlPnGqyr+pvholZWpd7hPX5VHrqq0qR0V1PTwdbcuJOfIbClCAAhSgAAUoQAEKBJ2AMRD22OVoxt4tq/DxpwuRMOZq3DxzeOtmu5rr8NWHr2Lhql2QsMEak4q77rkXWQkh6jcPaksO4rUXX0ZOYZW2TObwqbj12jmIsJwYg3k8LuSs+gKvvP8VGlwe6I1hmH3dbZg2PAs6ncrN1YRvPngFH327HR71RUhMCm6843b07xmtpnvQXFuCt198Huv3FUOn1p2QNRo/uOtaxNoCgjkQTgVuIwUoQAEKUIACFKBANxE48Wm8q+1YbSGe+sdjeO6dhThSUQN321IIVeKwZ91CfLG+EFfc/jD+8NtfYFB0I55/8W3Uq4ITj6sRX7z3Jgp1PfHwr/8HP7v/ZtTsWoL5X2/Ugpb2qfrwTrz+/iIMnDYXf/zTH3HFxGx88uYr2F1cp816QK3rw+X7cdkdD+OPv/sFhiY48eqr76Om2alKP9z49uM3sb3Cint+8ms8+tN7Ya3Yglc+XKpCEiYKUIACFKAABShAAQpQoK1A1w9EHI1IHDwFP33kR+iTFHbc0XO77Fi7ej16nzMd5w5JR0RMEq64YjbqC7Yi51CdKg3Jw9Z9FTj/kkuRFh+JntnDMGviEOzcuA5Vze3DAw/2bl4LZ2w/XDR1NMJDwzF2xqXIDKnD+u371XrVulatR9ro6Zik1hUenYiZs2cBxTuRU1QLt70cq9fvx3kXXIT+KfGIS+6HS84/Dwc2rEKpnScdBShAAQpQgAIUoAAFKNBWoOsHIjFZuOrCyUiItJ5w5FzOOhwpqkN6ZjIMR6eGJGWgh9GBwqJi1JQXosYQjcyEiJapOj1SMtPRWF2Kmtqmdvk149ChEiT0SkeopSU3oyUUab3icaSgEE57JQqK65GVmdW6XGRcIuLC9Sg4VAZ3xWEUuyxIT+7VOj0tPQNwlKKwtPmEbecXFKAABShAAQpQgAIUCGaBgG684HbXoaHJiLAQ27FjqA9Tv3tgdzhgr1NVqqw2mI3HdtMUFgajywWX+hyXnE7UNjTBlhAOo2oPoiW9HmGhNjjrmuFubESdy4mw8GOlMjqLBaEmE+x2Oxpr6+AxGBDSZltMoaGwqIpZdrtU3TKrhvZOLVv5V5bxdZLqYUwU8Aq41Tnuj/PMX8KeDjp/8Ne6mG/XF3C53X45f+X6q1fXdoO6XvsyOdQ9h4kCbQUcdvUc4od7vT+UPQGynf7Yd+bZsYBc01x+OC/c6treNgV0IKLTWWE2ueE4+oDfsmPNaJZnfBVMGFWgoJ76VbuSYzvtam5GSzjQDl7dlKwqqKhW6DK3dotSbVCa1YVEy0xNs6ibl1xYWpPKu1k97OnUfxarRWu/4nRI7mZtFvnDtksNMLW4TjVuN6k8JBlVYGQ2t8yjfeGjpFMlPkwU8Aro1Tntj/PMX8JOvfcNgL/WwHwDScCgrrf+OH/l+ivXYl/n7b2+B5Ixt9W/Aiaz788zf22x22FWFdCZKHBMQK5pBj88q8qLoLYpoJ9cDYZwREdBVcMqb20Q7qkrRkmjAXHRMQiJjoOlvhIl9Ue77VWBRbWqsmUICTuu5EID0ZkRFxeOiuJCFVy0tB9xO+0oKa9AVHwcTLYIxIWaUVhY2OrXXFuDSlWKEhcfA0NMHCK0+ctbp5eWlqjetWyIjZEevJgoQAEKUIACFKAABShAAa9Alw9EXE4HmlUphnykxKH1d1UyoTdZMGRgP+xctxJF1U1wuxxYv+xbOMKT0DcjHtEJ6UhL8GD5ii1ocqhqKg2VWL5mM3plDUJsmJR5eHBofw72HypVPxvQd9BgVOdtx87cEq0UpeTgNuw8bMfgAZmqRCMcQ4dmY8fa5ShW7UtkXds3rUa16pFrQFoUDLYUDM4KweqVq1GnetFy2uuxYsVqRKQPQWoE3/TyT44CFKAABShAAQpQgAJtBbp81ayDmxbjvUWbVC0pF0pUw3RdzSf4x46vYes1GA/cOBsjp1yITbufxZP//jeSoozYn3sE06++G4k2efiPxazZ5+P51z/Cfw5vg6GhFCXNEbjtuvEwq8muusN48b9PIeOC25GVHI+kvudg8tCteGveE1ibmojDufuROmoGRmYnamYjplyEjTuexL8e/yeSYyzIzS/CpItvQmK4VRtHZMbFl+O/897Cv/6dhzDUoaDcgevumYWWClk88ShAAQpQgAIUoAAFKEABr0CXD0QSs4bh0vD0E46YwRYpTS8QEpuKO+57EDt37lbtO4Bpc7LQJz3p6Pw6ZA6bggfjUpGzrwA6Sziy+/ZDUmy4Nv3A1vVoih2IORMHa7/rzWG4cO6d6J2zC0fKazB2wgz065sN29HW6+aInrjthz/C9h05qG1yYepF2eid3hMGrcBDh4TMEXjgoXjs2nsQDp0Fl2X3Q2oPVXeMiQIUoAAFKEABClCAAhQ4TqDLByJhMYnopz7flUKiEjBqXELHs6gG3AkpvbXPccndhPWbD+LyuTchss0o69Jlb/+ho9C/49xgDY/DqLHjO56q1hWdmIZx6sNEAQpQgAIUoAAFKEABCpxcoMsHIiff9DOcohqnX3zTXbCFsiH5GUpycQpQgAIUoAAFKEABCpy2QBAHInqEhoWeNhgXoAAFKEABClCAAhSgAAXOXKDL95p15rvIHChAAQpQgAIUoAAFKECBribAQKSrHRFuDwUoQAEKUIACFKAABYJAgIFIEBxk7iIFKEABClCAAhSgAAW6mgADka52RLg9FKAABShAAQpQgAIUCAIBBiJBcJC5ixSgAAUoQAEKUIACFOhqAgxEutoR4fZQgAIUoAAFKEABClAgCAQYiATBQeYuUoACFKAABShAAQpQoKsJMBDpakeE20MBClCAAhSgAAUoQIEgEGAgEgQHmbtIAQpQgAIUoAAFKECBribAQKSrD49KSAAAEJFJREFUHRFuDwUoQAEKUIACFKAABYJAgIFIEBxk7iIFKEABClCAAhSgAAW6mgADka52RLg9FKAABShAAQpQgAIUCAIBBiJBcJC5ixSgAAUoQAEKUIACFOhqAgxEutoR4fZQgAIUoAAFKEABClAgCAQYiATBQeYuUoACFKAABShAAQpQoKsJMBDpakeE20MBClCAAhSgAAUoQIEgEGAgEgQHmbtIAQpQgAIUoAAFKECBriZg7GobFMjb43E7cXDHeqxYvw12nQ0DR56H0YPSYdDpAnm3uO0UoAAFKEABClCAAhTwuQBLRHxF6vHgwIav8MRz76DRFI1IYwPenvf/8PWWfF+tgflQgAIUoAAFKEABClCg2wiwRMRHh9LtbsSihYuRfd4c3HrlFJh0TsQYn8ZnH3+B8UPvho2FIj6SZjYUoAAFKEABClCAAt1BgCUiPjqKrpp87C12YfiwwTCJqs6IkSOHo7l0L/Ir3T5aC7OhAAUoQAEKUIACFKBA9xBgIOKj4+ioqkKj0YToqMjWHCOio2GAHTU1jT5aC7OhAAUoQAEKUIACFKBA9xBgIOKj4+h2u6BTjdINekNrjjqDQQUigGo+wkQBClCAAhSgAAUoQAEKtBFgIOKj08ESHg69w4ma2trWHJvUz3aPDlar2UdrYTYUoAAFKEABClCAAhToHgIMRHx0HPUxaUgLdSBn3wG4tRIQD3JydkEfmoKUBJOP1sJsKEABClCAAhSgAAUo0D0E2GuWj46j3hCOSZNH4c1FHyEpXIdYXSXmL9qAkdNvRvSx2lo+WhuzoQAFKEABClCAAhSgQGALMBDx0fHT6fQYPvVy1Ds+xqqvP4FLZ0Lf8Zfi4ilDfbQGZkMBClCAAhSgAAUoQIHuI8BAxIfH0mAOw8SLrsHYGc1wQw+rxaw1YGeiAAUoQAEKUIACFKAABY4XYCDi4zNCSkYsVpuPc2V2FKAABShAAQpQgAIU6F4CbKzevY4n94YCFKAABShAAQpQgAIBIXBCiUhzc7Ma94IDX/jz6DmdTjQ1Nfl8FWFWPaJD2UOXz2EDNEOz3uOX88xfHHZDBFzWBH9lz3wDTMCjD4U6gX2+1Q6HQ8vT19VmXU4Hr78+P1qBnaHTblencGD0VuOxO2Dn9TewTzgfb73BqRoZ+OEa7HK5jttSnQo6jos6qqur4Xa7fbw7zK6tQJUahT0qKoooFAhIAbmIGNRgnUwUCESBhoYGGI1GmM0c3ykQj1+wb7P3+UyvZ4WWYD8XAnX/a9UYe6mpqa2bf0KJSGRkZKDuW8Bst5Q6RUdHB8z2ckMp0FZASvTkQY6JAoEoICUhFosFNhvb8gXi8Qv2bWYgEuxnQODvvzwDt018mgj8Y8o9oMD3KsAg5Hvl5sooQAEKtAqwJIQnQ3cTYNledzui3J9WAZejEdW1ja2/N9VVoa7ZqX73oLaqEnYX20LxdPn+BFyqJEmStCVoOIV6tx53Myqr6ls30N5Qi9pGu3b+1ldXopnn7/d38LimTglUV1SgbW3wqopyuNweeFT174rKqk7lyYUo0BkBt6pS7NZaInjQWFcH5ync/mvUc4KzTVOF6soKOLTrrgcV6txm8o0AS0R848hc/CjgqC3Cki1HMHVMf2zctBm9klPhUt8dqI/ExOFZcNSVYnduMXTNVdiaX4OepnrY47LRQ9W8CI1LRmS4DQd2bERDXRnqI3rDUVMLV3k++k66AD1C1J+AqqrB0V78eACZtSaQu2kZmlPGILZhN3IbEnDOoGTtvHM1VGDn/iPQOeuwdX8RUsOBGmsikiPNMEclIToqFIf2bEWFuik22HrAXmeHqfogksfNQnK46pyC5y/PMD8L5G5fjYaIPkhGIfY0RqBnuBGFB3cjod9YpMbaUJS/F2XVKnAu3Id6aw/UHSlA5oD+0LncSLdGINzQiO07c1FZcRgRtgjEZ/XAhnWluHT2GG3Lfd1xgJ85mH0ACug8jfhy0XpMnjIeG1evQL9x0xAr93+VSg8fQHFFAxpKD+CIOw6e8gL07DcAJrcLKdn9EWP1YOvWXaivK4bFFoe4lCisW30YV146UVue5++ZnRAsETkzPy79PQiYwhPRNzVWvYRwo6S0XFujs7kRTp1BnsFgDo+GvbQIuhAr9EYTrEYDzKr+d96+PPToGQ+Xo0nNp0dhYTEKD5XBZnGhyRQCR9khbNi4BQ3243tw+B52iasIMoGKwlx4wmPRWH4Eh8o9iNCXIa+4RlMwhESrG98ReEJs0BvU+Ws2wqTGIsrdfQBJqYlwO1sGSC0pUsuq8zckVIdqtxostfoINm/cjOqGll6ggoyUu/s9CiRn9kWkPLSplz0lVS3nW2NjA/T6lk4rEnrFoCCvFBazQZ27VhjU9yGGOhRUGRAdYoBd1Ql322tQVFKORnW5Ldt7ALHpiTiwewe27zukBgBmooA/BZw4sK8AcbERKM7bA3N8KvJ2bkNDSyE14tX5e0i9zLRZjDBYrDAa9LAZm5Bf5kZMmFmdv40qqG7E4aIy1DU5UXUgF3EZyTi4Nwdbcg7y/D3DQ8dA5AwBubi/BVQXtA31qChXRfyqRFSnN2oNTS1mk3ZzO9bnmxv16oHMatTBaTDD09QAgy0MJnWGG4wWxMRGoVn1luNxq5uny4mIpN4wNFXCFJ2EUHXzZKKAPwXqivJhj+mNkQOzMXL0SIR4mtFoP3oXlBXrVHWr+iYVhKiHNo8ROgmeraEwq/NXr87naHX+OqU6l7oZGl122BL7woZ6OCyxiAphl93+PHbBnrdbXS+b6mtUiVy9qpACmFRvY3IN1qnfXM5jL3Fc9mY4POpcdDTDbDWr89mOiAjVBbOa0xqiSkVs6oHOYUej3qqCayd6p/VESUExUjJTwAeRYD/L/L3/LvUSsgj9hoxAatYAjB6UgZrKavXi0rtenTonVVfLLgOMqkqsUZ3fTfXNCAsP1Uo7LOpZIjLcCru6BjfrTHCq8z4rLQXleQVI7p3J8/cMDx+rZp0hIBf3t4BOu/HV1NZACxc8LlRXVqoLSBjQUK7aebhhMeqR3r8/Gj0GJPc8uj3uJhyyhMKiIhVncx0qmozIylYPb5lD4Kmrhk0FMdX1DQjvJTdKJgr4W8CNsiOHkN9k1VZUVFaN8Ihj60zp1x91Lj1SE5NbvvTYka9ufnL+Slun8jo3Mnv3hSc+E0b1wGe1N6JW/U2EhCf5e8OZf5ALSGmyVedAZaMeaer0dalzr7LGhbCwMJSVlyM1XlUx1Idh8NC+MNksLVqZqagtK0RsUoI2LlltZSlC1HwZ6Xb0y0iAyxyN2sMlqNebEcb3QEF+hn0/u+9sqsOhgnzY5Hxz21V7u7YlyTYMGtoPRqsFvbTNSUN9ZbHq3bSHeuZQL4mqymCITEJmRl91He4JjzEGVcXlqPHoEcmn6DM+gHwRccaEzMDfAgZV3co7boVRvSUOt+qQeyAfPVRbEZNBh+ZG9ZY4JBxhIaGwGtyquFWHUFUNJjs5HBu35MCp3uhVFe3D2h0FyFnxJUqcYQhzVyDncIOqfx/i781n/kEv4EJk2kCEqjYgZfk5OFLr+v/t3e1Pk1cYBvCrr1jaUkBeKggULYKCCuKibjPR+I/tj1oWswTj5oI6QaaAii0tFgqlLW2hL5SW0l2VqQvJQhkUPvQ6n0j65Dz095w8PS/3fQ48A4w75uGjlRnmQn4bxnMOONl+bRYDQwX3YHe04OqlNkxNz6LIOOXN6BJevvFhcfo3hHMmtBoymPEn0d6u7dbrvnnVGMDA8yrMPDfI9M+5FQ5XK3P0oohsljjx08b1Dq5Gp/NwnW+B3W7nxE8WRqsN7r4BGDd8CKynUWAY17vXkwjHE3jybAqNDq6GrL5hWKIL6sfV+AGqeq5gAAODl7G7vYW3M3MwsX9wfWQAZR7Yx1HJ5/bb1LrffstFRk6Ybei4eAm23DI+hlNc5NuGf/YVAmtxPPv9Bcy2LmzFZ1EyN0Hr0cdvYBqIHN9QNdRYIBFexDaX+yPJHJLhIDKcjfjxwX0mRC5xqX+PYQA2duDKmHr5CsV8CiuJDFJrIYQ2Shi9MYgGxuBfuzqEW2PDnInOosfdxB/PLKKbZdjZ8VORQC0FUqF5+JnaFItFcf32PbhdjVzY24V/agLzy5uwMCbZfs6M188nkS/kEIolkY6GsbiaxfitEYbBOHH12jBGb44w2TeLbncLTNZdrKyz88dBuYoEailQLu3g49IaN0lI8j3MdvthAd2DY7g35oHfF+KtDRxYOLGzEcSMb50zxSFkcnnGzzMWnyGElzqdaO/1Ypir1t4OK4rWVr53jdhcDcLS1FHLf111S4Dh2EUOgv/ENsO106Z23LlxBTZO+pRLKfz682OkCwbY7IywyK7ixdwycvFlJBmWFVr0odzswUB3M1q6+tl+BzHY48K2gZNGDRZk1/wAV0lUji9g+onl+NWohqMIZLh1XGVZW6UKAcbSf+KMxNitcWyGuWvFrgkx7sgSCASZE8JY+fOdcJr5Q+lbRv+gF4HZaRSd/RhlLH584Rnixm50OI2IR2NIMTPt+/t34Z/hgMXhwQ13EY//mMNFj4cDGcUHVPE0dMmRBcqIrG3gQk8X1hemEQhvIB4L44MvgjsPHqHNZePOLHm8f+9DHwcbK9zdLWPpxNj1QWSDkwgWL6Cr2YxkPIpkpojbP9zFMq/ZMrbj7oAdv0y8gru3D3YmWapUJ5BnnHflLByLRXOZ1YjlUlHkG9wYvdyC2Q8rsBry+BRYxNJyhHPJJrS73chEQ4jmG+BpKWNmPgDvyDj63Y14PPEcI0Pc2ZDhsVEmqpubezHiNuIvJvhe+e4hEnMTCKYtnBxqg1Fj6moeh645okBphxOYOQO6Wi2Ynp5Bkqd6h3xzSJTdeHhnmPkfDdiKMWw2CQx1WTH9ZgE9Q+Pwdjvx5OkkvN7LXDnJYz0Sg8Huxs0+B96+W0Dv2CMUF59iPlpG38VOMDhDpUqBg31gA+M3q9hNucradVlVApFIBG6+vFVOQmA/YdLIjkXlPZBObXC5vxmN/0pA3+VqSpkJZhbmkuwwP2TXYv/acStxb3Ejww70DjmJZ6E6/o9A5XyRL+03l05ij/lPDtu3TnKJSZQl5j9ZOViunCVSYLKv49z+55W98Q1qv0diT6VSOln9SGKHXbz3OfTFzPcrOPsc54p0K8O0vg4s2MWonKRcWfkzGvaQSm6hqdnFv5nuzjMaKsExX8K+DruTPpfAyQvst18T26+BOagb8RSa285/G1gcaL9bKebmNTGkkA280n2unE2i9nu0p3KwD6yByNH8TuTqgw/hRCpVJRKQgAQkcKiABiKHEukCCUhAAjUTONgH1kCkZtT/XXGhUICVO0GpSEACEpDA6Qrscvq+siXnlw0wTvfuupsEJCCB+hY42AfWQKS+24O+vQQkIAEJSEACEpCABM5EQLtmnQm7bioBCUhAAhKQgAQkIIH6FtBApL6fv769BCQgAQlIQAISkIAEzkRAA5EzYddNJSABCUhAAhKQgAQkUN8C5kQiUd8C+vYSkIAEJCABCUhAAhKQwKkLmCuHO6lIQAISkIAEJCABCUhAAhI4TQFDNpvVgYanKa57SUACEpCABCQgAQlIQAJQjogagQQkIAEJSEACEpCABCRw6gJ/AzTycimgZO44AAAAAElFTkSuQmCC;" vertex="1" parent="uucI94osu4saLkTW7OXQ-7">
          <mxGeometry x="390" y="210" width="289.74" height="181" as="geometry" />
        </mxCell>
        <mxCell id="uucI94osu4saLkTW7OXQ-56" value="&lt;div style=&quot;&quot;&gt;&lt;div&gt;&lt;b&gt;2023年暑假期间，退票数占总票数的&lt;font color=&quot;#ff0000&quot;&gt;33%&lt;/font&gt;。&lt;/b&gt;&lt;/div&gt;&lt;div&gt;&lt;b&gt;&lt;br&gt;&lt;/b&gt;&lt;/div&gt;&lt;div&gt;&lt;b&gt;2024年暑假期间，退票数占总票数的&lt;font color=&quot;#ff0000&quot;&gt;29%&lt;/font&gt;。&lt;/b&gt;&lt;/div&gt;&lt;div&gt;&lt;b&gt;&lt;br&gt;&lt;/b&gt;&lt;/div&gt;&lt;div&gt;&lt;b&gt;增加退票黑名单功能后，观众退票比例有所降低。&lt;/b&gt;&lt;/div&gt;&lt;/div&gt;" style="text;html=1;align=center;verticalAlign=middle;resizable=0;points=[];autosize=1;strokeColor=#666666;fillColor=#f5f5f5;fontColor=#333333;" vertex="1" parent="uucI94osu4saLkTW7OXQ-7">
          <mxGeometry x="390" y="395.5" width="290" height="90" as="geometry" />
        </mxCell>
        <mxCell id="uucI94osu4saLkTW7OXQ-59" value="&lt;div&gt;&lt;b&gt;在不超过场馆最大承载量的前提下，&lt;br&gt;北京天文馆在提供公众号线上预约购票的基础上，&lt;br&gt;还保留了线下窗口售票出售当日余票。&lt;/b&gt;&lt;/div&gt;" style="text;html=1;align=center;verticalAlign=middle;resizable=0;points=[];autosize=1;strokeColor=#666666;fillColor=#f5f5f5;fontColor=#333333;" vertex="1" parent="uucI94osu4saLkTW7OXQ-7">
          <mxGeometry x="50" y="505" width="290" height="60" as="geometry" />
        </mxCell>
        <mxCell id="uucI94osu4saLkTW7OXQ-61" value="" style="shape=image;verticalLabelPosition=bottom;labelBackgroundColor=default;verticalAlign=top;aspect=fixed;imageAspect=0;image=data:image/png,iVBORw0KGgoAAAANSUhEUgAAArkAAAGPCAYAAABYlciZAAAACXBIWXMAABYlAAAWJQFJUiTwAAAgAElEQVR4XuydB3xU15X/f9OLRr2MepcAIdF7L6Ybm2IMGHfcEjtep+w/u9nNJpuym42dxHGNawDbGBdMMWB670VCQkig3nsfjTR9/ue+GQmVESAsYcm+158xM6/cd+/3vtH83rnnniOyU8FdKOwy+fn5iI6OvgtX++FdorCwECEhIZBKpT+8zn+Pe1xdXQ2FQgEPD4/vcS+/m64ZDAbU1tYK3xte+p5Abm4uYmJi+r5iXiPKy8vh6ekJtVrNafQxAZ1Oh5aWFmi12j6umVfHCNzNvwsiKmKOnRPgBDgBToAT4AQ4AU6AE/i+EeAi9/s2orw/nAAnwAlwApwAJ8AJcAIQMXcFZp5n03b9XUwmE+RyeX9f5gdZv9lshkwm+0H2/fvcaavVCppxgVjMn0f7epyZCxXjy118+pqsoz7+975/uLJaLRYLJBKJ8LeBl74lYLPZwF7870Lfcm2rrb//Lmg0Gvj5+QmXY+4KggMn+0PPLsx8//rzS6NUKvuHGq9VGDtevn8EuLjt3zFlQoGX/iHA/973D1dWKzcW9R9b/je3/9iymvvz7wJbZ8EeADuWTquUAgMDuVjq3/HltXMCnAAnwAlwApwAJ8AJ9DGB7OzsbjXyOdBuSPgGToAT4AQ4AU6AE+AEOIHBToCL3ME+grz9nAAnwAlwApwAJ8AJcALdCHCR2w0J38AJcAKcACfACXACnAAnMNgJcJE72EeQt58T4AQ4AU6AE+AEOAFOoBsBLnK7IeEbOAFOgBPgBDgBToAT4AQGOwEucgf7CPL2cwKcACfACXACnAAnwAl0I8BFbjckfAMnwAlwApwAJ8AJcAKcwGAnwEXuYB9B3n5OgBPgBDgBToAT4AQ4gW4EpEVFRd0yRHQ7im/gBDgBToAT4AQ4AU6AE+AEBjABvV4PpmvbijQoKAhNTU2ora0dwM3mTeMEOAFOgBPgBDgBToAT4AR6JqBSqeDv799+gFQmk4Hnb+8ZGN/DCXACnAAnwAlwApwAJzDwCYjFYjBd21a4T+7AHzPeQk6AE+AEOAFOgBPgBDiBXhLgIreXwPjhnAAnwAlwApwAJ8AJcAIDnwAXuQN/jHgLOQFOgBPgBDgBToAT4AR6SUDay+P54ZwAJ/AdErBbW1FTq4fS0wsahRSirm2x22CoLUVRXQvsdhGkGl+Ear0hF1nAVp2KlZ5QycQQdTuxa0VdP9thM+np2o0wWmzCTpHCHf4+HpBLqb6uh9/GZ7ulGRU1Rnj5eUPpqg7qS2NpHir0VnY1yLyCEaV1g93UgkaDDRo3DWSSO7nybTSu14cwPi2oa2gC5B7w8lBDKm5rmx0Wgx4NDfWor6tDnU6MoWMT4SkdKG1nnaX2mw1objXRfcM+iyBXqaGUSehe6dxOu92C+ooyVNbpwO4EEfU3ODgInmq6H2+3S1RHXUU17GoPuLupaBx7e0/aYbdaYTS2wizcHqy9bpDT/XC7Tej1EPMTOAFOYNAR4CJ30A0Zb/APl4AdxtIUfPHpAehUgUgYPRkTRg6Bv7sC7XqKZEfV0U/wyr4c2EisqIbej399cgE0jRfxxWcHYQybiMULpyPGV91rMWAqu4hPN+9FQbVRGAJx6Gw8/+gCRPkpmCbqZbFBn3UAb29OhU9kHJJGT8S44ZHwYMK9vS4Lrmz5CzZcM1PdInhM/BFefjIBhckHse1IBrwTZ+P++RPgo7gzkd3LBt/0cLvdisqs89jy2V7UKXwQGBCI4ePnYsqoUHrAAMrTd+CDLy+irLwcFfUyrPmff2BNohtuPZVmR2PeZVytaL3p9e90p9wjEiOHB0NGbWzNPoz3dqXCYGYqV4UR96/C4uGhkHSt3KZH8p6t+OJYClirRH7j8ORTj2H6MM/bvg3sphJ88dZ7KKOHLp/gBNwzaxxCvJVdr9T+WSSWQePuho7PNOa6YpzY/SUullsgUWowac1zmB4kI/GrR3FeMZrNjoexHivt9Q4pvIJDEOippu9br2/4Xl+Nn8AJcALfngAXud+eIa+BE7grBNiPd/rZ8zh59BjKjSKcTi2B9bkXsHScttP17Q0lyMvNhZW0ikxRg5aWOpx87w1sP1MOsyoFqWdOYunjz2Hh6GAoe2EJteoqcP1qKjLLDI7r6eLRTBbVOyl2Sz2O7zqO82cuw3TuDE5ebcJ//PRhjApz71CdCIbKXOTmMpELqAOb0FiWgR0fbcK+jDrgbCquJs/A/WsexOQ4X8hI6dutzbhycj8OnMxAq2CR7OMi1mD0kvsxLykS8htPFrC1NCDlwKfYfyobBsbdMxCyxEWY5ry8VOGB2quXkd3MNohw7Mv9mDtkGbRMXd602FD0zbt49Vj/hHj0jF2NV/6wEp4iO8yVGTh2+BB0Rjam7pBMmoeFCSRyuzXRCl1NNUqKi9HC2m6KhK6VmVNvt5BluzYZRy6dR2WrBYrISlQkH0cTjV1PQyaVJ+E/XvkRtB1+saz6Glw7cwD7s8yQuXvDb/EzJHLJJm3Ixsa/vUmsHQ9jt9uqWx/nhinrn8fj04dD2Y3Jrc/mR3ACnMDdJ8BF7t1nzq/ICfSagJ3mkFvKr+Hk2RMoZypKJENIxBAkJfh1tgayaVu3GxYxC83l2uwSaKOi4ZPZhKrGBuRdPYV3X9FB9/z/w9ppwbjbs+bM6ll/9Sj2p2eB6SkRCccRo4ciLNCtMxfqi0LD+uIQuSajBVKlG7QR4fAqIteJpkokH9uG3HI9fvazpzEtzgsimwGlWWk4fug4dL2mfDsneEI2YhpmJ5LIdR7Opu8LLm3Bht0Ogcs2i8wm5BzZhNfOOmy1lpZatLSbRO3Iu/gRfv/7LER5ybpbP0VShA6bi6Xzh0MlJkHY2izEMu9e7LCazLA4/AvItC4l1xHmXkDbLRZYrM4HEOIok8k7WPtv1CTWG3oUlt2v15st5P5AUwkiCufTTQ/S+FfRA0qT4GcgRVQCKdOracgsLO6xLTJyichJ3UPM3kCeCYi8/3/x5wU9tMfWioqSEhTrnA9jPRzW+80a1DBePSnx3lfIz+AEOIF+JsBFbj8D5tVzAn1CwGrA9QtHcSaNLJhUlD6xmLv8PkSpmajpeAXmh6tq32C3mGETuWHOE79C1MiD+OqLr3AorQyRwydhTIwCBoMJbkoSWndt+pXET0slThw9i9xSZgeUIGDYJNwzcyJ8u/kKs74wkeuQqzaTCQq/eKx58ddIGLEDX27fg7OFwNjxoxDiQf6ZFivY0eyBwEav/tEiNqq3Q83kN9xceA6b3tmN6g7GTBNZzy8c3N1xYDq9t+jrcfXEXlx1dYRIjqSmcMyfRyKXHmGCpz+IhwMbux9pNyD70D6cKKwRWuQxbBzmj00gX18T8tIv4PT562C2THe/aMxcOBNa5jfRpagDRvWDVZJEdnMpzp/Lg2/SOMT6s+n9Gxe2W+twPq2KfGmZyVuL4WFDIW+sQHZdJWp1pGBZEbvB38+tXSDLlN4QmYzQN7YKLhINLbdvOXYLiiSXGg9nG6ht+kpk5FY5R1ECn/BohHrd+M50RGQ31iI7txwGpx96F3z8IyfACQxwAlzkDvAB4s3jBBgBY2M+Du8+girht12M+HkPYn6CO4kAJm/aFATJLxtZbiVkMmSb2C4679LZIyiUttKipxpYxQ6LXlNVOj57Ox+jl67EonFx/SB0XI+bnURhZU4KTp29gmYyNErVXpi4cCm5KTCR4aIv0ht/ouzVV3DksASmhgbU0+I7KdsnakFxxjFsyE/FgueewtRAGby1oYgfOgT6HlWuHa1VRSiq72Dpc9MiPpQswa6bfWOryB0hXhqHYCIhbarJwPaPN+JMRVtdMoSPn4YJkf6dhJ3N0Ihrl44hvdRxnFfEZMyaECb463YrZMkNiomDQtgnRsD4RVgaWYpqncOi3X68TQd72kmcdIpct8AIjBo/kVwgWqFoKsQlp8hVugUicdwkxKg7X0wko76E+Pfx2NMDRmsFTmzfiLe3nIPvxKVYu+o+TIwPcLp3MFeF60ipoHuRxkcRGIzQIWMxekQYfEPfwpufZQl3gSJ+CV58bDTZeR1FJPOGhzWjG6pbb5AgZtEa/HTWcMeMha0F6dvfQqZT5CrDJ2Dds+swIdzTZVW2+tP47X9tQH5D//hEu7wo38gJcAJ9RoCL3D5DySviBPqJgN2M/P0f4XCe4AEJBM3Co0tHo/n6OewkU2bC3NmQXvwMX14sRL2uFYZ68tVtc5WtT8XWj7JA89q0Et0EM1k7mYhoST+FUqhhHz0dc8eQyL31Cqg+6ZzNQL6re75AaoXDX9JjyH1YOTMCRUe/xukKBWbPpIVl+zdjf0YF+Xka0Vh+wxfVXnkM77xxBhay6Al9cXYyO/kUsuGJkAfXYWpIAEbMWoGIsYuElf+uCwntnS/j37amo81A5zFmNX71zPjui6y6VSCBmzeLVgFY9KU4uO0TfHUyDzfWOCkRM+UePDhjWCc3EEtTMb6uu+gUuSL4RM/CA6vHQ+2CO1tkpVQpnSIXYAL50hcvY8P5Li4LNO3fXFvd3s/qs/vwxrVTtIiMXFt09RDcf6nU0WLFD/6viPyvu3TGazJ++9vHEe3j2orZreu33EAPWeZGJO//Ehs/P4FqvRHVx7fiNcojv/bZ9bh3TARxI1eF9OuoqKqj+1AEL4r8ERjuj3BfLRpSbtjIgyaOx5RJ49pdcdjDUcGlOxG5Urj5axEcEgIZTCg88Tn2nslqZ2auy8GeTW/hsAufHc3QGXh4gTdUFPmDF06AExicBLjIHZzjxlv9AyHA/D0bs/fg1S9ShYVUYmUYVq5fgaEaHXZvfAMfHCiDePN7kJIIMLJwCl2L3QRdk3MKmO0TsZSHcsjlcsjoxSSvq9O6VuPys7EJlWXF8LRRdIUeiogsxz5BgdCQiLBTWwovfEptLiS5QY4KmmF46sWl8K5NxZZdm7D3cj0+/ZBCQJE1Wljg37WQr2VDR4uaWCL0Q079YX1qZUpTRCLU05deXU/u+NkKibeqk9VWqvEnq2YICVNXptXuddktFGFg37t4d8tZNHZqqw5HX/8vnHizaz3EmUJeOQr55B79Mx4/0fUYx173xB9h019W3LCwMjFbQz6mxQ6XBZFUCbWCKVZaLGa8MW1vNVJotXozWZDJWkoPAm0i30auLrqGOrTQ5ez0vsXgPEcfB1P701DXPlLdBjq2paWTWBcRc5nU1eCQGKeQcCnffIQ339mGwrZVfza6L03Em85jUtFmrMZ58sUurWetI3cUssbLmJuKzYiii0XORlBDy1Kwd09Ve6OkXvGIvJGps2tjb/nZ0lqLtENf4P1NW3G9to2ZCDZavJaXVSOcz9xcOhYvVRz0Zq9b1s0P4AQ4gYFLgIvcgTs2vGU/eAJsajcL2zbuQIFT3Cm0WkircvHNznzsPFwqLIKxSvwQG9KK6/lk6aPFR0q5nXxt237IVYhMTECkvxcJQhlktHDLy9sH/v7+8PH2RRAtSNN0tfDdLveSg3j1D2Q5pBinPRWZOhTPvv533OMrhqn0PDa9txf1Ti2hjoxCa+pxfJZzgXw0a4W+SNQhCHKvR0EZWa0lcoqfa4FBWO3PijuSJo+Cn1pBwpbEEcVY9fejfvj4UF/8EB7r21Mzbmu73WpEeWkxjIoAhAZ4dIhz6+J0eliQKlksXNrXxT1URW3xd+8sou1kSW+sLSdfUkfn5SofaAMoJJaLqt0DyX/Uxfa2Tb4jluGhGYEQk09uxq5tOJBbKVjnvZIm4z7i4y01Ijv5JA6fTBf8Vz3847BgxUIEk/9DS/kRfPBZatcmu7haKzIPfo0NeWc7tUXhFYBJi+d0OZ4ssJYmpB8+iDff/gqFbZ4b9MDhN5RmHZ54GPMplBozljaV5eH69UxHVIYOtdhNxTibf+MhoODAZrx84MYB8qHP4C9P9BxizEUHnJvoAaHsGnZ/vAs7th+C01uE1m2qETF8PBLCaJzpwYaJ//LsdKRnlwnRMSDTICw0DH53/OXouUV8DyfACdw9Alzk3j3W/EqcQK8JWJtLkF1bC5NTGLYWJeOz9y8JK9cdRYaoOQ/gxQUeuJqrp5BhCqjMV/DWG/vQJBzji3lrn8L9o6OgIJErYavdXRsQe902mrBHS/PNYxjITG5odWpUS+01XO1gVdZl7MNbV/cIvpmOosAEinW6IqaJFqUZIVWooC/eh48+uwymm0TiEDz80i+Q5KEUBDuLVdp3fbGjInM/Pnx/D2oUcVjyyEOYnxjkMiKB0FaxApExkzEi7CiOFHQMVaXGyCVrsXpcTKfQW1Z9BY5sfRM7LjSwnkCbRGO2LsGlP6xME9zuqtBGpuO/7uEjMWVqLCTkk2u5eAAHnSJXExyFsZOmIkjRAll9Dk4JIlcElXsIRtL2ePLJbczKxj9vS+RaUX75BLZf7twCdUgMfKfP6izCDTVI2bcZu1NP3BC4dJp3wgL8+EePYuowhz+unSJfFOVR2LfcNkeKtrop/nPRWWToe3YwgYyW4JGFuvfFgqrkffhnZqFwH0rIGkwTBY4i98TQafdhVoI3rh39CluznfWTOA8dcx8evm8Owt27AOh9A/gZnAAn8B0S4CL3O4TPL80J3IqAXBtHYaaCcBFNjkBa5JbQ0b1AGjoZq++diSHDfDBkhFgQZfZGNTa/uZ/OYD/atBCNLI5qpZysVWZand5Ei7ZqBItlaVkpyhrcce/qRYjwVt+qKd96vyp6PGJlX6PGGRKMqY2ORlD5kPvx2JIJiHKXYMR4hxgvvFSEbU6Ry0Q11BooySJpMxvRpGtATWUFKirKUVpaijpzONY+Ng+e3QO73rLtzTl78Mr/ZCKjopGukouSkqsofvI/sW52FIXxotOZoO5QC4tG4RkajrjhiWiK90X9sWPIMzKxa0TepVPYXZHZeeGZSYf8wjZxZ0dD/ml8sytPSMLQtWgiFiAiwsellZcdW3L47/jlZSVE5Magq65sd0uoOL4D/3flCNVJiTaa6mn8WbGjpugcXv91Lvldi2A11LbR73rZO/+sy8WpEznk703j4yxeSUvxi588iolkXZc4n0SsLY3IPnEEZR28ZxxNNCLrSAp0gusEhbuLH4FR8eH0gHMWJ1MrhUPENO5S0c0fqNov3ukNhdqbugIPRH2DbVmBWPXIfIjPbMKrezJRcPEbvJd3Eds95dBVlaNGZxS+McFTHsavXliJuEANROyZhBdOgBMYtAS4yB20Q8cb/v0nICIf3FAsmJaEa80UEYDS9LaQQC2rdAgVqVsYlq26H1NiVKghoddKPpRGElotNUVk+W2zepXj81d+ha9b61BNLg/dbWFRGDJ/5p2JXHU0ZkwdDn+Ptoix3UdEovBFvIopOeqLZigenDcUtcmN5IcJ1BeVoEKnF9ok9x2J53+0FKEyPSrKdDAaaHEZ+ZUWZFczaSsUuy0Hf/7x47BSqKkGfVelRPrXfSJmP8REbvd23GqLtSIflRKj81oWNJTnY/Off4orl1bjyYcWYXiIl5Bs4kYRQUL8Fz/937gPRfjD2VNOkUuZz65ewMGM7uq1o8+nrioVhw+kdRLObXV7jojH46tHM2TOQuykzO/Y6ZRK/qX0fNJe2rcbmlFVfsNKKqHjBRTkC11bXtb9eKc1/EZNHd+J4REYAq1HZ7cLVUAovGnVXaeAZjYzTE4jrFThjcR5q/Dso8sxxI+EeHsfSNiXnMBXx2u6LAgk39/qZOy8QIsl6UYQe8Zj2doXaDFiFLL2l1G+j0phTHxCPKgvdyJyKUaweyDueeoPmEr3WmurDnUTZmHYsWtkOTZTUosyenVgGTYJy2YPg0hXjTJbMxQGeri8Y6d112T5Vk6AE7h7BLjIvXus+ZU4gd4ToHBSYYuewZ8WUvav6gx88trfsJ1ELiQKRE9eiHtmjICi7iB+/z9forC0AnWNekoO0PkyuvLSm8iDJhRT1qk7KkHjsPKRx5EUSkKou6brXiXFfx25/g94cz1FNss+gtf+/I4gckVKP0xYej8mxQehOuND/O9bx2n1fTUaKGNV1wnsWsqy1VOxog5llIFtSLcwAj2dcWO7x6Qn8e/jSvDxF/uRllMpLIyDuQlX9m7CXyoLsOrBNVgwgVw+OgpdGhtPTyll2OqoquWIHDcZo8J9O03p28mSm516EunFjlBUXhFTMGNsYHuIrI4t1ITHdbLwimRuiJ2+EmuDHQ8Et+7N7R0h1sTBR93Tai41Jj75c/x8dmK3ZCEiewN2uLiEWBmEOQ88itUPzEWUZ/ckF63V6Sjvch5bwHf9+BnkVDjiPyt8vSiurzexo/jDxRXOhw4R/MJ7n4bacSkLyi8cwMc5h1CSn4Oc3BLUUdSH9q+IXANftQ21DY7IJWayHr/1x7OQkitDYHgogrVilJMY5oUT4AQGJwEucgfnuPFW/2AI0DQ5ORKKjRSaadfHOJhcIAT4V/uMwMoHliCWRBZMFpTmFqLKcDOxShYtpQf8AgLgJWtAabMWM+6ZgFAKh5Wg7ZhKtz/BkkVSIqXYslk4sPVLJBezMFIyhA2dieXUFj8SpyUUx7Q4r+Qmopy1Twylxhv+AX6Qmshf2S0OkyclIthPi2hHcNled0IkVSNhzlr8S3Aktn30Eb65VABHplojSlIO4D1yCyivXIeVC8bBl+Kt9azppdAOHU0xcLv45DaXw1p+3ilyRXDXJmLarCQIRu5uRYSC/GIEhobCk6ymIqkMniFh8CwvhLG7Kb7b2be3QQz36FC4yXv6CaCxIv9t9pJ0smCzCA0uGk3RD5atfQRr7ptC4+iKjwhK/3h44xi5q7QVO/SlmThcI0KV0x/XWHEdu77cCj+3RSjPcLgqsAWH0UE3EkPcXv/ajqJoIuIGnN6VjPL26Ba0rkzli1HT52HCqHiEUiSOktxMpF+6gORrRUJaY4upkUSxFOFxw6CRSdBs5EK3d9z50ZzAwCDQ01+4gdE63gpO4AdPgCV4sKDk9Ca8tf0SagUToxyj7r8XEfYCnNqfjwrKauZLobqqaPk6Cy/lE6CFpDoXZc4wTqLgJXj5v5bBR0Fi2VyBnW+8iuzqJthoanju4rEk2u5gfv+OxoWyTZFYP7/7Q3x+Mgd6csiVa3wxaeE0qOpJ7CTnUSpWsqxRWCm2YIpZMLUB3jCQK0GNsLZLhLDJP8LPHx8DT4UU1qYsvPO7l5FGK+O9YsZj/qQYqL9FTFORRImQhBl4/BfhiNj4V7z2zTWKN+xQlc0lafjq/VrUND6O9avnQKtwJeRYG1txefs/kbtP3kkIszFs0bXFubWjPPVT/F/+th6jKHjEjcSj//JLTA+gP9HkblB07RA+3nhaiJbQV0W7yBtThkdQHFgXorU3FyGL8OrHn8PahSNoXJxxIZwZ5zpm0lN4DkGE2g3egT6oY9nNGswkNlUUE/iGv7ONMsVdO7kVf75+DPY6p0uKLATDWUYyV5mNb9lOCfzHLsE0WR0+K/al7Gp2XDifhjoai6xk4llbiqiYKERHxGHOg2OwhAzbOkoUcvVKOipkUVg2zx//PJ+Ciq5r5W55XX4AJ8AJDAQCXOQOhFHgbeAEeiJAi4uqLm7Bb/62C1UtbZP3Jpx+/zf0cpwUsfo/8D8fbITGw51S9MrJ8mZH8oan8fONeY4D6AfdLyIM6rJL+Py997H7Ck0Dk3Y78MkGhAb5YuWUGNeZt3pq051up5i/1/e+jj9vPA+9sw5TcwW++NNP8YXz87R/+yde2bIcSjd3qEjI2pqKsPXNX+IfB5hVz06WWyO0oVpYco/jA3J3uFDDLGwp+OiNjYiO+n+YHOpxp60TzhNRCDZ3/1gs/elfoA15BW98eRZldS00eU6WcM8gxMcPg6+8J4HruDSLJStlWec6Fvrs4aPF7bZOiCvbwSdXrnSHr5+fEGWir4q3RtFz9IjeXIQyqoWGRsBdfqPPdksDCoqb4ObjB293FmpNBIUqAFNmTYAoJgyHt38hiFyF/1DcP0OLr6u/hjE8Fqb8DJTXtqCuoqS9BbLokWRtJXJ3JHJpTKWemPdv72EJ6e+WzO34dX4emprr0Ei+6+yVfulE56HyDMW6376NP4zSwFZ/FBu+5TNAb1DyYzkBTqBvCXCR27c8eW2cQB8TsKAyMwf1N5kudfNzh4+/L2W0uvFr7B5NVk3kCfFI7c2Z2LF7K+qO7caZK2WCv6lM44dJ9y3D1MQI8v+8S7/iZJEsTrneLnBdgfIM8oIP+WW2tUhEkSE8KUmDHA4/2fqys/hqm47E8n6klzhUjzogBvPWrUSiv8ZVlXe0TSRWYtzyn+AXviHYuGkXrtaosHDNY1g0Prh7RASxGtEJQ9DUxCSoDJETZ2JSDFnT7xCrRK6kBxZvhHiSKqMIFBabBFEjV+Bnv7znNuLb3m53SXR6B5KPMdVP7gddNfnt1tLTcbaG0xStYge5RCRhWHw0howaj9Ehvph273JYzddwtO1E8msOGDcLCxu1GLloCnQXvsS7G3Yho4xmGoRjZIgZQYvd3OXdYuv2dG1X2+1mAy3KK0WjOQj3LFmF4VW1aG4xoLWlGU0N9aiqrERNTR2aWowQ0eJNd/+eE5y4qp9v4wQ4gYFJgIvcgTkuvFWcgIOASIG4yQnw3nYOTWTFdBQF/EJCyXpGiROCgpGUGOZIStDOjHw+/UcjQnEAmewUew12/XMTzLTghhWRRINJK9bjkaWzyEJGC4TuUIy1X+5235AYTJxLfqjHS9un3cXUlkCyMgdTP4KDgjAtuPNqfhaUX+sbB39ZMkrJaNtYlYltH2fBYnD4SKp9IoU4wGtmJ0FDFtY+KwRFovRE0uxVeMEnBGdL3DF/fgLcXClXCU2506ODgaJbkIM0ilIpC1pWTwu6btVCEYatfREPxfuT0KekHvkH8MbnF6BvT+5xq/N7uV+qQtzUx/DgTP9ennizwymJCaUVrq0rREZuNoOGX5cAACAASURBVM4dUSFh7b8hYd00+A0ZjtbM651OFinDsXB5GORkubfPWIlHSkvwymfHUc1wKkMwJiYCnuTn60xqfbML97ivuSYXn/39DVy3uUHjpoaK3CTUlBbPLzQQscPdoaHPEorDazW1Qt8qx0R/aSd3kx4r5js4AU5gQBPgIndADw9vHCdAC3YiZ2HlkkY0+EchPjIU/l4a+pFWUnIHFlaKMn/JFR1iqpIPL/lDqlRaDAkSIbPA4VPqELiURlUejAXP/hhT3S/g/ddysejB+zGeohqoaaq5/7WuCD5Jy7FupSfk0cMQExEEX3c38slkGcwcfRGEDjXZIbxZXyhuKsvM5iVCaTV9pliqFhZPlTKOqTTxeOwX6yG5fgBvvpuP1asXIp4swTISon3TF1p8RSI7asxchIwUUxtduylQ9FmKRVuAvLK+cdy0z3+q/ba31LMYtEcpZFqXtGp99cWQuaM1ZCVW3UTksvvJzizKZkoR3VgLq/LWmccMlQ2U5tfZZosBIgrDLCKXBVrH5mJsxFCQiGXXsVFEi3w6ty1CnHdcPIYNjb5pcozbQdFUdRYn0q6jukO4DpFYRsJaDgV70XdIJpVQWDhvhEXEwLRfidGjRyO6/8NH307z+TGcACdwhwSkzc3NQmxNXjgBTmCAEpAFYPHjj9P31ABDaytaWvTkS1gPnb4ZuvpaVDVoMG/ZdHiJzWioLkdRfib2fPYxDjsFrqNXEnhGjMPDP34WS0Zqceat13D+RCW9dmHKv/wdv18W70J89D0PpVcsVj8TLvzNaW1tgZ7+/tRUVAn/NtbVoBkRmL9oFBRGPSV6KEXm5dPYvf1rJJPAvVHklDFsHl782VMYqyrFpq/P4+SZ/Th7aAfW/vE9PDG6L6NFkGAmP9229VS3RURJDxhRvjdPC9yhImtrJbLyusaPdRwgVvshOjoWTY5QD8JGG6UfbqBoD/UmBYIC/YQHFFYsFPC1tKYBZqYtyd3Cl0XS0MhhI5b19RTz1csXGmUXC6XUDcE+Cpdjb6MFjU01paimaf6CrFScOnIQF+s0WPcfvyNXmA5FiMncYXzIj7yhiMSwqU2Y+yDOx5MePjqe1P29zazD5b3b8M3xNDD3cxHFWB43dgZGUIg6Vr+SFinGJSVRrAXQTAa5ptg7RevtXmH7FjskdjWSJo1FbbNJEOut9B1qaaH7T68n4a5HU3vzS1FM6X3PnL+CVc9GInLyTarluzgBTmDAEbBQUhqma9uKIHJNpu6B1Qdcy3mDOIEfHAFKd1qVi9Pnk1Fc1Ug+nw2UrawW1dVVKC+nDE2CDygV1Si4+ZJoLMpBRvolXLhahJa26PztzMj3MTQWCVFBkFqqcOViW3gmCUVjUKChNAPnzqZT1qmeIRvLU0kkdAhTVn8Nh7/5Cte8bjE1T2lSfaITkOipx5mULDQ0NAl9qaO+VFISi/LKKvKFdLgf+FC2L5Wc+pZ7DVdSzuN8VlX3BomUiByWhFh/NzTmlSM/y5GWSkxi1Nt3APhSRtyLX/9+KTxu031Cn78ZT/3LFpe+ysqoBfjXf5/miPJAC/d0FLP3wumjOHGmAY0UBm7ammdw74hgIa5sw4XP8KcNe1HSSIPoFoWFa9dj/pgAVFzZhQ0fn4YiIgGjx4zEyOFx8CXxK1i7mUXc3U/wH2ZW8hvFiNzju/EOJW9IS89EZZNjfBQBJC6FwzrYylvr0aijTHF2H2EBo81UgysFdWhti7qlCkSkJ4ncm5nXSRgXnd2BT7btQ6HTL8E7bBSmzxkLd2aZJxGqjZuCn/95PGX8Y8kxZDAWnCMXkZvcsO2dESFw1Fr85+i15A9M3xO9DrU1VaimWMxVVZWooAdGPS3ObGyghClVVUIGPYO3F8KGsDjGBR2Y8LecACcw0AmYzebOIjcwMJB+dBqc/mQDvfm8fZzAD4uAtTEb+3Z8hHM5N5kKN2Rh0z/y0FjrTP3bjohinNJ7SgRMdjBKN3t5H95+uxWjPEtxpC0qv2cSpoZpUJV3FJ/8YxPKO+qcLqjtlFK4PZEa21eXhp1brpBrwc3UCztQirgl6+A7thmfbNrWWSh3uUZj2Rm89+ZJNJJ1rbN8kVItNGXOLIb2JiTv34xXWyiWbOM5pDnyCEDmPxHjA7snIehyif7/SDFxs65fp2gDt+cj3FJc5Ug+0a1lJOYUnggIUKIyJwXHD5/E5WtZyMrOQZ0QHs6AYwcuYcnM0QhRi+GW604xYZ2VkIXWxz8YQfQAc/b0MWSXUeYwehXkZiDlQhRiho7B9JmTkBDmK7h3wG6miAaNZCVuuwFMyDt9mJYudi52CqlmIZuIVEIxdNt2UVrfvZtfQ96ZICgkdpj01bh+JReUl0Mo8uAw+Pr40PHsPulokXdWQNeuuLATf3v/c1wpa5tVdMP0NQ9hfMgNK7OZLNVXLyWTywG5t5CjXUnaQVyovHHD0jOOi2JG1vYN+MMZLyGSBLtXHS+WNppZ6ZlrC+uTgSy7lPGOqpPKFLDXF2LvB/+LCxTVt6TtYdJF7XwTJ8AJDCwCzN+e6dq24vLPwsBqMm8NJ/DDJaDw94cXhU8S00S+w4DGVsLLBF9cCS2JZ4H6baYW1FDYJaGQZU5Gq/N9AoZj8bo1GK+6glf/8Tmyyltg1dcg/dhOXKcV9WZBa4gQPGkiIr3cUGezwUq/8DfRuC4HQfDX7KR8XR1mJUukDcqIcHhRKtnatjxW1FYppZ6VMl9IFjKL+mJhaVcbnUKILMBKlTuCYynV6pqliK3fiZ/9dR+Y8c5cX4Szez4n4Wt29kWM6HtmIeim5kJXbeuHbeWH8Nc/nbzt8Fx28ll1nWqABGPlGbz6p3dwvqCerBN6GJkKo8IiMKh8guHTWoAD+w9Q/FkLso+norrJ+WjgFHN2cyN0dg94aHTQk7tLQ0UBLlcU4kryWRzcuRF+w+4hS/HTiDakYcelQrhMfkfjJFcoySfZDUnT5mN0mAfsgbR4i4zmlJSOigEl2akozUlzwGT3RBtWWjgZOzwSocFurpxx6d7V4eqe9/HB13uQSfeos3OIWvBjPD6jc4Y5G4nnS7vex/ZskyCXLbRIrC3oiETqAy1LjNKtUDaz66k40XmtW/tRPT6gUR+unjnerTa+gRPgBAYXAVd/FQZXD3hrOYHvLQGy5GkiMDQ0AQU6T4odq4a7tx/CouIxJD4OURGh8PN2g+7UO3jptaOQ+ATAn1wSJs5cgHtnJEDDEiPYh+MXNA372/d3o4z5IlBSArNTycooGcTSaYnwcZOimeKwBgTR068LQ9u3xyuBnyfFvfVOwmha1CPW0mw6LZzz9A9BbPxQxMVGIyw4EL5eSqRv+iX+uLMEHlotpXJNwNJlyzFxaKAQHs1ujcDPskrwzv5M1LaSVdlKAtfZOIX/JDw0M+KOw3Z9+z52qMFmJB/jXriA9fiQQLF5fYdhiJ8MBy7rhEcDObkWRNFirNEzluDeWaOhTnkVa/7wMkzWzgOn9KKIAR5qyNRaPPm7N/FAZS75LO/F0eTrlE2tiPy4W8gH2kQpbcMRTMkYJCSE/elhh1k7nfkvWKYOhIRFICIqFuOmz8XUsUPgT2mAmeHeOGMSEs9dxpH0G+4k3R52SBz7DZmKBdNmIlTtemGjiDLgqT294aVwOOyKFR6Uwvgh/OsTsykzX4cZAnorp0WKbiG0UO5yUZfbVI7QEYsx2btHW3GPw9utzT0eyXdwApzAYCTARe5gHDXe5h8MAZHEGzNWrsMIClLl7+dLyR6kJEQ6/PgTCdWUlXjGkAAvSkEaF6alVK0kKNoOYZa0Jc/gJZri3XbgJFKzytFCakmuCcKU5SsxdUQk+UqKERQ/Get/GgbSjv1QxNAEhCDAzQ8rfvwi7qUFRP7eHlBSO7v2Zch9z+L50GoEDxtGqVzJx5Omxdv7QiHIpj32r4Dv59h16DQyihtoepnq1sZh3iMPYjjzFx0IxX8CVi8cRpnEbs9dwVh7GV/uTHHpsiCSemHWww8jrXQTGgLIp3bsRMycPp5CvymJC02zJ4yEj/ggKjqIXBUls5g9fxoSIomHYNGltMBBQ7Fg3RDMXFqOtHNnkZKWTvxEuHfNZGjYlL1bDO5bsQinkguRa1YhJmkckkaMxNTJkzA03A8Klk2vA1tF2DQ8u94Mn8MXUVFVTz7g5EjinB1gqZuVGk9oKSzcyKkLMDFBi56Sqoko/FrUlOWY4C2F8R/bIR27Eo+unI9o364RHOiBj9JSB5FfcWQQLRwjv1yJVA61hy9Co4ZjwZp58HQV3o0cdkKnzMXMaO1tW9Y73kJ2QyH27T6DaqfP+EC4vXgbOAFO4PYJiOhJ1s58cqvI4T4iIoLCqQyAhRu3335+JCfACdyKAKkPG02JV5fmobCkksJRWYSp7jiyBgd49FHWq1u1oa/2U18shiaUFVEK4HIK6G8SwTMwEkNjKZaqiiIHdNb/PVzVhtbCNJzLq2u3WsqDkjBlqF830d1DBZ032wy4duYsip1CSOQ1BDPGUNxXl6Kre43m5nycPpPjFLki+I+YhJFaTbuotFmMqCkuhNkjmMKpuQkuKm3dtJvrcelUKrkk2MlThdw+6KFA6alFZGQE/NjiMhc8mG+1Wd+AijorAoIpiYhTjNutelzetxNF6lgkDYlFaAAtFqOYX67qYL1gVlBTCy3Y0ulhcrpRCL0jNxO5UgV3ysCnpJAKnZtA49dUjsycQooYQS4s3gGIiYslgWpCyfVsiALjEOzl+p6008K7ppoKlFfRww3VyhYaylUa+FAmOC83efvY2c1VOHM0haJPMNu3FNqR4zAmhHyCe+pI9yFp32IzVeD86XQ0GFhdMgQljsRwSmohvYO6bnIZvosT4AT6gEB2djbc3d3bfXLJHYlsAVzk9gFaXgUnMBgIOPxnmcWtbQHOYGi16zZ+m76wc1mtbf86eLAtPfpoum6EYytVxgTfDYcBZj29/bqEcx0NEurr1dh0uq6jOXfUB+FU9jBkgY3EY0ch7ai1D//frc0OXgIDZnn+lpcSeJIPeNt4iJhQd3LtbdVdx6atfXfOuLct4MdzApzA7RJwJXK5u8Lt0uPHcQKDngATEw5BMei7QrLlzvvSxqCPWAhM71yc9UrUdh24b3HdrlWRwhRCc92ek0X3s297Sw9t7ivhKPDsozzF32psbhsIP5AT4AT6i0C//z3rr4bzejkBToAT4AQ4AU6AE+AEOIGeCHCR2xMZvp0T4AQ4AU6AE+AEOAFOYNAS4CJ30A4dbzgnwAlwApwAJ8AJcAKcQE8EuMjtiQzfzglwApwAJ8AJcAKcACcwaAlwkTtoh443nBPgBDgBToAT4AQ4AU6gJwJc5PZEhm/nBDgBToAT4AQ4AU6AExi0BLjIHbRDxxvOCXACnAAnwAlwApwAJ9ATAS5yeyLDt3MCnAAnwAlwApwAJ8AJDFoCXOQO2qHjDecEOAFOgBPgBDgBToAT6IkAF7k9keHbOQFOgBPgBDgBToAT4AQGLQEucgft0PGGcwKcACfACXACnAAnwAn0RICL3J7I8O2cACfACXACnAAnwAlwAoOWABe5g3boeMM5AU6AE+AEOAFOgBPgBHoiwEVuT2T4dk6AE+AEOAFOgBPgBDiBQUuAi9xBO3S84ZwAJ8AJcAKcACfACXACPRHgIrcnMnw7J8AJcAKcACfACXACnMCgJcBF7qAdOt5wToAT4AQ4AU6AE+AEOIGeCEhzc3Nht9t72s+3cwKcACfACXACnAAnwAlwAgOegE6ng16vb2+nNCYmBg0NDaiqqhrwjecN5AQ4AU6AE+AEOAFOgBPgBFwRcHd3R2BgYPsu7q7gihLfxglwApwAJ8AJcAKcACcwqAlwkTuoh483nhPgBDgBToAT4AQ4AU7AFQGpq4182wAkQH7TVrMRFkghk0kgYv+JOrfTbrfBYjLBahdDJpdCzA6g82x0mPCeXl1OGXgdZe21WmAyWyCWKSCTiLv1c8A1mrXZYobZLoJU6uDeNjbM391us8DYaoJUrYZUPPDHgLWZjYENYkgYfxf3GhsD4X6jcbKLxJBK6J4cBH0bcPcObxAnwAlwApxAvxHgIrff0PZtxXZrAw7/5bf4RjQaq1fei7GxviR3O0tWQ10BPnv5Tzipj8aTP3kCk2K8UZ19EedzGhA6fAKSIumcrsq4b5v5rWuzWxtx+suN2HIkFyNXvoB1c+OgkgxsYWi3NiF589v4rNANix94CDOG+UIikKAFnRYdMo99iTc/OIXxL/4G6yaGQU5i8FaFCU2zQYcWg5XV0udFqnCDm0pODz8OsWo2GiFWKIX7w2ZoRMqeLTivC8O8BTMQG+hOgtaK1mYDRAoFlOwhi52ny8DG93ai3j0Kc5euwOggRZ+3k1fICXACnAAnwAncKQEucu+U3N08jyxmrXknsO1iDvIkrciaOhtjSOR2LXarCbWF2citFqGBBInd2oLslP3Y+OEpSIdMw4Nr1uCeifFwlzlEI7PEmY2taDWY+0VIkekYEoUKaqUMktsV19Tm/MvncDWrEtX79mJ8YhBGBmkEK/SALMSwKe88dp44jysV7kiYtxrTOzTUbjOioaoMNU2F2PHeRkT7v4TpMe6CuLxpsZmQc+ITbL9Q1/djI5IgNPFePHhvIlQwofjiYRxMr0PSLHp4ivSA1diMjH2f4YvqiRgyZixiAjUw1+bj4M59KJZEY9mq+QhRi2Esu4oLl06iQlqFpCUP3LQ7fCcnwAlwApwAJ3C3CXCRe7eJ38H1mHXz3IGzKNaZETppJqaPCXVpkRWJpVDK6QI01WxlYeGkbhg+bSUeqmrBx/uO4/3XK1FY9CBW3z8dQW5ka7TqkHZ8G3YcuArDHbTrdk7xn7Ic6xdNAtmUce7wVhw4VwHrLU5sqmLhP2younIU77xcigAP5U3PkGiCMGXhOsxNcidZTVPtxkZkp19AZqFOcNX4doVcELzCMGb0SIR4y7rYzsmFpLUCp48cQFpRPfymPIKFo30gsllv9FHqjTFzlmL2+UxsvZaCIyfTMTJ8Atwdpt7uTSMx73AzsUFfW4icnEqXItdibEJpOQlghQe0fl5QyRzu9XaLHhWVdTDaxPAICIKPwoXbPYlckb/eUS+J9Orkr/HxV0UYXqeA7xP3IbTLKXYz3SfHPseWrw6h0m8pFq2cR2ZcCyqzytGiM8AjYgiG+nWdV+jeNb6FE+AEOAFOgBO4mwS4yL2btO/gWszaqss6i8Mp6TDK/TF7zVKEqZlPbvciJvFCM9BULDBbrWT8lMIrdDjuffqXGBKzCb999yTKy+thbTMjklBpqCpCRno6WrpXd2MLs/gKvr5kUJWQT7BU4hBiNzvHuS8kcgZM7ER7M/KpH0eOF0EklUMhdSG+OtSnVDJh24qCa2ko6Ok6NIVuMpEV2iMGPiNWYo4gckket1bjwqHN+ORIhXCm6E6twMyfls6Xhc/CS4FDBZHbsTBf2/zko9i5JwWNZkB/4SO89Phn3ceG2tnS2EAWUivOfPEnZHyj6tGS6zliLn60/jGMDFBi5P3/jlcWuH4kaCg9jz+++H9oGDMfP12/CnHejq+yvSUTr//2NVxoUeHBX7+MRVrXalqq0EAp3EQKDFn6JGYf/xWO79+CT2Mi8Pw0bYdu2lGWtgPvfHgMNfIEPP3MUoTT/We31CAtpwoNejsiR81BsNzVHdkJF//ACXACnAAnwAncVQJc5N5V3L28GFsA1FqDU8dOIC23BcELf4JlQ0nIMUstLfYRizsvyhIzS66CiRryn7Q5BBpbNiRTeiF+3nN4OWwkKpVxQFUhCkgwR2o1SJq2Aj8NmQ7SaD0XsiQfee9dnKgyIGj0DNw/dwr8XVkIu9UggiY0Dl7sWIOjPeyQ8IVP4MkJIR3EoB0Wox411U1QefvCw03RSSgaGsvRYHGHr5cbLUS7Iabs+ix8/MF2ZJuE9XU3ChPlZgMMBgM04UkYEebRXXh2a2v3DbbmApxNLaW2mWHpahKmCzYXX8KW9zfgml6J8Nhw+JLF2ZXUs1uaUNDcBLFcAv+IaGhVPQt8dz9vKKVUCwlzucoDGnsT6ht0MNF4diytra2CtdhmNqG1RQ89LTRkxd7SKjxU2G02GNl2fReRSw8+nv7+8FC0ffVFcAtMwkMvPIrmTacgMdC91eFadrsR2acvw+QdieVrn8TiCdHkegIYq3JwrTQLzbTYLijCiLys6y77LvMIQRS5m7ji0p0438IJcAKcACfACfQdAS5y+45ln9fEZGFt/iWcOJmMZt9ReHbFWKjJsSA3+QzO5eiROG06ksK8yCrIRI0VRvKvNZHQBZqRk34JRxqvo7GhEc0tBmFfs64JTY370FDfAFP0I/j7z6ZBG5lIr1s03daI8m0bSORa4RedgCmzZiNU2bNQ616bI8JD2/aApAmYPj0aIra4qrUeuenJuHDlKtKzKxEx/1Gsn5IIhVPM2m3NOPjWHlyq9UV0bCyGDU/CqGGR0JCYt+s1OLxlryByeyoRi1/A71fHU5yA3hdT8ftY8ugnLk4kUU5sd3z0Pg4V0uOBRwKWP/ki5o8Odnkdm+4yXvn1qzhbL8eil/4bK8LlPYo+5nLiiJ7BLmtF5ZWT+HT7AZS2dha5ltY6lNMRlmun8fFbeXCTO90VyLWgoKIBBqsEB975C1K7CmqxNxb8+HksjvMnRWyFrqYClQ16mNXxWLImCG6+XqgoykcF8xgxN6GkqAxjpi7D/QFl8A9VobKkBqowT5Rm56Egu1Zgc+6DPyOjh78kXpN/gVefH0WLJHnhBDgBToAT4ATuLgH+23N3effqasy/8tLXW5BcJsf4hxZhEokLU002Tu78Jzafb0BYZg6mkGCqq6xBo74VRkMzyvKZTdaEc19/ilRyW9Azy14nM6QICjdPhAToBOtt5wn4XjWvVweL5L4YNeUBrPdtRHCMBxpLM3HhxBGcTbuO/PwiFJMwE3mFwJ0WzLU21yEvpwzecXHwV7ZSH8hSeG43zp1Sw08bjMjIcAwbPxszxwVjzqqHMdREU+5D3XoUjr1q6C0PJj/c5iLs3bwJXx4vcBzdUojD2zci+5TDXaJrFXZTJa5VNMJklOD4R2+jzNO1u4mc+j918QqMCW77WpJfbk0Zrl9JRbHnCExP1DqjNpBhnPyz87PJkitXw9svAN4qZzwHukZ5cRm5n0jh7hMArYdzu6UFhTlXkF1ciqRmo6OJZKXN2PslPj6RhpYOXhHCAkaWANGaj92b/4ETauddcmA/+fLOxf/+2xxczziDXB3gFTUUcX7u7V22GWuQmpYPi8wLkVGRCPJ1bd3uymiwfLZbyT2Gol7YWxpgb22gmZYm+rfR8TKR0w/bTy8QQ+FfCi3HtsniZ8I+ZD6+OVuN60V6CjVHMyz0ICehl5TCtMnps4IeVDQqKb0kcKeXW/t72kYuIrJbuPgMFoa8nZwAJ8AJ3C0CXOTeLdK9vI6d/GWrU7fgg0MlUA+fjyWzx8FDYkJGygHsP1cKu+cELBrdgs0fHCBPAFqsRK4LLKYpzV5TISEm80TU0FiEhQQjODgYgVottP7kCqBRQy6TQkriSNXLNjlqJleA1ha0SlQ0re4IJXWrapgrgYVElLdfNELLzuHwqy/h9eImcimwCP65Gr94rP35cswaOwRabzdUXXwLv/nTUShGLMe/v7AKi174b0xbR0Lx4jHs3nkU19LOEYfz2PGhCiGJU7Bi+WIEeVC7aJreuf7qVk26s/3UEWtrJVmP38OG7efRKlXBk3yNGylMWG5GKkrIHcHVtLydIiU0k7C02kQoTj2HGopu4aootLEIn3o/idzue7XjH8ZPn0tsF7n1Jafxm7N/QH3CFKx7bi3ifRyL4mz6dPz1V3/FOXKhmPfsS7g30PEVt5uqsHfL31C4peRG5dQMuZsabm7kTsD8pqnYzXoUZ5ehiYlecpmQyWRQqt0EFwVWpO4qNJRexZGDmfQoFYrHn/4XLE0Kdeyk/5tqDuP5J/6GhoixWPP8s5g2xNuldbv9hO/4DQvVRkGBHeLUxgQpvSdfa5u+FrbaAljrS2Bjr4ZS2HTVsJNbDdtPUyfCi7mFtL0X/mVF8J2hV5sPDf0r9gqGPXaeIHCPXa5jgUeEe8XhLu6Iec3es0WHjn/pPYs77NwmpQHw1EgR4K1AsK8CgT4Kei+n74sc7m70fab9LKY0+5cJaGHxIi+cACfACfzACXCROyBvAJre113Fh+/sQ61NhQTy9azLPot96Q04v20nyiW+mPPQSsycqqJp81BIfLUICAhAAFkIU3a9gvf2VGHMUz/F7+aPJNHXlz92NhhqyLr3j7/BHDkB86aMRVyoL+T0w3rTq9C0eO7pjfjjn7ejhES4TOOL8PB4RMUlYsrsmRg/NBQqp5XKbijCvo8Pos7ujaXjExHiR7FbyRjpHRiFyffSa8lDKL56BoeOnEBqZh6KLu7CH099g7BJK/HzFx/FiMD+jdVqo3iyzeQCIvKLxNKH1sN956+woSwWDzz3BGYlBbWL0I63la3pCt7+6z+R2ijHveSusCSis89x27EiqQKeZPl0VcQyJVQq1Q1LLi3MYw4KYimJUKWK9jlFro14MXFEDz0yYbtT5IqV9HDTRYSL1Bi94ml6MT1GPrwNZUimBXt/KygisUeCTR2ExBHjMXrqLEweEw9P5ltt1WP/az/BxXom6AxoEslIJJMVXRBVdrRU16KJ3ml83eCr9YKafH9vem+46mw/bmP9BFlcbcz6qq+DraWeRCwJ2LpCWOuKYGusgK2pko5h/hp9V9qcTZgLkvCeaWDnv853zou1Hdn92rVNZuSVtXbb4UauQ1oSvey7EuKnQHigCt4amWD9dafx9yARrCQr8R0vwOx2Rb6BE+AEOIHBQYCL3AE6TnZTPapayWJk0yPjzHZ6tTVUhhCaql86aRj8AjRY/2apYgAAIABJREFU80Riew/s5nqUh/qQECqBTm/uOXwWWZZsNIVqFct6KYKtKL14FAVGEyyHTiLlzFTcs3AB5k8fDS39qPb4I0pRH4LiZ2PBwmaUNpXhQk4rCSAtvJRGZJ3dT68bg2DT5+KbPEo6oLahNPMMtlRdcjlCdrk3gvy9UWsMxvQED6jCYxDgRaEl+lNRMcumVyhmkTD0nS5FUrwP9n5NzbMYUV9eigKNwaXV0t5SiWaKrMCY15cXocDm+msnUXkikh4A3F0s6mvKPok9e4rbRa6+9jqYR2xrSTZOHPwGue4OMWmjh4RC8rE10WK5tEPfQO7jdFcwNyCNYg/THdWtsEQPDcVp2PflZmw9mgpryAgMqUvG9foCHNqdj+OnLuHa6rVYPn8yvEq+wecHC511NCK3rrPoMpSWkqsEjbenhiyMriM7dGtAf25g9zoJWlt9MQnZIlhJyNtoISMTsrYGstA2kV+Gubtw7M8m9XXdeoNNEL9tApg9b7irpbQQUgZfTxkCyfobRNbfYBLBoRS1I9BHLrhI8MIJcAKcwPedgOtf2+97rwd8/8hXz2sEVq1cjZF6Edzd1bAXn8JHey7CoA7HrEWLMFTLrGddOkIr55VKHzBbYFO1UZg9tdFUeYuuAbXVFCO3sADFxcUoLixDPfm5jn36d1gVr+qFLpQgYMQMzAo2YsdXx1FMcWw/LcrEmZNTsf75J2ia3c1laCzWTo/goVi2PgzGwu1I+Q1l0zqSj/M3GwcSIhcOfIULNzuG9kkTnsfjz90DqV0Bd7JosTi5/VpIsHtFJWJ6lAjWlmrHpYwlOLTjI5wWIlt0L8xdoampGRZyKzn1yVtI6dFdIQ6rfhKPEI/uX8vGqzvxbv6NOL028vkUbI20MHHbR+mC9VYoNOWubzXCRtc6+em7uNjmZ0A3g8nYQkvZfDo10G43oeT8Drz1wQ6kF5RBNXwJXnxoDnLeIZFrjsfK+0fg2jfbsffjt8h3mnzA5WkoMkkoiocXRMY65F9rhHURjQOrlcRybQZzh1BCq/SnGL23sPB3akkffqC+WhsrYS1Ohrn4Mmw1efSsSDGFW8h6ayA7M3M3+B4X5iXRpLcIr/xyh4BX0D3HhK8XPYz60cNgdJCKZmHcMCTcDd7ud8sz/3sMnXeNE+AEBiSB7r+mA7KZP7xGiSTemLj0AYwn2WbTF+CLv+2DyaygiAqrsWxqBJixz0KipcVgJN9WM8WLJTFLP+xFxc0CrJJ97+Ol82+jskZH4spGYpdebApaLCHfXQn55FLg/4IW2HslcinBQHAsZj+yBPfMmIqP3/sAJ67V4NrZ7fjvnAuYvfIZrJo3CkFe6huiS2gNiR0J+d6SZUmmJIsjhT/ziRyLB58kX1JNm0WJFlmVZ+F8SiaaxP4YOWUSIl2IPcedYKEsXQfx+db9qGSxgd1pWryr4O/HW4a1v1OR+WPc7LmUNtm1/6ldX4g9Xx9GUasMIxc+iPFa16KCuXEMC+i4j/wrFWp4+fggInYlnlkcd8dRCuymBiSf2InDFwxQC47LFNmiIQ87P3wdmw9notnmiaT5z+LJh5cgWlGPInaI1BPx4+/DA7NHYuNfX8FRcgtRrXgEjy0IhzwqBOc+/QDJyWnkvzsFPvSXhKWevniNpLfSEz7BMSDjcr+WNn9aO1vwRe4FlqpsWPLPwVKUIvjQ2imMHFv01e4r26+tGdiVG812GCmYcw29ckpbcCGzUfDfVVB84+hgNcbEe2IkZeJjAlhNrg1yukeYTzAvnAAnwAkMZgL9/DM0mNF8x20n86dESoLQpMPVo1/jYMo1yCkpwdrHZsOX+deR1az4yCZ8eDgDpTRFXFpFYcE6RlGgqdgKmRY+2hBo3DW0Utvh0+mtDUVYWBhCQ0IQEeXZCytuGw9a1EK+oyEJc/HSb+Mw5uuvsGvfUaSVFuHrd/4XV1PmYvmyezFnXCzULN6ry0KxWT20SBg9GkkkcplYMTYUYM+hCzh+NAXypLVYTD6dyjYrZKc6RPAKi4JHfTZIM4O8J7/7ovDFUPJdnTYi0LW7QrMXUo6dQZldjtgJ0zAtzLXIFTpibYLe4A43BbPaShCYNBUPPRcKk1sggry/RaQCuw+mL3wYCZNtNPZewqXEND4ikRwe4SNwz4IH8eCCMXAnd5FT5yn+rXccxpHFOoBiE/uFT8TT//prxKTUYNT0aYikpBjG4jPIP0pRFdJPIbXhaczyk5ArQCZSqpsh9yT/cEoqIe821dA3Q8WScNj1zJe2GJaK6yRqL8FCFlt7M3Pg6GdLft904TuvhcVCZi/yasHlbJ3wYh4MTPAmRrmTlVeNIPLvDSYfcWYB7qeh/M458AZwApzA95sAF7kDeHyZ+KvOPY0vtx+lKeIwrF63DqO9nAt5SD8aylJw5nIJvP21iE2MhVbrD42lDmkXzqCwSYuVz/4EY8K08Pb2oqgKGprCzcaxY5kIGzYKSeFeLlMD3zYO+tVTeIVj7pqnEZeQgK1fbMHBcwUU6msn3ijIRtF9D2DxkhmI8Lz1wiOroQ5ntn6IrccuU6QCQFV8HG+9crqHpogx7ad/xewe9n4nm1sLsf+rDbhyxLXrh91Uh+sshJiZQohtfB15Peb0pdaLPDF12QrMHRMDhciGpkKKZPD1fhS19JV4c8P0gChEe6shcYvEwlVPINboi4Rof0hsOpzfvRl//SwViYuewy+emktJP1gEDXqwiBiFZRF2ZpMXBI8iIASBgaGQp2fi8NkqTF+iRU16Gsp0zfAKGImhMX0f0s1G7gbWUgqMV5YJa1UWrJVZQuQDLmz75q5nEz3ZJS3Ci4U0CyQ/XubSEB/mhmERboikBW08jFnfsOa1cAKcwN0hwEXu3eF8R1extpZix7sf4kKBCUMXL8TMaDGuJZ9Afl4ucnKrEDznKbzyMq2gp9XtajULBaWGqOYy3q+5isJUI9RDRmA4WWRYYVPJ2957GRvOVMP3ug2/eeE+RNKK7G9XyKor0yByzDw8HRSGuJ2UFvbrE6iozMSRQ6cwZj6J3FtcgGUDO7v5b/jH9hSo4ubgiSkJNM3dxQJM4dQqrl/A4SMXUGP2wQIN+b468hDcova7tNtqhK6uBhKTkFPZZfEODIM329NSg8qb5VCWUGxjA4tg7CgScitR0wOKRtxHIlekoUgWzsVopmpcvpqOjMJ6nD1ERuTWclpMeFG4fuH189i6sZAehDp0R+qHmQvnID6I/HGVQRgVGYpvlBkoOLgXpbMWI/VSARqabQiZMBPxHsw/+tsXZrW1VmbDnHmQrLUpwsIxFhWBxaHlpf8ImCx2FFUahNeZqw3CIjYWuWHaCG+MjiN3FDaNwgsnwAlwAgOcABe5A3WAKFD/1Q1/wuep1UL61uv7P8RLhzYIcTlZ8CaJNAIvrXkGIyNIcLSrCVpJLiMLWyhZ2FIzkJxWj+UhSpgaS3Hsn/+HfxwrgtRvJObPGo1Az54FWa+RkI+qe9AwLFn/S4xIGo7XP96HuEeew1jnyn5X9bEV/bqKDHz62VvYcqoUkRNW4MF7Y1GUU4/Q4aMQFRIgpPcV2wwozjiFT/ZmQa+KoBBcP8fKKCUtnnNV693dxrKTeQSFI0yWgMeeWocpQ/2+lbBzRKdwuKlIKIud2WyD17BpeDx+ch9OwjN3E4kjRrGJEjdcOI5DySX0maUHboXZJoaKYim3lCTjYKnjxmJJDVr1LTCLKO7y6HGII5ErFikxdMZoBB04i6tFR7B5gwV1VzLQKnLDhPsnwOMO/TmFEF8Ui5aF9mJuCMbkbYLFVhC1bXFo7+4w/+Cv1mKwku8/uUdRWu+L15vgppRgeJQGc8aQmw4tXGPuDDLB9aUvHmt+8Lg5AE6AE+hDAlzk9iHMvq2KMh650aIzCvPl7ukjuBx4ezG3A0ri4O6JgJDhGOVP0+Odflfoh0apRZx/OLxkGcg/cgZ5CfG49PkH+PTwVcj8R9Jir/VYOoWmwu9QhPTUR/YDJ5HRlOaUVfhDwnyIPb1vmpiBZXPLPn8MpzIoPfGch/DE+vnQUai0i7t3YuPGjzFi1nxMHxMNWVMutm/ehmq3JKx6/hGsnDUcMprGHwg/pyLqb+KitRDX2WEqv4KjLM/uHRaRmHwhZ86gdMmOnplbynFo+2HU9pEBt2uzpO7+GDF+LOYtewzDpzYgL3kXtu5KhSxsPB5ZMxdBbm2WOjuaSi/g0w/3oDYgkO4/pxsCjbc8eDIlgtiNy7vScWDrFhLidrjFrsLieJpR6OUAMSHNQntZKzJhzj8PS+4ZCu9FQNsSKnTtAP/8nRCwUNKQRoracJpidp+h1xByY5gw1BPDIjWIIncGT4rewAsnwAlwAgOFABe5A2UkuraDogYEz34IL3jWwss3AH5+fvDz9YaXpzsFdpf2mNFIJFJhyPAQeFMszMKMbXj9VTUKMnKg80zCs889h8VTY9Fy9RzO6xRIGpUIPxIzvRUkXZva6TNZdVXewsT8TYtY5oERc+5HYtw0hAwbBi21wzp7GZ4PjMCB3Z9i215KS3yUtpmtlDwiEisffwoPTI+HhkIhiQaIRc9OK/pTNr+Mv6cx2/q3K2JpIH4xbhqJXIcrgcVQjt0f/xOZtzUrT4uImEMlK8RfcssHGBHUoUmQEfvlieMQ1piDKztK0EJJRu65bwXumz+ufdGg3arDobe/Qr3dHSOmTKSFSbRozSlgRRIPTFmxGFH705FvIjVOUTFmr7wH2h5CpLkiJLgjVFyDmeIAM3cES9lVsuQ6IoS4Op5vGzgE2PPXtUI9sor1QoxqFo5MiNIQ6y585pbdgTNWvCWcwA+VABe5A3bkRVCFTcbyMMdCn67NtNP0bXOzCSoPTWe/SVKsHjFDEOzljazKMqSlUvap6Kl44anHsWQiWXApS9VVSuiw8UAaoue+hF+snwAyGH8nRaoJRuK4EMe1WSzZ6hJcT09GSla1kLTAZmHJMOywUDKF49s/hsiwHMtnj4CP66Rg30kfhIvKgmkB1zJMHBLYnv72dhtjbbyO7Tu+xpWCzmcoPIbg5399DS1d9LONYtPmlJopY5w/pVV2hjKzt2D/y/+JHdVBuPfBdZg/PpgWkZmha6aYsHIvih/cPX6vWO5GswHMJ9sOXd5JnEqjNLZ0d1z++jN8rpFj2ewkeMrJN/fgRmzYlwll9ATcM3cyAtQdfW0pOYZvINzbrM0yXxI6Hi4jTHTjQRZaS+V1GC9+DkvhBUdSBkqqwcvgI8AyG1fUmYRXclYTgsjXf0KCFxZNpFjJ3Hd38A0obzEn8D0iwEXuAB9MG/3wt7bqoW/W4/+zdx5wclVHuv+6p+PknJWzhFDOCSGhQM4mR2ev963x2t61vetnv931GidsAybZYARCZAkECARCQjnnMJIm55yn43S/Oi0JFGZGk3qmu+9Xv+3F6nvvOXX+dXu6um6dqsb6WhRmH8WBPbuw84DsLh9wL57/0z2IVU6qOA1OyWMsPLkHa19dhR3S3Ur5Hsa0yXjgm9+TFrmpPmdYReYKK2tRVVEhxfpTZAd//wHwOOpw+vQR7Nq2GZs270CONLAwhUciPikNi+7/Fu64fg5S3Ll444Xn8Jl462/+cRtWvTYff3jyJ4jspNpZbz2Ox7Z39uwLB/U05fuc7ct+SIxxGDNeSojNGNRmW9+OVPXUmbFj+6eXOLl6g6R+jB579lJxCO1it+M78O6rK/HpgSrM+sHv8W/XjpTUDTGgVEU4aBWHNyxcHNdhGDNmMBpyNuH1//kvHDBdiRvvuEMc37FIjo+SFsyqvev5GnmRMOE+PPXSRHz4+hvYsOcEVv3uR1j90hBMHBGFrMOHUGMegq/d9z1cPUrl4p65WOVUt1Rl4Y3f/gGHXZLnq2oHO07gL79bgUH/8x2MlWYlYRc9IvC2qtJf1XAXH5Zc23ckcrtPuo1JLVtKyBBobJFc+xap0CC1eFdvLsc10xIxf0Kcr+VwpPVMpY6QWSwXQgIkEPAEDLW1teJEBXdby4Cn3GUFVSvSUuzbdRh5xSUoys/GqZNZOFkgDoJENnVGi5QNS8fYsVKUX+JvTqkZmp91CDu3fo51n2xGcZMJSUPHY6jjNI6W5WDn9p2YMXo5BkTL2S0Vsru/Ak7pjjb0ysQuRx67vJQOLvBI3unO91firf11SM4cIzu3MzFi3CTMmyuP0OPO5RtPwCP//jgW7t+ATz7bgeL4uRgq7WKlGWunxF1TiJPNl0YyO3Vxa+cdMOX6nSuv1amxvzypo18ZkuXqtqMi/wS2bfkM77/7AXLrzWLbMVLPtg4OiaAZfUuT8y7K3XXKDwhD6hDoThzCK7/bj88nLMbSxXMxfdKV0u0q9rx2zqK1bKCLGzgR9zw2GouOb8OLTz6NT7JOYtPZIsQxI0dgWKIbNqcHUaYwma0VDZJW8P6Lf8U7UsLOEjcMM6YOQ/nh7cjK/Qj/+4cofOfRmzFteIo41coJd0upr2K483bDefwTidyKcxviXce6dg+E3tnqfmyyteLdL8qxcX81po2Oxcxxsb5SZKrrGoUESIAE/EFANcZSfu05Mfi6BlECjoDXno81Lz6LLVLeSYk+PB7DJszG+LGSipCagtT0TOlDL5G2z9/F9l17cejIYZwqbYIxOh3zbroW14hDE1+6Dr//4yrs/fRNPCWNJX7wyBKE5eeiqLAMHl0GJg3uQXOBHhHzoqWhHCdzm5E5ehoWxLiQOmAQMlITpNtSGCpzj8nrognCpGTV7KsxSqKVWQf2oeh0ARq/qrTVrjbp8+/DQ3PSurVRzV31GX777I52x/7ygHQTyzqyFzHu4i7/aGhtyEJ5pfqReabU27kxVZWBprKT2PzZemzethN7T5ZAF56COTfciKVSmm3amPQvm2V4HRXIqxGPVy9RWulmp9ztlNHX4fs/HI39e7Zjw0cfYMvBT/EPifJvHnMFpsy5BjcvnY3kiHM1jMVJlvSXmsIs7N5zDHWSB63i17EJsfJjqxENpz/BU38olpzc5bjv5gWIbT6EVc/+Dev2SNMIdxJuffh7uGfhQBR+EYXfP7sWRfukTXBjOW655y4sH58Aw4mPJOf2izP5tqo7GUVTBGob3fhkd5VUZqj3dVU7U4YsGtZ22mBrCg4XSwIk0KsElE97vl9riJeWoXV1dZLfyc0evUq6R4PJ49+o4ZgydjwMEwdjysSxGJwu+W2xMYiJlo1nRieOf/oWnnh+M0rKylBT3yKte4Fhc+/EA3cuk45F6YiNkKjtsFtxrzi0z67ciF3vv4Cf7F8Dna0OFVIKyDh6McZHXdSetkc6d+ViL2qLjuC1P+fDdNlNUm2NK+W17C1olBTOjuKg6sq40TOwaPHIzuWJXjSVszBPnLZOOLnuMmxYswLbP+pGxFhykZskFeVCJ1cqGmS9iZ/9ejUKKqrQZHdLKbFr8K2v34mpIzJhOLUG//0fB6C3qs5owrIwB4eqnDBlRiIq7kxOrE6qcsSmj8KC6wZLFYV5mLXuVbz29kac2rcFeVnHkZNVjO/+4E6kOKtx6uAOfLJeUiZyylFdWQMbjJh0wzdw73VTEeMsxtqXn8UaSWMoGTsTjXmf4tknX8GBgnLYdalYKg1HHlg6AdHSHjbu6nvxE50DP3t8LUpPbMbLT2Rhz2Dgn5LyEelSa6RomUBNgwubDtTgwOkGiehG4mtXp/k6qynhJjUt3xlcOwn0HgGz2Qzl156Ty6Yb9t7UHKkrBHSGJNz841/i5rYu8howMC1CNqE3Qiebt6bOmIkbb78R04YmwnCe06i3JmLhfd8XxycBK9duRU5ZEZxSBzUieZK0ir0K0W22zW1rwss7k21f1f67BksEkgYMhjRw64Z40VRdCrvUblU5sxeLzhSJgcMnYUZdLYZmdC8fV42ptwzGnGnT4E4djuToDhxYfQzGTZuDMQPju+xMe5oLsXXbNuRdkH8hmw4zZmBM9BrUR8zALbfehTsWjJXKEupHiTj4KQYU5pxAZePZ0guSD2tJGYrpVy3G7LExkh97lojkxOoNFiSkD8fyh3+OeUtvwXuvrMKGIyUYMn8JEgo/x//+9kl8caoeYZZoJCTKxrGrrsFd994unfJU/q0aZyj++dfTcFt+DqpzD2PFU89jT0ELYqTV7/0PP4yb54yEVe4j36kmKSU1+x48/vUSPLNyD47VFcNR2yyd8dqy0lkd+R9NEZBsK6jIripBtvtEPWZLCsOymUkYJu2EmbOrqVuBiyWBPiHQLRejTzTjJO0TEKcmevyNeOzbyWiSerljBiT4ch8vjWqKk2OKx7Sbv4WRUxZg2+7DqHGYMWTiDEwZmdrG+e1MqTNhxILluGmECxnjhiGyC87xxSPqo4fjqquXIix+DJbdsvTLurAXn9fhv2XTU2XWXqz/bDPK4wdftDFM6vVGZGDR134srw5HuexBQ9Ji/N/HF7d7ns5gQsbkhViYnoHrbr0ek4YnfeVgtnvVhQc8zdlSGi4Gh3J0SJNo6DkxRmTirn/7Oa6Vph8Dk6UF75ebuHQwJMzEww8YUW2T2rLyaEY5ssmDx2LCuCG+EmttiU5K0kVlXIl7fjgUcyWKGzcqHhHeSbhaOpUZB9dLnu+VmDFjCkbJvWRWhf3PG0SNP2DYWGQOHgiDoxaWg27Mv/42zLsi9Uy9ZdHBI08IVM6t49BaJOVsxTfH6LGxWofZ6W6JC1NI4FICLnn8tOlgLQ5mN2KWOLuLpyb6IrtsHXwpK75DAiTQPQI6yV3wqnSFCtltP2jQIKhQL4UE/EVA7cp3q5xPVc9VOm+d263ftfnO5Nx4VFhIRStVLmrXBuiVs1XerEqbcLTqYbZYZBPYxZULLj+NqhPrcDigkFikNbOxW+kbl5+nzTNURY7mRtj1ZomiSXe5TkD0uhtR1WREQozly/NdakPZgdXSxGEnvE1VZ6YS06gUGjVmZ8ZtU78QetM851Fg9nfx57fz5JH9V5siQmiJPV7KkDQr5oyPw6IpCUiJY53dHgPlACSgMQKnTp1CVFQUUlNTfSuXNCjZYk8hgT4koCKKRtlc1jNRtYMlYtvTYXqmhOigh8kaKRUuui+qsoHFKq/uD9H9K4WhKTK6S/rrDFFIjBHvVRx8jzi0jr1vwiEOrrepRtWn+0oXcW5VyToKCXSWQG6pDSVVDuw8Vocb5yTjqknxvsYmzNftLEGeRwIkcDEBOrkXE+G/SYAEOiSg2u+6Tm6CY9dKKQ1W2OG5PEgCXSHgcHlwqqgFv39dIt4Ha3DLvFRfJ7Vws3pKwl9NXWHJc0mABDpR556QSIAESEAR8ErjBnfhAdh3vgK3pCZIz2WCIQG/EdhzogG5JTZfRFfl6w5OtfptLg5MAiQQmgQYyQ1Nu3JVJNB7BNTGssYK6VL2NpxH1kn0tqD3xuZIJNABgWopO7ZmSwWO5zfh5nkpmCHtgk3n2ll3cB0PkQAJkIAiQCeX9wEJkEDbBFRRbdkY5y7YB9vGp9FadkJ2k0lxYgoJ9CEBd6sXx/KaUVxVgP0nG3DbglSkJph9+boUEiABEuiIAJ3cjujwGAlolIC3VVrx1hXBsX81HLtfo3Or0fsgkJZd3+TGRzursP9Ug6+RxOwr4hAtXfsoJEACJNAeAf6FaI8M3w9YAo6GEhzYvhfugRMwZdQAWLoS0ZHoZKujBdVVlWh2eaW6QArSEsPbKHMl59nrpTNYFkqqm9AaZpXmFUMxanBKu13avJ5WNNeVo6peuo/FJiE1Vo0bfNEmr9sJ54kNcO59A+6iQ4BEcykkECgEymqceGZNAbKLW7BcGkmoXF19V/4GBMpCqAcJkIDfCdDJ9TtiTtBrBKRsVXPZQbzyzIvYuL8Io+/5Z4wbrpzczs/g9bqQf3A9Xl7xMcqkkGvKlG/h378+6cISXjJPU8EuvLZqLXYfzUZ1ow0eqSUbk5SOifNuwt23zUeyTHqx++poKMDbT/wBO+qScf3DD2LpRHFyO69aQJzpdTTBvv1lKQu2Bt7G8oDQiUqQwMUEHPID9eNdVciRsmO3zle5ujEwSJ1qCgmQAAmcT4BOLu+HACZwpumD22FHY3UBdq1/B2+t342C0jq4vJEY3WXNpSVuQym2v7sCm4/WwCPXN6Y0SKPcr0R6o8Besg8vPvdXrN1VjqQx83DjDaMRVnEYH27YhbWv/R0eiep+/fbpiPqyM5jKXXUg6/2n8dq2kxiwaBpGDEpBP5fx7TQdtWZV47a1/DTsXzwLV852SU+wd/p6nkgC/UHAJbm6x/Oa8ES5DdfNSsLtV6Ui3NLdBjP9sQLOSQIk4G8CdHL9TZjjd5+AOF/N2Tvw1pq1+GzzDhTVizNmks5c53ulXRnd60bOzlV4Y+cZB7fNS1ubcGDHRnyxswDWK+/HH3/zMJJUq1zvzbhm0rP45s/fxKYdX2DW7PGYOSBcWqrIKOIg1hxfi7+8eRTmzGm4+brrMCzOrJqxBYWo6K3r+Kewb3sRnhpWTggKo1FJHwH1p6DJ1oo3Py/z1ddVubqjpa6uycioLm8REiAB6bhJCCQQuAQ8qNq0Cis/3I6iBhOSh0/HTXdei6RuKSwtbCv3441Vm9DQwfUeWx2Kcw6gqjUac2+ah0Tl4CqRTm3xE6/D7ASgoaACVWV1vkiw+pp1VZ/Ee6s+QLErDNOW3oS5Y6VTU5A4uK3SzMG++QXY1v+eDm4H9wUPBTYB1eFbVV546t18rN9TBac0laCQAAmQACO5vAcCnIARccOm4arFizFz0niMTC7F8VdXo7yL0Vyvqwab334XO4pakZo+DOGmCuTkNV6y9la7A7aSanlfOi3FWy/Iu9WHRWOQOLnIb4RTNq8pFbzuRhz84hN8uq8QpmG34c5rJyE6GPrZSpTcXXpUHNzn4cqW9IRW5yUs+AYJBBMB9XksKLdjxcclqKpz4Y6rJX3BHCxJQ8FEmrqSQPAQoJMbPLbNN6d0AAAgAElEQVTSoKZhyLjzP/DMHQaEW61nisDburoZSuXLOpG/5T28s2EfPFHJWHTfXWjc8lybTq7KMdD5NrC4YHN7fI7sl0FZSXdoVqmqJgvCjCb5H62oOrkTH6xZhwrPYHz7O7dheLThkg1pgWY4VT3BdXoLbJ//BZ7qfPHUGfUKNBtRn+4TqG92453NZVJX1457r0lHZrJ8Xll9oftAeSUJBDEBpisEsfFCXnVxOI1RsYiLjoTZGNat3vVqU1VD4T68+f46nKjSYdSir+P2yYk4l4VwMcOw8HBED86ULimV2HK0RDa4nT1DxrGVH8KOEiA8PR0JSQnwtlRgg2xi+6LEgkl3Pohrhie2UYrs4hn699+ellqpffsOWtb8HJ6qXDq4/WsOzu4nAk754G4+VIvfv56LncfqoBpKUEiABLRHgJFc7dlcUytutUuawjsrseVgBcJHLMP9t09DhP5kuwz0lliMHDsdgz89jSNrXsfb6WbMGpUi+ao52Lh6FU7rYjFj8kSMyDChZMs7eOfzUiSNX447Fl2JSFMAJ+Kq+sB1xdLYYZWUB1sNOFvaZcADJBAqBNRmtGfXFEI1krh6SoL8WGZcJ1Rsy3WQQGcI0MntDCWeE5wEpOpBybZXsWL9ETREjMS9d96E8YlWoKb95eh0FgydsgS3LjqOZz/YhxVP/R6fJUYAtloUldYiY9o9uOu62Yhv2oPH3/gMNdEDcOvyGzA2I7pbkeb2Nem9IyqaraK2tg1/hit3p2Ri2HpvcI5EAgFOoKLOiRWfFKNB0hiun5OECAu/9gLcZFSPBHqNAD/tvYaSAwUSAa/kzzZkf4zfPfcpqlxxmHvzLbhuzgjpViYlYDtSVKVIRGfimm/8J0bP/AJvrl6PU2XNMKWOx913X4vrF4xHjHjJH//1LezMt+GKax7FbQuGwuxqRkVxKQrzC1Hd4kFEYhoGD8xEcnw0jFJqob9ivKo9b2v5STS/8xNp01vM9ISObM9jIUugttGN1z4rRaV0I7xjYSqSY00B+6M0ZI3AhZFAPxCgk9sP0Dmlfwl4JYLbULgfLz/1Ok5U2zFw1o247earkWqVvN4LWj+0rYdOHF2DJRpDpl2PH8vrK5FNbK02ZH/xAd7fcRje1Bm448FrENNchC0frcLzKz5FqZQuCpPrW1tbETFkNh795sNYNHUYIr9sHNH2nP541+uy+xo72D57Ah4pFUYhAS0TcMhn88Ptlaiud+GR6zIxQDakUUiABEKbAJ3c0Lav9lYnj+YdNfn4dNU/8NnRQoQlz8Bdd9+B8UkSuekhDdUYrKn8FNat/RTZtfFY/vB9mBbdiD3vv4ZnV32GpvTpspt7IuKMQF3uDrz9yW68/DcromL/CQtHxfZpcwjl4DqPfgz7VunQJjwoJEACZ5pH7FAb0aSw7t2LpHHEoAjZLNrTvwwkSwIkEKgE6OQGqmWoV7cIeFvtOPTR81i58RgkYIMhY0bB2pCFPbvODSfNG2pOobjiTF6qXdr1bt9hkc1oekQPGolRKdHtf+lJ697jG17F+kMVSFnwCG6dMxiO0oPYuWEzym2Z+NZ3voFbJg+CUVqyuRqmw1T2z/jboUPYf+AYpo2Yheg+7BDhOPAu7Fv+Dm9TZbc48iISCGUC+07WS6c0Nx65NhPjhkS2/5kPZQhcGwlogIAhOzsbvt71FBIIAQIeVwuyt+5Eje3MPZ23aSX+a/NFkRqpC6vSCZTUZK3Gr3/xni/KO/Kbv8YTt05uuwyYXFOfvQ5/fWkfXJnzcP/NSzAgyoC844U4fKoFhnFLMG9UBkw+R1YHU/RAzLlhIl7atwVZVYWodcxEdLifI0byOVYteu1SQcG++Tkp4ytePoUESOASAh4pDX0ivxl/fCMP371lICaPkB+3rKV7CSe+QQLBRqCxsRHNzc1fqm0YNmwY6urqUFFREWxrob4kcCkBvRFpUgJsenT7P9w8jnoU5GajosENc8wAjBuZLHVxdZKjF31e54fzh5buYPWn8M7zK1FoTsDSZcswY4zUxJUtbA57NaQ6EWJSo2E2nFeeSB6BmmITES7Nf+12F9zu9vW5dBHdeEdVUGiuhn37y3Dse4sObjcQ8hLtESitduBPb+bhX+4YjAnDo2DwNYKhkAAJBCuBqKgopKamfqk+0xWC1ZLUu00CemMkZjz4E1zZgVPpqjyMl5//Ez7cW4vYkTfjBz+eBxVkNVij0FYTUNW698Ana/DhsXqkjbsd1y6ejBjVulf8Vr3eLA4yUN/oQKvk+X0l4hg31cIuI6ZZTDD6udWv19EI+7aX4GQN3DbvC75JAu0RqJK8pufeK8T9SzMwY2yMfFbp6LbHiu+TQLARoJMbbBajvh0S0ElurTU6DlINtx2RfNnWGFjP1soMk+YPCfHxsLaXSSCVGuqyduCDj7eiwZUg1RRux6gEoy+9wSsObExMKjJigNJje1HYtATJkZFn5vU6pArDEbj0sRiekIZYc3sTtKNmV96WVArbF89LJ7O3pckDa+B2BR3PJQFFoLDSjhc/KvJtDp05NhZhfZg/TwuQAAn4jwB/svqPLUcOcgIqV91Rn4cP3n8DW/PdGHv3Y7hVfQGe3Y2tqt8mDRmJaVeNhrlpO37z21ew/ehJnDp1DFtW/R5//KIOCVdMxbQZkxHlj0+aSlGw1aPlk99LJ7PX6OAG+f1G9fuPgNqWUlLlwBOSuvDFoRrJ2fdzelH/LZUzk4CmCDCSqylzc7FdI+DB6a3vYd3neYgedyO+fu1oGM8vN6Tq6UYNxKLl96CqegU+2P4mfvr9NySvV8JBHr2kNszBrV+7G7MGh/d+4Xnl4LbUSIrCP8606fV02OKia8vm2SSgUQJNtlY8/34hrKYwTB0dIzm6fnwCo1HGXDYJ9CUBOrl9SZtz9ZyAKRP3/uAHqPMakD52JKS/Q5clLDITV930DQycbkNE+ghIWdu2RdIAzDFDcMMj30WaRGSHq/a+F4suDHEjZ+HebydixLQjKCyvgUN0i45LxsiJM3DlsCTpstb7X5ReZ4vPwXVKqTA4v9pJerF6/DcJkEDXCKjuaCp1QeUkTRNHN8wPn9+uacSzSYAEukuATm53yfG6fiGgMyRi/g039GBuHfTWRFwx7RpccblRdAYMmXk9Bsu3nV5yfVUntLZEJ+dFZ4zBorQRcDpd8Hj1MJiMMMiXY3vXtDVOZ99TaRT2na/AsfdNwMUc3M5y43kk0FkChRV2/OOjYoSbw3DFUNbR7Sw3nkcCgUbAH5mCgbZG6kMC3SKgHNQwgwEGQ5ivhmY7Pu6XY+v0BpgtVlitZhilFJFfHFzZWObYscLXyYwObrfMyotI4LIEVI5uXpkNv1+ViyM5Tawlf1liPIEEApMAndzAtAu1IoFLCJxp1bvOF8WF23HJcb5BAiTQuwQq6px4Zk0BThe39O7AHI0ESKBPCNDJ7RPMnIQEekbA62mFK2e75OG+CG8jG7f0jCavJoHOE8iXiO6Kj0tQUM7UoM5T45kkEBgE6OQGhh2oBQl0SKC14hRs638PT01Bh+fxIAmQQO8SUD1e9p9qwJsby1BV72TqQu/i5Wgk4FcCdHL9ipeDk0DvEHDl7IBXauJSSIAE+p6AW+rmfra3Gqs+K4UqM0YhARIIDgJ0coPDTtRSowRKquy+x6SmKV+DZc4j0MWkaZQEl00C/UtAbUb7eFcVPtxRCZfb07/KcHYSIIFOEaCT2ylMPIkE+p5AXZML735R7uvCdCDPCfPUr8G68J+gjx/Y98pwRhIgAaiI7urN5di4vwYelcdAIQESCGgCdHID2jxUTqsEVKToE4kard9TjeP5zfjTW/nYcLgF+pGLEXHjrxCWOETQtF23V6vMuG4S6AsCdU1uvCX5uSpP16PCuxQSIIGAJUAnN2BNQ8W0SqBVIkTbDtdhxSclcLjOPBatlFJGf11diNc+r0Jz3DhEfO1PMAybDRjMWsXEdZNAvxEokGYRr31aitwSGzei9ZsVODEJXJ4AndzLM+IZJNBnBFRg6GhuI17+pNj3aPR8aba34h1JX3hpXTEajakIX/YTmMZfB5jC+0w/TkQCJHCGwLH8Jl/FBfW5pJAACQQmATq5gWkXaqVRAsWVdrz5eRnKqttu9qAiuyqN4enVBajWp8K64DuwzLwfCDNqlBiXTQL9Q0D9IN16uBbvb6tkNLd/TMBZSeCyBOjkXhYRTyAB/xPwyjdmQ7NbvjArcOB0o+T6tT+nOrZV0hlUy9GsGiuMMx+Cdcm/QmeNaf8iHiEBEuh1Auppy/tby7HpQA1UmhGFBEggsAjQyQ0se1AbjRJQX4+f76/Gul2Vl6QptIVEfZ8eym7EH17PxZZjLTBMuBXh1/8CYSkjZT8aP9ZtMeN7JOAPArWNbry+oQzH8ppYccEfgDkmCfSAAL8NewCPl5JAbxHIKmjGG/JF6XR1LRpUVOnAs+8X4uM9tdANneeL6BoGTekttTgOCZBAJwjkSy3r97ZUoKbRJakLnbiAp5AACfQJATq5fYKZk5BA+wRU5YRXpJKC+oLsjtRJJOkfshnt7S8kCpw6GeHLfwrD0FndGYrXkAAJdIOAcmx3n6jHp1LyT6UeUUiABAKDAJ3cwLADtdAoAZtDKiZsKsPhnMYeEWhsacVr0nL0hQ+LUR2W7ktdME2+HTBaezQuLyYBEugcAbUp9I3PS6WudRMd3c4h41kk4HcCdHL9jpgTkEDbBNytHmw7UotNB2ulTWjPoz9OGePD7ZX489v5KGyJhvXq70sr4Eehi0xsWwG+SwIk0KsEbA4Pnl9bhNJ2qqP06mQcjARI4LIE9OXl5Whs7FkU6bKz8AQSIIFLCJRUObBWyg/VdjNN4ZIBz76xN6sBT0mJsUPFOpim3+NrBUxHtz1afJ8EepdAbkkL3ttagcYWd+8OzNFIgAQuS8Bms0H5teqlRB8REQGTyXTZC3kCCZBA7xJQjR1OFjb37qBnRzua2yQd0gqw+7QThiuuQ/iSH0EfP8gvc3FQEiCBrwioJypfHKzBvpMNLCvGG4ME+piAwWCA8mvVS4k+MjISZjNbg/axHTidhgl4pP7XZvkSVJtU/FVaU+19KSi34/HXcrFudy28w69GxE3/D4bB0+RTH6Zh+lw6CfifgCor9rb8iFXNXSgkQAJ9R8BoNEL5teqlhDm5fceeM5GAj4AqN7RSNon1RfF4tbHtyXcK8O6WKtRHjUb4tT+HaewS+eQbaA0SIAE/EjglT2lU2kJffM79uAwOTQJBTYBOblCbj8oHG4EmmxsfS1vevo7wvL6h1FemrMybAsvix2CadDNgCg82fNSXBIKKwGd7q3tcOSWoFkxlSSDACNDJDTCDUJ3QJaDqZ6quSKrffW9UU+gKKbvTgw37qvHUO/modEnlhQXfgWXm/dBZoroyDM8lARLoAgH1uVNNXnp7c2kXVOCpJKBpAnRyNW1+Lr4vCVRI0we12ayqvntNH3qqq9oQs/9UI3709Ank1FlgnPV1hC/7CfSxGT0dmteTAAm0Q+BoXqOkLZRD1dGlkAAJ9C0BOrl9y5uzaZjA5/tqcCi7/8v1KSf7v/6Rja3HGtE6crl0SPt3hKWMEsvoNGwdLp0E/ENAter+QmphH81tlI2mPa+H7R8tOSoJhCYBOrmhaVeuKsAI5JXZpCZuRcD0tS+vdeLvHxThA2ke4c6cgfClP5ZWwDNYeSHA7huqExoEVHMI9SO32dYaGgviKkggSAjQyQ0SQ1HN4CWgOput3lyOml5u+tBTIip9Qm1Ie/njUugzJvgcXePIBRLQZYmxnrLl9SRwPgEVwN0q3Q2P5/unLjZpkwAJtE2ATm7bXPguCfQKAVUTd+vhOuw6Xh8wUdzzF9YkkSVV5ui/Xs1DpT4D1pv+B+bpdwPmM4W0ewUCByEBEoBq+fvih0VosTOay9uBBPqKAJ3cviLNeTRJoLrBhU0HagJ6d7VqSLHjaB3+8nYeTpW5Yb7qe7DMfgS66BRN2oyLJgF/ESiosPlKCKofvxQSIAH/E6CT63/GnEGjBNytXmntWR8Qm80uZwL1OHXfyUb89d0CHMh1wjLtLljF2dXHD7jcpTxOAiTQSQIeKbCgaueqHH0KCZCA/wnQyfU/Y86gUQINzW58tLMSzUH0ePJkUQueFkd383EHjGOXIvy6/4Q+Jl2jFuSySaD3CRRIx0P1dIclxXqfLUckgYsJ0Mm9mAj/TQK9QEBFRpWDm1XQ0guj9e0QJbIT/M9v5+O1z6thT56EyPuegWHITMBg6ltFOBsJhCABlzzh2XyoFifymyRPn2kLIWhiLimACNDJDSBjUJXQIVBV78T63VVBuyAVfX5jYylWfFyMRlOar5au6YrlgJGtgIPWqFQ8YAiUyQ/J7ZIHrzqiUUiABPxHgE6u/9hyZI0SUNGZ9XuqoDadBbOoIvaqju4La4tQpUuVVsDflVbA9wFhxmBeFnUngX4noOK3qkFEcaW933WhAiQQygTo5Iaydbm2PiegHNx82VSy/Ugd1MazYBe1CXzj/mr85Z185DREwjzrQViv/mfAxBJjwW5b6t+/BGqlbvYHOyqZstC/ZuDsIU6ATm6IG5jL61sCTrcXmyRCoxzdUBHpZYG9WQ3431dzsC1LNqRNuQsRN/4K+qRh0jiCf0JCxc5cR98TUBvQsgrYIKLvyXNGrRDgN5RWLM11+p2AiuIWys7pXcfroDaXhJoUVznwpFRe2HCwHrph8xG+5EcwDJwcasvkekigzwg4JCf3Q4nm2hxsENFn0DmRpgjQydWUublYfxJQ6Ql7TzZIFDd08+zqm9z4m+Tort5WDVf6VFiX/QSGoVJ5gUICJNBlAiod6EhuE04WMprbZXi8gAQ6QYBObicg8RQS6AyBxpZWfLqnGq0h3s2oXur/rlxfghWflKDBMlgqL/wUpitvlA1pLDHWmfuE55DA+QQqah3YdaJeKi0wmss7gwR6mwCd3N4myvE0S2DL4VoUaWS3tCp9tHpzBf7wei5K3UmwLvlXWOY+Cl1EvGbtz4WTQHcIqJz33cfrkVdq4ya07gDkNSTQAQE6uR3A4SES6CyBJptborjBWxe3s+u8+DyVnvGXdwpwtFQH08wHpMzYd6CLTLz4NP6bBEigAwKqlNiB7MaQqMjSwTJ5iAT6nACd3D5HzglDkcA+cfa0EsW92H5Hchrx9OoC7M12wHDlzQhf/Bj0CYMvPo3/JgESaIeAynD6fF8NmmxMWWgHEd8mgW4R0Lvdbng87LrSLXq8iASEgIrifi61ZO0ObX6O1Be0etT6u1W5ZyovjLoG4df9HGGZE1hijJ8QEugkgcIKG3Yeq+vk2TyNBEigLQKqypHya9VLib64uBh1dfxgtQWL75HA5QioD9Qhecx4uqgFoVc07HKrv/C42nj3xBt5eGdLFZriJyDipv8H4+ir5a+MoWsD8WwS0CAB+VPi6zDIcmIaND6X3GsEmpubofxa9VKiHzRoEOLjuVmk1whzIE0RsMkGLPW4vibIW/j2ltFUVPf1DaW+ygsV3hTZkPZjmCbcIB3SwntrCo5DAiFLoKTK7vvRTCEBEugegcjISCi/Vr2UMCe3exx5FQn4CFTUOnEopwkhXjWsS9a2SdrGZ3ur8LQ0jqhyx8B61fdgmX4vdJboLo3Dk0lAawRU1ZLtR1VLcG2mPmnN3lyv/wnQyfU/Y84QogRUPdzjeU3ILW0J0RV2f1lOl2qMUY+fvXAShU0RMM5+FNZrHoMuKrn7g/JKEghxAurHcpY0hsgpCZ224CFuMi4vwAnQyQ1wA1G9wCWgWnJukA1n3LfZto1UjmFxpQO/fOkUtme1wDPmBoRf/x/QJw2XDWm6ti/iuySgcQKl0j5bpSyoDooUEiCBnhGgk9szfrxawwTyy23Iymc7zsvdAqXVTl8r4I92VMIzYCbCVSvgQdO4Ie1y4HhckwQcLsnzz21EbaNLk+vnokmgNwnQye1NmhxLUwQ2HaiBi9GWTtm8XHKXV8mGtFfXl0GfOQnhS38M44j5LDHWKXo8SWsEjufJDnHZhKaqt1BIgAS6T4BObvfZ8UoNE6hvcvlacVI6T0CVGFuzpQK/e70AteYBCL/xVzBPvg0wWjs/CM8kAQ0QaGhxY6dsQHO56eRqwNxcoh8J0Mn1I1wOHboEVDvb+uYzxaZDd5W9vzIV+d50sAZ/fqsApyt1MC/6ASxzHuGGtN5HzRGDnMBO+RGtShRSSIAEuk+ATm732fFKjRJwSs6c2hhic7IFZ3duAfUEdveJevx1TQEO5bulvNjdsC74LvRxA7ozHK8hgZAkUFbtkCoLrNwSksblovqMAJ3cPkPNiUKFQInsfs6VNrasqtAzi56QTXvPiKO7JcsJ4xXLEX7tz6GPSevZoLyaBEKEgEpU2Ha4NkRWw2WQQP8QoJPbP9w5a5AS8EgY8kRBE4qkzzyl5wQKKuz4y9sFeGtLDZxpUxB511+k8sJUIMzY88E5AgkEOYE9WQ2ok/x/CgmQQPcI0MntHjdepVECzbZWZBU0o0W6elF6h0CjbLJ5RdoAv/ppKZrCByH8up/DNG4ZN6T1Dl6OEsQE1Gdj/6mGIF4BVSeB/iVAJ7d/+XP2ICOgaleeLGJt3N42m9pFvnpzOV5aV4xKXZqvFbB5xj2spdvboDleUBFQef8q/9/l5o/qoDIclQ0YAnRyA8YUVCTQCaialeU1DhTKI3ZK7xNQG9I+3VPty9PNb4mGZdbDsCz4jkR0Lb0/GUckgSAgoPL+88ts8nfHGQTaUkUSCDwCdHIDzybUKEAJtMoXzu6setau9KN9VCvTncfq8d8rsrE7xw3TjPsRIfV09QlD2DjCj9w5dOASKFVVFkpb2BgicE1EzQKYAJ3cADYOVQssAm7xcvdLfVyK/wkUVzrwxzfysOVYEzD8aumQ9iMYMif4f2LOQAIBRqBB6nEXlNuhfgBSSIAEukaATm7XePFsDRNQpcPUi9I3BFSzjWdWF2Dtjio406fDKq2ADUNm9M3knIUEAoSAR3xbVS+XzWcCxCBUI6gI0MkNKnNR2f4koLqcqS8cSt8RqGty49X1pXh9QxlsMSMQvuwnMKrKC/qwvlOCM5FAPxPwOblSSkztC6CQAAl0ngCd3M6z4pkaJtAq3u0e6dJF6XsCLfZWvLmxDL95NQeV+nSEL/+ZtAJ+FDprbN8rwxlJoB8IlNc6fQ1o6OL2A3xOGdQE6OQGtfmofF8RqJAvmYpapir0Fe+25lGR9CfeyEdWuQ6m2Y/AMv+b0EUmtnUq3yOBkCNwUEqJefgoKeTsygX5lwCdXP/y5eghQiC7mA0gAsGUh3Ma8dS7Bdif44Bh0u2wXv3PUnlhcCCoRh1IwK8EDouTqyq8UEiABDpPgE5u51nxTI0SUHlwp4tbYHO0apRA4CxbBbKyJT/xj2/mYptUXjCMXSaVF36CsNQxoqQucBSlJiTQywQq6pyolCdKFBIggc4ToJPbeVY8U6MEGltakV9uY33cALJ/TYMbj6/MwdtbqtGSMhURt/8WxpHz2SEtgGxEVXqXgNpzpp5kUEiABDpPgE5u51nxTI0SUF3OKmtdGl194C5bPbpd9VkpXllfgipvEqzLfwrT+GsBU3jgKk3NSKAHBE7ks6V4D/DxUg0SMBQWFsLtdmtw6VwyCXSOgHpMWN3Ax4Sdo9W3Z9kcHnyyu9r3GPe7tw5E4sLvQx+ZBMfeN+G1s3FH31qDs/mbgOp85nB5YDYyPuVv1hw/OAk0NzdD+bXnRJ+cnIyoqKjgXA21JgE/E1Clw8qlqgILsfsZdA+Gd8qX/i4p7/bLF7NRao86U3nh6u+zxFgPmPLSwCSg/g4VV9oDUzlqRQIBQMBqtUL5teqlRG82m2EwGAJANapAAoFHQNVoLaywSxH2wNONGn1FQNlHFcz/xd9PYccpibqPvxURN/1KKi8Mkf1ojHrxXgkNAurv0emiltBYDFdBAn4goNfrofxa9VLCv/5+gMwhQ4dAi1RUKKlkfdxgsWixtF1+YW0h1u2sgmfgLGkc8e8wDJzMDWnBYkDq2SEBuzy1UJtg2fmsQ0w8SAJfEqCTy5uBBDogoCInxVV8PNgBooA7VFbjxGuyIe21DRXQZU6GdcmPYBwxjxHdgLMUFeoqgdZWLyplj4DdyYK5XWXH87VJgE6uNu3OVXeCgIqWVNW7UNPIygqdwBVQpzRI7uK7m8vx5OpCNEUMgfW6X8B05fVAmCmg9KQyJNBVArVN/JvUVWY8X7sE6ORq1/ZceScInCpsZj5uJzgF4ilqQ9rHu6rxxFsFyK0zwSJNIyxzH2Ur4EA0FnXqNIG6RjdqGvjDu9PAeKKmCXDHmabNz8VfjkBBOVMVLsco0I/vPFaHphY37l+ajvHT75ESY4mwb30RnrqiQFed+pHAJQQaml2o5dOlS7jwDRJoiwAjuW1R4XskIARUQYWiKhtZhACBo3lNePa9Qmw76YZx/HUIv/bfoY9JC4GVcQlaI9Ak+wSUk+tRPa4pJEACHRKgk9shHh7UMgGP7O1gTcrQuQNyS214enU+3t9ZD3fGDGkF/DuEZU5g5YXQMbEmVqL+LpVWO7j5TBPW5iJ7SoBObk8J8vqQJVAhTSDsTkZLQsnAtZLP+MLaIqzaUIaWmFGIuOGXMI1dAhgtobRMriXECZRJq3GblDekkAAJdEyATm7HfHhUwwSK2FkoJK3vljJMb3xehlfWl6BSlwardEczT72LEd2QtHZoLqpaqr6omrkUEiCBjglw41nHfHhUwwTo5Ia28dftqER1vRP3LUnHoDmPQCfRXPuOlwEnO0qFtuWDf3UqJ1dVD6GQAAl0TICR3I758KiGCRSyskJIW98lEd3tR+vw+MpcHJJCC6ZZDyF8mWxIixsg69aF9Nq5uOAmUCe1clVDCHY+C247Unv/E6CT63/GnCFICZ6627AAACAASURBVFRIZyFKaBOQfh/IK7Phv1dkY9cpO3RjlsO67N9kQ9r40F44VxfUBFoliFslTyEoJEACHROgk9sxHx7VKAGn2wPVNYuiDQJNtlb85e08rNtdDZdUXgiXVsCGwdNl8YzoauMOCL5VVtTSyQ0+q1HjviZAJ7eviXO+oCDQKA6ugzlvQWGr3lJSVV545ZMSvLmxDI74MbCKo2scu1g2pIX11hQchwR6jUA5ndxeY8mBQpcAndzQtS1X1gMCNbKxwyXRXIq2CDS2tOJNqbzw21W5qLcMRPjyn8I8837oLNHaAsHVBjyB0iq7r2ENhQRIoH0CrK7QPhse0TCB+ia3OLn8CtHiLaAaSe08Vg+HMw8PXZuJ4fO+A314vK/ygrepSotIuOYAJFCp9gyoP1HMqAlA61ClQCHASG6gWIJ6BBSBeklXoJMbUCbpc2UOZjfiqXfycTDPDuOUu2C96rvQJwzqcz04IQm0RUD9jaKQAAl0TIBObsd8eFSjBBpbxMlVW5gpmiWgKi+cKmrBn97Kx86TzTCNvw7h1/wrwpJHaJYJFx44BNRmSQoJkEDHBOjkdsyHRzVKoNneilapo0ohAbWL/Tev5uDtLbWwZ8xCxJ1/hGHoLHZI463RrwRU5z71d4pCAiTQPgE6ue2z4RENE1B94VtVciaFBISAU/KzX/u0xFd9oUaXhPDrfwHTuCXSQSKcfEig3wg0yBMnCgmQQPsE6OS2z4ZHNEpAdRFS3YSYraDRG6CdZbc4PFi3qxLPrClEjTcO1qv/D8xT72TlhXZ48W3/E1BpVRQSIIH2CdDJbZ8Nj2iUgHoMyL7wGjX+ZZbtdHmxQ1oB//qVHFS6Y2GZ8ygsC74NGBnRvQw6HvYDAVXPm0ICJNA+AX1LSwucTnZOaR8Rj2iNgGoCoSK5FBJoi4DKYjme34yfPX8Su7JboZt0FyJv/V/o4wdKOSfGDdpixvf8Q4AVFvzDlaMGLwG32w3l16qXEn19fT1sNlvwroiak0AvE1DROpYP62WoIThccZUDz75XiI8lhcE7eJavcYRhwERuSAtBWwfqklQKDYUESOArAipoq/xa9VKiT0tLQ0xMDBmRAAmcJaA2nLmZkMv7oRMEymoceHV9Kd7cVAEMmCKtgP8VxuFzJKLLCv2dwMdTekiAXRl7CJCXhxyB8PBwKL9WvZTw2VrImZgL6ikB5eSyelhPKWrn+gbJi3xrYzle+KAUtpgRCL/25zCOXcrUBe3cAv22Uje7MvYbe04cHATY1jc47EQt+5CAqq7gZfmwPiQe/FOpHO73tlagss6B+5ZkYPB1/wFHwmA49r4Bb3NN8C+QKwhIAk430xUC0jBUKmAI0MkNGFNQkUAh4JHvDfq4gWKN4NJj+9F6NLa04sFlGRg7417oI+Jh3/4PqOQFVl0OLlsGg7aqEgyFBEigfQJ0cttnwyMaJeCRSK6HXq5Grd/zZR/JbfJtSLt7cRpmXnkjdDGp8DZUgL2pes6WI1xIwEUnl7cECXRIgE5uh3h4UIsEGMnVotV7d83ZxS346+oCNFyTjoWTZsPkdcDeu1NwNBIAc3J5E5BAxwS48axjPjyqQQKM5GrQ6L28ZPUQuarehSffyccbsimtxWuBPCBgzkIvc9b6cKyuoPU7gOu/HAFGci9HiMc1R8BX/IkVoDRnd38sWFWiWyklxpokTzfCGoZTEuGlkEBvEWClut4iyXFClQCd3FC1LNfVbQJ6vQ56fnt0mx8vvJSAqrwQJs/NWH75UjZ8p/sEjAb+Gu8+PV6pBQJMV9CClbnGLhFQTq5ySCgk0JsE6OD2Jk2OpQgY+YeKNwIJdEiAX+Ud4uFBLRIQHxfK0aWQAAmQQCATYCQ3kK1D3QKBAJ3cQLACdQgoAkxXCChzUBkSIIF2CBgM/ApvBw3fJgEfAX5CeCOQwEUEVD4unwLytiABEgh0AsYwPnEKdBtRv/4lQCe3f/lz9gAkoJdPBdMVAtAwVIkESOACAkZGcnlHkECHBOjkdoiHB7VIwCDRkTDm5GrR9FwzCQQVAZORkdygMhiV7XMCdHL7HDknDHQCJomOmIz8aAS6nagfCWidQKSVVUC1fg9w/R0T4Dd5x3x4VIMElINrMfGjoUHTc8kkEFQEosLDgkpfKksCfU2A3+R9TZzzBTwBtenMKk4uMxYC3lRUkAQ0TSAmwqjp9XPxJHA5AnRyL0eIxzVHQCfVFcItYQjjzmXN2Z4LJoFgIhAdwXSFYLIXde17AnRy+545ZwwCAj4nl6HcILAUVSQB7RKICqeTq13rc+WdIUAntzOUeI7mCCgnV1VZoJAACZBAIBIwS2UFk4F/owLRNtQpcAjQyQ0cW1CTACIQSSc3gKxBVUiABC4mwHzci4nw3yRwKQE6uZcy4TskAPUYkJFc3ggkQAKBSiAuWjadMZAbqOahXgFCgE5ugBiCagQWgbgoI9hNKLBsQm1IgAS+IpAcayIOEiCByxAw5OTkwOPxXOY0HiYBbRGIjTQw301bJudqSSCoCCgnl4HcoDIZle0DAo2NjWhpaflyJsOQIUNQX1+PioqKPpieU5BAcBBQpXnYTSg4bEUtSUCLBNITzVpcNtdMAh0SiIqKQkpKypfn6FVNUAoJkMCFBNTnIimOjwN5X5AACQQmgaQ4OrmBaRlq1d8E1Pf3Od+WObn9bQ3OH7AEkunkBqxtqBgJaJmAajsew0YQWr4FuPZOEqCT20lQPE17BFLo5GrP6FwxCQQBAeXgmo36L6NVQaAyVSSBfiFAJ7dfsHPSYCCQkWgJBjWpIwmQgMYIJMaYYJZoLoUESKBjAvyUdMyHRzVMIDPJwt3LGrY/l04CgUpA7RdQKQsUEiCBjgnwU9IxHx7VMIFYqZUbI6XEKCRAAiQQSARUKpWVTm4gmYS6BCgBOrkBahiq1f8EVOGRgSnW/leEGpAACZDAWQKqE2NyrBkmycmlkAAJdEyAn5KO+fCohgmo4nrDM8I1TIBLJwESCDQCqlFNQoyRm84CzTDUJyAJ0MkNSLNQqUAhMCiVkdxAsQX1IAESAFSjGtV2nEICJHB5AnRyL8+IZ2iYQIZ0FVKPBykkQAIkEAgEYiKMdHIDwRDUISgI0MkNCjNRyf4goDqmRIYboMr1UEiABEggEAjERRmgUhYoJEAClydAJ/fyjHiGhglEWMJk8xnr5Wr4FuDSSSBgCKgGEJnJFhgN/OoOGKNQkYAmwE9KQJuHyvU3AeXkDpAvFQoJkAAJ9DcBVRt3cCo3w/a3HTh/8BCgkxs8tqKm/UBAdRVSnc9MBubl9gN+TkkCJHAeAYtZObncDMubggQ6S4BObmdJ8TxNEtBLXm5KvAnx0dzNrMkbgIsmgQAikCT7A1QjCAoJkEDnCNDJ7RwnnqVhAqnxZiTF8otFw7cAl04CAUFg7JBI6PV8qhQQxqASQUGATm5QmIlK9ieBBImeJNLJ7U8TcG4SIAEhMHpgJDmQAAl0gQCd3C7A4qnaJODb0ZwkeblGRlC0eQdw1STQ/wTCJII7IpObzvrfEtQgmAjQyQ0ma1HXfiMwIjMC4eawfpufE5MACWibwNB0K6KlbjeFBEig8wTo5HaeFc/UMIGRAyIQE8nNZxq+Bbh0EuhXApNHRkNFcykkQAKdJ0Ant/OseKaGCcRIv/jhGXxUqOFbgEsngX4joEoYjhmsNp31mwqcmASCkgA/MkFpNirdHwQmjYjuj2k5JwmQgMYJpCWakRpnhmo1TiEBEug8ATq5nWfFMzVOYJI8LmRTCI3fBFw+CfQDAZUuFRfFdKl+QM8pg5yAvr6+HjabLciXQfVJwP8EoqxhGD0owv8TcQYSIAESOEtA/bAelh6OSPn7QyEBEuiYgNPphPJr1UuJ3uVywePxdHwVj5IACfiKsE8YxpQF3gokQAJ9RyBe6nQPSLayCUTfIedMQUzA6/VC+bXqpUSfmJiIiAhGp4LYplS9jwiojc1jZfOH1cQsnz5CzmlIQPMEUqQRzcBki+Y5EAAJdIaA2WyG8mvVSwm/rTtDjeeQgBBQmz7SEsxMWeDdQAIk0CcEjGerKiTEMB+3T4BzkpAjQCc35EzKBfmTQKxs/lClfML4yfEnZo5NAiQgBMItYZgiG15ZVYG3Awl0jwC/qrvHjVdplIBq8Ts8gzudNWp+LpsE+pRAipQNG85Wvn3KnJOFFgE6uaFlT66mDwio9poqbYFCAiRAAv4kMGVUNCwmVlXwJ2OOHdoE6OSGtn25Oj8QSJaNIGoDmjGMhdn9gJdDkgAJCAGVj7twYjxZkAAJ9IAAndwewOOl2iSg8uNU9zOVL0chARIgAX8QGCUNIBLlBzWFBEig+wTo5HafHa/UMAHVgYgpCxq+Abh0EvAzgZnjYiWay69oP2Pm8CFOgJ+gEDcwl+cfAlZzGOaOj/PP4ByVBEhA0wRS48+kRLGKi6ZvAy6+FwjQye0FiBxCmwQWTo5HTIRBm4vnqkmABPxCQLKhMHlkDAYkWVg6zC+EOaiWCNDJ1ZK1udZeJRBpNWDWFbG9OiYHIwES0DaB6HADxg2JRIT8faGQAAn0jACd3J7x49UaJmCQ3c/Tx8Qi3MyPkYZvAy6dBHqVQHqi2Ve9RUV0KSRAAj0jwG/nnvHj1RomoJdvocGpVowcGKlhClw6CZBAbxEwSFnC8cOioMoUUkiABHpOgE5uzxlyBA0TSI4zQRVsNxkZdtHwbcClk0CvEIgKD8PCSfHQ6/n3pFeAchDNE6CTq/lbgAB6QiBMvoyuHBqF9ARLT4bhtSRAAiQgubhRGJhiJQkSIIFeIkAnt5dAchjtElApC2qjCMv9aPce4MpJoKcEDNJb5tqZSVBpUBQSIIHeIUAnt3c4chQNEzAZ9Vg0OQERFu6G1vBtwKWTQI8ITBgejeEZ4T0agxeTAAlcSIBOLu8IEugFAmNkN/SE4VG9MBKHIAES0BoBq0mPa6aqH8psFa4123O9/iVAJ9e/fDm6hggsl0eNRikrRiEBEiCBrhAYNSgCIzIjuOGsK9B4Lgl0ggCd3E5A4ikk0BkC6lHjOInoUkiABEigswQsEsWdPCIaqlILhQRIoHcJ0MntXZ4cTcMEwuVR4zXTEmFmOTEN3wVcOgl0jUCmtO9VTWUM3LnaNXA8mwQ6QYBObicg8RQS6AwBVU5MVVmYKFEZCgmQAAlcjoBq/jDvyjgMkgotFBIggd4nQCe395lyRA0TSIoxYebYWKj+8xQSIAES6IhAiqQoXD0loaNTeIwESKAHBOjk9gAeLyWBiwmoTkXTx8RgSDojMxez4b9JgAQuJLBkeiIS5YcxhQRIwD8EDNnZ2fB6vf4ZnaOSgAYJxEUZsXxGErIKmmF3ejRIgEsmARK4HIGh8kP4qonxlzuNx0mABLpAoLGxEc3NzV9eoR82bBgSExO7MARPJQES6IiATjoWzRkfh5FSEohCAiRAAhcTMEsDmWXyQ1j9IKaQAAn0HoGoqCgov1a9lDBdoffYciQS+JKA2lBy07xkmFg3l3cFCZDARQRGDgjHRGkeYzTwK5g3Bwn4kwA/Yf6ky7E1TUBVWpgyKkbTDLh4EiCBCwmormazrohDWoKZaEiABPxMgE6unwFzeO0SUBUWbpiTzCLv2r0FuHISuITAaOlutmhyAuviXkKGb5BA7xOgk9v7TDkiCfgIqNzcUQMiMFfyc9nulzcFCZCA1azH7QtSER3BEoO8G0igLwjQye0LypxDswRUF7SFk+KRnmDRLAMunARI4AwBVUN7/LAo4iABEugjAnRy+wg0p9EugSFp4Vg4OR56ftq0exNw5ZonkBBtxE1zU6A6I1JIgAT6hgC/dvuGM2fRMIEwqbRw87wUKGeXQgIkoD0CKl1J5ecPSWOTGO1ZnyvuTwJ0cvuTPufWDAFVF/Ouq9MQYQ3TzJq5UBIgAcnNFwhjB0di9hWxMMnfAQoJkEDfEeAnru9YcyaNE5g4IgrzJ8SBTys1fiNw+ZoioDaZLZmWiPRE5uVryvBcbEAQoJMbEGagElogoOpjXjM1EYP5yFIL5uYaScBHYOroGMwaF8tcXN4PJNAPBOjk9gN0TqlNAqqk2OiBEbhhdjKiwpm2oM27gKvWEoHkOBO+cUMmrGZ+3rVkd641cAjQyQ0cW1ATDRBQju7cK+MwZSQ7oWnA3Fyihgmomrh3LUpDTIRRwxS4dBLoXwJ0cvuXP2fXIIFIqwFfky8/FoTXoPG5ZM0QmCE1cVWaAoUESKD/CNDJ7T/2nFnDBAalWKTzUQo3oWn4HuDSQ5fAwGQLlk1P1MAPWS+83jOv0LUmVxbMBOjkBrP1qHvQElBpC0vkS3DRlARuSAlaK1JxEriUQKTJjQUjXUhLDIPHe+lx8QrhbKpDSUEeCoqr4VbnyHut9iY0O1vR1iVtjHLpWzKGx+OGw26DzWaHy+O59JyuvqN0ratEcUnFGd3OU045t66WehTl5KCqxdV9vbuqU0/OVw55qwstDbWorW+Gq7V9Rt5WGyrLylBV2wiH2xMc6+sJmxC9lg20Q9SwXFbgE4gON+B62YSWV2bDqaKWwFeYGpIACVyWwITEfJz+8GMcPLUc33jwWgxPirjoGjdK93+GF15ZjfLIq/A/jz+CeGcFdn30Pg60JGP+woUYnR6JMPkh3FVpqsjF5x98hlJ3NKbfdD0mp0Z3dYgLzve667B37Ut4dVcVZt/xz7hjbgbOZBiLt+tuxPGtb+GZv29E0rXfxo/vmYMIaXzTGfGKM95cX436FndnTu/iOXpYo+IQG2XxPSnzuJ3i+DtgCI+EUf7trC3GF2+9gt2OcXjg/mUYFG+F1+NEdUUjLHExiDQrt0h+MNTtwdN/fA8YOBE33X4HJqSYuqgHTw8EAnRyA8EK1EGTBFQ0d2i61Vdt4fm1hWhsadUkBy6aBEKFwCBxhKYbt+GJk7mIjK+B29cK4lJptTWiqrQIxYYyOMVf9DhqcGzvNqzZXYY9R07jlttvxaJJg2ARp7HtES4dU73TVFWAz956HYftKYicc1XPnFyvB/W5B7Bh8zYcPxmGqQ9ZccGjX10YzHoP3O5KbHv7Zbw3ajTulHrAnfFzPfZa7P3wGby7u7bthfTk3bAIjJ9/F+69cTwsHhv2rH4B6/IjsPSW2zBtSDTczbU4teMzbGgGbrhtEQbFmdGUtxdvrFyL6pgpeOgbt2CAxYuW7EM4dPQgTI44LDfwoXdPTNKf19Jy/Umfc2uegCFMLw0i4rFAXhQSIIHgJaDKAt4334atG0/AHjEUi+fP8UUJLxUdTIYwyP9JNNQJ9dM2LGoYbv+nH+H+2Sko2Pcxnv3143jpsxNwtnY7eeHSabv4TqutEjs2vY8d2XWInHYrrhlmgq25CU1N6tWMZrsXaeMX4uorhsPYnI8tn29Dcf2545f+t9mXQiHpAj49dBJlFff9bD7vubzeM//1SJS3DIcPHsSh3ArYXJIqcPY89WPg+NHDOHQyG5W2r96/4HoZXS8O+JlpdGjM2Ykv1r2Jv7+9HgV1rosoSMpFQwHWv/8aPty0EweLPZAHbDKfE3mHi+B06ZGcMApDYsK69GOji6h5uh8JMJLrR7gcmgQ6Q8Bs0uPhazN9KQtZhRJeoJAACQQVAYt8hm+dG43IY89ha508oVkwB/Nmj/ZFYi8Vva+9r1H8MK84uZKGC53ZhJi0Mbjr3/6AzDefxMrNTUiIOfO4/dLr++Adbyuyd76P19/ajyblhe9+Hvfd/HyHEx9b90c8KK/2JGr0HHz/xz/H4iEWhIUnYt49/ymvS8/2SgQ5f//7+OUPn4Bjwdfwy29dj9SIM06rp3EXfvTIfyE3dQy+/ov/wULJe+5YLJh272NYlv0rrPvwH3hp9Cj88MqvrvC22rFn7QtYsfoEzCOX4Of/sgwJ4hV5Woqx5UQVnGHhSJs6F/Ft2rHjmXk0MAjQyQ0MO1ALjRNQNTXvX5aOp98pQEm1Q+M0uHwSCB4C8jAG00ZHY1ZKPv6xKgeGqAzMXrgUw6PD4LbZoLNYYTjf15X/bTQaYVCPwB1u2M/tfZJopXh/mLz0fsRcUQGdsRmH9+9HdMY4DEs1910kUZxMW9EOvPLSW8jzxGD0lEkYkRlzYarCOfO4anB47wHkV9sxdM5SjI1t3+m0pA7HAGHypcg8LVWlKKyogfP8/V/CoTS7AGqXgrOiCCckcltpPevkNmWj3uWGq6kRefL+4fiL5tOZkTliGOLOa74RlToaN95/N1wbTmNgbIREkuvPU8ENW6MOAyfMxNUP3IUxyZI/LfM35x9FTnUpPBIR9rQcxdbNWW3ekNEDpuDKIRFts2nzCr7Z1wTo5PY1cc5HAm0QUPm5VwyOwo1zk7FyfQkamJ/bBiW+RQKBRyAzyYo751lQsGkrDhXXIHXWfVgyNQ0GVzk++NuryIq+Ajcsn4/hiVZxVKWKgsuOJocDLvmXy1WET1e/gb3NVSirrEWLbJByyjG7VEhoaZaUAJcJk2/5Kb5/48ALHWW/YZDH97VH8fqL/8CWAvmxHTEYs5Z8DbdfNRRtOQveliw8W12M4oYKTL3rW3hoaPubs3R6PcLCzn/s70LBjnV4/v3NqHZeuCCnrQ7V8pb38Kd4vmQXjGoHmfq3uxmlTXa02nLxwXN/xCa1k+x80SXhwV//CgtTJU3E60J13mnk1bSgVZeCKXMSEWWuwcHDJ1HcJBfZy3H82GkMGT0XC1LsiJXNf1mnzRg7LBJZh7JRUtwMt0uHba88hb3tJHYOufF3+M2QIRfqwH8FFIG27tuAUpDKkIBWCKi0hcVTE1EqkdwPd1TC5astRCEBEghUAuoJzDdvSEd0w06s+Hw7aj2D8eiDi5Fu9qBy2zq8t3E98lx7kHdyJ+Ja61BWXIkmiUS6pVxYfWMr3K3l+GjFyxIJ9Ej5Ly90Oj304gzqxKnTIQxxGSMRb2mVo/4XlSbgrMvGmhdfwrubs8/kzraIM7nit9i9NqLtSHJrI4oKi8Ux92Dd4/+GI5Fte4PGyGRc/dBjuHZk+HkL8cIm5cmK8vPhHrkcSydKOUXfUS9qig9jU8UhuJOGYur00YgWzko8kvu7bt0ONFnjMHLqHAw7Gxn2OKqxf7dskMuzoUHKfZ0ZRjadvfF3PL8r+4JSbh6XU35AqGlOYNVzT0jayFeOcuSIe/DHH47FgaO7UebUY+jM+Rgd/5XOLTWnsW3HSTjDB2Da5NGYMDSybS5nNOD/DwACdHIDwAhUgQTOEYiwhOHea9JRUevE9qN1BEMCJBCgBNRn9b4l6RidXIfVz7yBbQU6jLv7EcxPNcJWcQzvfrhFHuO7MHrJDZiefAir38+DXlIXwsMjEGnVw+6wweU0YuDUhZg8NB1pKSlIS09DSlISYmOi5ByzOLxdq67wFSoHik8ewwF3Rcf0dEYkpmUiLUnajDvqsOWt5/DK2n1oTRmEIc0FyG3RobW1VSLOKu58qXilzqzXI0fkEb9O6s+6ZKNWW+J12VRmRrsyeM4DePSuVJ+Tey4n99jnh+C4cj7ufvDCnNwTmw9ITu4AXHP/o1/m5HpacvCKRHdP5dV8NYfOgPQrJmJWWMrZzW5S87e+ANu3HJEouogxDsNGDkdyUjwkvuCTiPR0FB7eji27JFUBw/Dg9/4F8yVV45yUHfkHjoiT6xg7Hw98736M68s0ki+14P/oCgFDZWUlHPJ4hEICJBAYBKJke+8DSzNQUmVHfrk9MJSiFiRAAl8SMEmS7VWT4n2v2pPv470NuXDrE2Ct3IXXVhxFc9lp7DqUC2fCBNzx4I3iMI5GyoBahMfGISEhHtbmw/jrM3/H3nwDFn3nX/C1tN6ON9Vh3V9/i42XK32lT8RND30XD9w2C+JSw2qNQfLwKzHz7keRsPqH+PPpDCy67Ru4Yc4QX43Zi8XTfAovP/kcNhyvwdxv/Qx3D2s7d1inD0O4bKTrU9GFY/x198pLOc6taCg4hA/fXYFN55QwhiM6MhpDJiySShhXIlHyfl2NhfjHr36PfJ9L1IAS2/meuTjJjcXyLpCUaIZF2rNTAo+A3W6H8mvPicFsNvt+qVFIgAQCh8BAaft79+J0PPdeIWoaLy57Ezh6UhMS0BoBVflq7OBI3Dw3BTERBqgn35KBIFKNXevfw64vgcRg3n13Y2aaakIwWTZEfUWqta4CMZEW6LzNaGpWXc4MbUdKpWuZ2y1RVIMJhrN5qZ3lLV/usJou44jpLbIB7kyebJg5BpOufQQ/muZA2qAUbJE+COLVIe/YfmzzFrdZ/9ZrL0VBTbP4EG6piLANW0vPtIq4WEe9ORIjZyzE2KS2c3aLtq3Eiy2xZzdweVFbchzKTWk9shWvr6hE1NlQq8degPxmu/yIKML6lS8i92x6hNdZjYPHyqQc26XjqwoKhYc+wxuvvo4Nh0qQNmkhovI/x5GaImzbWIDdB7JwuvB23HvrQmC7lBLbfy4aXIucKge8Yrcz/r1sSCssgVPmSIqLQvjZFIqL18p/9y8Blfet/NpzYoiOjpZcIA8aGtTvEwoJkEAgEFAb0WaOi0Vdk0s2opXKRrQOnvUFgsLUgQQ0QiAzyYJv3DAAGUkStZTPaeKI6/Djnw1AiyUG0VEmHH/7N/jb5mqkzL4Rdy+84oIIqKrn6hNDJKIM4dB5GlGZV4W6BCtc9hbUV1eguEgcuYJ85OfmIjunFPphk/GQRHvnD2g7Sto29kTc/tNf4vZRKW0fPveu5ABbrBGwKC9O1mKJS8PIOHXw7E6w1hoc2vERTu1vx1n2SucyqZnbKvsHTqx7HQVthXtlNGN0Mq7LnNOuk1t9ahM+Kv5qDhV51UdFQV99CpvWZ5/3A0CcfoMFZmcTjm/8CFnnosuiR4vU8PUi8ezKpB6vdFWzNdVg17vP4G9v70KVW4/h1/4f/HBpCtb8rzi53pl47DuT8MWLL0ozi6eQdfIoOmCxTAAAIABJREFU5kSehF2c/SST1VerN/tgNVpnpp/Z9Ccb2cqkdi500RgYmYho8efbCG53zJtH/U5AVS5Rfu05aefO9bsenIAESKADAipaZJZamkunJ6HJ1oq3NpbBfkGdnQ4u5iESIAG/EEiOM+Gfbh0knQq/2oxkjkrDjMVp8kxcHomfXodndlUjPG0CvnbTYmnpa/G1lW2sqUC1r1FCIxrEKWypzkF+WSPcjhZs/Mtj2Cmb0uqbnWdzR6WZgURuwyOjxGmOQpwpCjpHV5+2hiEiOlZSIxK6xEE57T45t+fVlIxZy2+WhjVnHb2LRvO2FGDtW2uwL78BU+/+PpYONLXp+OmNVmRKfdwLRY+IxAyMHDMWlqn34c5Zyd0uxeWVSgnbPv8Eu4+3Cq8zCbau6iP4+28exzv7qxAtdXWvvf0+3LNsMkzlh33tfhFmQfroxfjJrwdg1TNPY332MTge/CZ+OLYIYYYGvPnySpQd3Ie61iuQKOkpXqmWsfO0RNVjMpAoOcGWLkbWL1o8/9lHBOjk9hFoTkMC3SGgiszfOCcZNQ0uX8UFCgmQQP8QSJDQ3T2L0iRVQWqpXiKq9FYWVq94E7m6KMxcfANmX5npK7vlrC/B5pVPYu3hClRVVaK64cI8e4/TgZhBozAqKREJ8fGIiYqQ3FgrYpNkI1pKKpJSkpEUf7GDeIkC/nlDb0ZsQgoyMjPbycm1I8pqlGoQesSkZiAzs/1os6e2VBI64hEXHS6pDz4vEyljpmCJKQWeCLOvZFp3I6NejwXDJyxA6sgwDA4/kzJhCI/DoMyBuDJmAZYtX4K5EwZDX/QFXv3wKFzD5uPWoXOQEi3ri56Ce779GEYWAJOnjkWseQbsOR/j44QI+SGyE4dr78VVSZKvW74fR+TvcERGLJIGJLWZvuEfI3DUnhCgk9sTeryWBPqAgNqIdufVqaisd0qk4qtC5n0wNacgARIQAqqSwvWzkzFP2m+rVtwXihceyQnd/sFqrN1dhPghN+HO62YiWXI2dTqpOiCPuWsqcpFfFYaMAeMwafAgpKdL1PL0Rry15RTiB8/Gtx+7C4NjIxERHg6LyY2sTWvxSU4DJs+ei4zItvNc+8QwjhJsXPM3HNrQdvc1r7sFFeUVEpFuxba/P46T0tq4fUc1CrNvugu3L5uKSF+tsFZUHt2G1au/QGWv7X2PxO1jp0g6gTRoCB+EJfd9DxN1iUiX9sp6dyXeX/k6Vm2uxeJ7vo9H7pyFGInQquh1zMDxuHrgGaK+p2jp0rgiNgX7ikqxY1c55l2bjKIde1Ar2yMyEjMxLL2ffnT0idFDaxI6uaFlT64mRAkkx5rw0LIMOCRl4UhO4wV1H0N0yVwWCQQEAVVJYdkMqUIgjVospks7enncdpzY9B5ee+dzVNojcdMNM+DO24m1G3Nw6vRJlDTH4IbvPo/Xogy+TV5hYfJfcZRtR5vw8f5c2MNs8Mpj+5S4MMl4cCB/1zqskDzRPVVWVIePwP+9d2ybUdS+gWNAVFQ8UlOjzzzib2PStMyhbbzbxlv6SImahp+XkqBHVMZwTJzmRIOrl2qC6yIxUIICSjwtp/CupFIcLar3ZV94Wkpw7EQ+PK1mHNz8Nn578qMLHXLTYDz43bswIlFq31oHYeH4VHx8SMqobf4IOVNmYf32QjhkDelj5mNAeHdLu7XBhW/5lQCdXL/i5eAk0DsEVLRhiOQBPrA0HS+sLUJWYbMqTUkhARLwIwGDNAqYL9FbVbvael6r2POndNYVY+vbr+FEndocWo81j/8Ea86eoJcNTCMn3owBiXGI9e3u+krCho5FhsUsj8MrZZNZA2bEhKNg7zo899Sz2FVhxZAZt+CbNw3vJwdXj9QJczE3JQ3XXH8jZo/rfr6sWrH6+/Vlvq/82yM1dR12JyJHTMOt8updkU1oNtnb52pGWUkxCgqqYW+qR02t5EDDgpTMRJgcVSiU9AQlrY5mVFfWiAPbgJsevs33nk5nwvDFc5D23l7kZm/FymfzkZNXDEvMCMy4agTM53KXe1dxjuYHAnRy/QCVQ5KAPwior0hVuuih5Rl48p0CFFWyhq4/OHNMElAEVFbCnCti8YA8QWnPwfWdZzAjKiEcRonuJYtTmJEhUdnkBIlaSvpBVCwGDbsS6ZdWtoIuYhSmp1nw/9s7D+iorixd/5VLpSrlnBGKgDBBIJJMDgZswAQbG7txZhye7WVPT7/Ub6ZnPNN2r+5xu9s2ju3YtAPBNhkbhMAmB5EESChgJZRTlSrX2+dKAgFCCFkSUmkf1l1IVfee8J2rqv/us8/eh09XouD4YRyuqcS6Tz7DgUseSJywAKseX4CI2+WqQFEXhI9tOGVwOPPjBjp+yT2hw7hlyzCijV9xQ/lZrPtsKyp/SbUdXKsJScD0GelY9NBTmFJXgSM71uDr7WfhPXI+nn94EmiqmgttFiw6sREffbwLioRE+Opa3RBkUAVPxMJRX+C1HQXYnVEgnT+IfK3Hh5EPcgdt81t9iwCL3L41H9wbJtAhAWENSRlswJP3ROLPXxXQJhaOodshMH6TCXSBgNg4PzbZR8poFuDdsU+sklLWTn3i35FYr4BeT6HBDF7Qe3pQrM7m2LZtLZhtuyKTeyN1SjRw7Cj2b/4AWa5GlNc7EH/ng3j2sXlIomxaJ774CCWDJtImtliyBFMs3V5TVy5czPwKX+xvCSXWBYZXLvGD1+wFV4lcc2MpDu7egQudqF6EE7O3pOoVSSUU9PTRMQYZvJJsSEmfjSHxyTDkVWDt6YuwKKNw35K5GDdi0OXr7U1lOPrpCdTKgzF7RhpCva742soUBoxZuAhxma8jV/gMK2Jwz73j4N0mDfAvwsIX9woBFrm9gpkbYQLdR0BO33SjErzw3OJoKVlEaRUFLO++6rkmJjCgCbQK3CcpFm6wH4XEupmyVKgRFJ2CIJJO4lQRC1fEaLXSMnijiWLf1jdC4eGH0BDf5nirgi6d47CaIQtNhj8OoarqEhoozu7YZS/jpRUT4U+CFg7azLZ1AzY0HEH1qhdx/4zB6Fhu98C0qcJwz8OP4O70BKg7VpbXNe5syMVXf38Hm3+6PsZ3YOxU/OmLiZQ6t7XQ5j2bGTWlOTh8wYUxE1LgKzbu0dt20yV8/MJjWG8ajedeehozRgTB2VSDgovFgJ4s58G+0Kqu3vAmxLBaSgjgQu3Fk6i0aeEhL8MXr/wrah9+FHdNSEaQzoIjn/4ea040InryfZhLWc9a3HmlTrlE7F3ye6CMxs1F6UFhwxy0H8LVEh2ite/8f18mwCK3L88O940J3ICAgr6JRyd641dznPhoa7EkdLkwASbwywgIUSVWSlYtJIHreyVrUke1imtcTgfMpnpUU4iw0tJSlFdQUof8HGSfOYUThU5Mf+DXeOHh0VCSQBIb1covnkXW/h/w1RffU1it5qKOmY3HFo+j9LLNUtZlLUNetQ0ugw4evv4UcOs2FIolGxAQhqioqC6IXCN8vAXD60WuXKGCh2erZKdMYpX5yNq7AxvWb0NWkQW56r/i+Zkxku+rDR6gkOHkKEuZrLQe0Ok0KDyRgXde/RCF+mGYe/ccTBw9CvGUpU1HJ177TDLozqfw+7jJyNiyHT8dOYYtq3+HH9bGICnYiTM5P8MweBruX7wIif7igaaZsctpRfnZTLz/+icodCmofQWclmy8/frH8HppJcbE+tFrt6j6b8P0cZPkm80QmAAT6J8ExKaY8eQzKCwL75BFt7bx+i+T/jky7jUT6H0CQrLcEWfAY/MjOi1wJUthYSa+2Xwcl2qqUV5WgoLCi6hqaF6HV+gDkTxmPIYnh5LAtaO+7Bx2bduCfYeO4WROCcxkxx01KQ3GnP04RyHFvvp+LJ5fMgo6EnX26rMoIvHsTbv9g0JkKCvIQY2po/V9Fypy89GcBbwJRTnncVpW00mQMvhExiHMq/1kDp2s5BZPE6HX6nHhSCbWbt6OI0dOobJJj7jx05HiK2/eWCvpSDqvdamqRVdqfUMwZFQKSg9mY+17Z/FjxkiMSRuPKVMnY3i071WWVplcCe+IYbjn0XhMmHwI7/3hNezIzcNhKew4JaQg1uaGCjRY9PDWkCRyWVByMgOfvfcB9pVaERAzFnMmheHYju0kirfjzbfleGTlMqQPCYOaPoNZ6t7itPfy6Sxyexk4N8cEupOASinHxBRfOGjd791vL1L631vNjNSdveG6mED/JCAseHeQBfeRuREYFHolm1lnRmOqz8eWrzfgUosQ04cPwYyZYzBiWAItpQdSIgdvoP5nbHjrA+zJOod8WmZvtMrhn5COxx9YgnHJ/jjznRzvfJmBnf94E2r503hkXjJKMo+h3kJRVQyRFBarBN+98R725pZ36JpkNzeiWvoIaMDez9/GKW3nHRxSn/lvPD8+8OohW2pxmkToZlveFVeLzkChc0TIrvP5Iq739TLD5SBLac4BrF/7HfZnnUVhRQM8Q5Kw7NEHMSv9DgwKopS+LerRbvoZOUKQeikhJ4uqTKZEaOJUrHx2CCafPYSvP/4bMs8dwsaCbBzM3ILUWQ9g+d2TEKonH2apr8IVwoTiM/vw3ddbcUrasKtBaFQgjOWXUHk+A+//6Sy2py7Fb56YDnvuNrz31mc4WFBN2ZeHYvlzz2DOEAPSY2T436+tR8nxbXj7tRIUP/YElt8ZT/PFMreTt8RtOe36u++2dIMbZQJMoKsEhNCdMsJPClj/waYiFFeaObxYV2HydQOOgNAo44b6QPjgirS9N/XBvYoQJRKIuBPL7rNAFj+ahC1ZQ308pc1RcsoCJvxq//67l/DpvhLY6UlUpfNGWHwqli5YgbnkF+pH2bmERApa/iiMDRZ8su0ANr39P7HtXUoj67DDpQ1G7LhpCNOYOhS3rV1SasnqG67v2hy259jvqsWxvRuRffDWN70Jv2Rzk4n64ntNf1wo+PFN/OY/N6HCroCBXDEm3rcKjyydihhyEanZ/QcsezYLBm8DPNQOVBYWo5IeCvwiQsl1wkt4PlOGNSX0fmEYNuEeJI68E/f8QEke1u/EmaI8bP7wTygvrcNzj06CtYh8fH/ciR8y9yO/nPqi1CE4ehhWrHoYC9OToTEVYN0Hq7E1q44SdMhxdvtfsPrd7ah0kvU3JA1P/vZlzErwlwR3/JQn8XuFAv/1540oKDqMT/7jOE4u+x3+32PjYODNaF2753rhKha5vQCZm2ACPU1AQR+yY5LIYkQfxp+Sj25eKQWK5MIEmECHBIRvu/i7eWZRNPwobW9XiqdfLO596ql2L3UpfDFq7HD8VKyGLjQWKWlTMHfGWPK7vXqjlEIXgflPPQeNtw+2HTiNi6XVsCoCMDTtbiycFgmV1oEVL/wfLLb11EqNDBoKd3ZdUfhgVPospKWE37Il19VE6Yx3baYsjdfWKkNgwizMTCtEjiYZ0+fPx/SUsBYXAxf0sdHkhXsIDRRSrZ4ulel9ERefiGnzpyAxlNIGtxpO6QfxT63zw6j5TyJhVDq+/24r9uc14s67psKnfC9+9+o7OFRshI4EcdKoEYgfPgH3zJuGKO8W/1vPBKx46RVMKymHpeQI3nozE1UKT8SmzsJDK5dgYjz5Qrc2KFchduKv8Bt1AP7+yXpQbggkJsWQawlbcq+d4b70u4x2grpqa2tRXl6O6OhoCnvSOWf7vjQI7gsTYALNBJzkvHaSMqL9ZW0hWXR5MxrfF0zgRgSET/uk4b5SmLDwgB5K00r+8lZTLYoKy+EZEY1Ag4asgjcWRU57Ey4VnEdeURWsSi/Ep6QgnDZv3fiKG43ul77uQN6Oz7CrxItSC0/E8LggEnu3VqfLQvFpD+xGVo4NYxYtwvA2cXJFZrfa6go4tIHw06uvYuI0X8LxYxfQRJ9lIlKFXKmFf1gMosP9obmJD6xIM3ypuBbekaHQOmpx4JtNOG3xQGRMHJISB1N6X08obyBKXQ4jsjPWIaPYD5OnTUJiuBcJ+2sHTX0SrhZ5WTiQC0yengpvtdgVx6UvEMjJyaEQfgbK0BcidYdWZSizNovcvjA33Acm0G0ExBfD8ZwGrCYf3YuXOGFEt4HlityGQHMmM188NCscQRQmrCPh6TaDvqWBUIgzmxV2p4ySXSgpMcb1UQtuVp3L5YTDbqf9AhRyS9UcM/hm13Tr+/Q5aLeY4aAQb2pKp3ydXm2nMafDjCabEjragNbh+SIEnBDgwprc4YntNMIv9RiB9kQuP4L0GG6umAncHgLiQ3dEvAH/a8VgpA3xhupWTTC3p9vcKhPoFQI6ir+6bGoIRTGIkeLgssBtDzuJW5WmOaGFSL5wrUGzvUuueU1GWdOUJG7F6vCNrKedqKbrp1CnlRRyTCNi6Hay/3IKmebZmaQbVGGz8O9kxV0fBV/5CwmwyP2FAPlyJtAXCQihGx3iIW2mmTaa/Mr4L70vThP3qZcJiOxlS6eF4oEZFP5JiqnKIqWXp4CbYwK9SoA3nvUqbm6MCfQugTDyNfzVnHBarpNj+6FKWGxXcgz1bk+4NSZwewmEB2iwjARuOvnhio2aXJgAE3B/Aixy3X+OeYQDnIAPxYt8cGYovOn/9XsuwdjUUzu0BzhoHn6fJSAE7j8tjEJKrEGy4HJhAkxgYBBgkTsw5plHOYAJiCVZb70K90+nPO9k2f3HDyUo5A1pA/iOGDhDV6tkSI7S4/ml0Qj176EICgMHJ4+UCfQ7Aixy+92UcYeZQNcIiJigU0b6wZ/8Ej/dVoIzBQ1SpjQuTMAdCXjplJhM9/u9dwZTml61Ow6Rx8QEmMBNCLDIvQkgfpsJuBuBYYP0tHQbiXWZlyjNaA376brbBPN44GtQYTmtXKTf4QsfWsUY8IXCeZlqfkbW4WPIL6uFTe6B4JghGDUiEQGeIsLEzQiJ+LA2VFEGsdOnKQ1vWTXMLiVlKwtBTMIQpCREQK9WtKmEzrebUV54FidO5aK8wQGv0BikDB+GyADKCNfuhj9Kv9tURWmPKTGDzAMhUdHw1dLmwJt1jd9nAh0QUDqdTingMhcmwAQGBgHhvhBDkRcenxeJMFrCXZdZhkb20x0Yk+/moxTaKcRPg2fvjcKwQex/K77bnZZqHN34Kd7feADl1fVoslK6YMih1nrCNywOs5b+CgsmJUKvbC/ma3NCBltDMdat/iO+PVoEY6MJZhvV4RJhxtTQekThkVf/DfcMDmi5uyg+rakSGWvewKfbs1FntkqxcuUKFbT+SVj61BNYkBoDVVtlTf10ORpwcO1HeH/TIfjcsRwvvxjj5ncrD68nCEj3POna1qIsLCy86oWeaJTrZAJMoG8RaPbTVWL5jFDEhnngb5uLUFRhkb6MuDCB/khAp1EgNcmLEjxQBrNALYcHE1/2TZXYveavePtLSldr1yIkZhAivchyS5ZdYzX55mcfwAevlaHG9DKenDOUMopdPfMupx1Vefvx3qt/xvbcakqh643g0GhEe4rMbZQQwWpGXY0LtjZ+Ty6nGce+fhW///tJ+MSMxLxlMzA8FDiZuQlb9h7Cm/9hRvi7r2AcPWi3WmldLhvKjm3HV9t+QKE5GotXzEWwRiTt5cIEbo2A0WiE0LWtRTlo0CC0pvW9tar4bCbABNyBwJgkb2l5d8PeSzhwphYmMzvqusO8DqQxBPmoMX9CEMWEJp9zEnFcQNZaFyouHMH2bT+h0qpE3JQlePqxpRgWZoASJCqzd+Ojdz7EzpOF+HbNZsyalIBE7zbshItD2Rls+PBvyMyrgqdfImYsXoQ5U9IQG+wFFYlci7EahefzoQzStyAnYV17HF9sPAtV0GDc+/jTWJIWCTWp1ZFJ0VBZ/4g1GcfwdWYpxiyNpbS5zZdZai9ix+bNOF2sRerKRzE9XM0Cl2/iLhHQ6/WX0/qKCjiWSpcw8kVMwH0IyGnZMD5Ch8fmRkhpTkXIMS5MoL8QSI72xDPknrBgUhAL3LaTRtbR0qL9OFlhBwzDcf+KRRgRQeKU/t5lcjVCkidj6eI5oOSIsBfvwY8UcaXtOo7LXo+T+zZix7F8mJ3emP3U/8DKJTORGOYDtciCJldAawhE4uixGOyja2nZBVPuUeSb7AgJT8AdwyKa3RLIj0TlE0GZGOPgrwHKs86i6XJjTuT/+CU27cuHYfR0LJ89VBLFXJhAdxDgb7PuoMh1MIF+TkC4L/iTFWfu+EBJ8L773c+4UNzE7gv9fF7dufueWoUULWRRejCFB6Pl85vvnnJnHNePjSyx5rpLMIl3QoYj3k9/lXVUJlORxWsQogNVyG5oRFmN9ao6jOUF+GlzJsrNMgRMeQwPTU2GN4Vku5n+bCqtBnk5QK/yQ4DHlfNFe3568uGlfYCWxmrYhMgllwpb9SG8/95uVOlTsPLuuUgMbBXM1w+JX2ECt0qALbm3SozPZwJuTEBkRhtKG3Z+uzKOxEMQAtouX7rxuHlo/YeASFE9KNRDst6uWhAp+d+ywG1n/mQKePpGwCBUaX0Z6qy2q04ixwIYjfWoayBFKvNFVKCmjYB14dKFneSmQMJXHYf7Fo2CTycErmhAoaN65OTK4GhEIynZVoMtbUdDnclG0VxoCdknmKy15NPbVIytq1fjuMUD42fejZlpg6Dhh5V2JpNf6ioBFrldJcfXMQE3JiD8Gh+YGYZVFGpsRJyBRIQbD5aH1m8IeHsqMSM1AC8sjcHUkf5QCsXLpX0CMiXCBqVjZJQncGk/1u/MQoP9ikOCrbEUP2b8gNMVLhgSpyE9qE2yDJcDpYf2o45q1sSOQFKgL1xOB8wNNSgrLkJxaTkammy4fp+qDHpySfBSy1FaUYDT+XXN55DF1lFfihP5haiyKBCZmgQPVxNy927EV4dL4Dt4IubNS0cQ+ym0P5f8apcJsLtCl9HxhUzAvQl40FbrCcN8EUlffj8cqcK2g5WoaySrDxcmcBsIxIXrsIgSO4xO8IIXiV0uHRMQLkh+0cOxcME0FHy8BXv+8Q6cRecwNjUeBkcljuzajZ+OHUdT8B14+MF5CKPkGZeLy4jzp2ukXwPjA2DQGLHz87ex40QxjCYznHIlPMgfN2HMdNw9IxUh5IbQHPpWBnX4RMwf+iXePJiN9Z98DNWimUjwdeBkxnpsOnAO5uB0LJkQCNPF49i8aRdKaz2w+J8fwKhwsgDfzBei4yHzu0zgOgL8SXEdEn6BCTCBVgLiOyeSloMfmBFG4sIba74XmdIaYW1jEWJaTKCnCAjRI0KDTSXfWxHuzttTBYWClVDneMsgV3tj2KwVeIbcEl75bA8yt67BwQwKIQayypJYlfvHYeFDj+PuMVEU6eAKV5e9FudLhdVXBR9FFTa//ltsOpQPB4lbJbkTOO1WNJlPIevYARzOXo5/WbUYsX4Uto2ukCmDMGvVy7hY91/YeWoH3srOkK5xOOyQ+afi2adXYohHHTI2fI2dZ2oQNPN5LB8TRi0BTjrHQeHIXDI5zbOCwpSJ2L2dGy2fxQTaI8Aitz0q/BoTYAKXCQiLkIb88YYPNiAxMg5rKVPa7mPVKKmywO7guLp8q/QMAZ1GjiExeik02Ciy3qrIX5zLLRAgFwG7uRbZmRvw8cYjaLC6oPMLpBTHeihcVtRWlKCiKg87v/kCgb6PYkFaDEVNaFGUtirUSYs2NuRt/xrZ8kCk3bkUk6emIspHger8LGz6dhuOn/8ZOTs+xOuB0fjDYxOhFf609HlhiBiNp1/5Cybty8D+rAuosXsgakgq7pyUipgAHYr2fY61a49CFjkVzywfDz2aUHr+HM7lFqCkgjalqb0QFB6DpORERAVQyDP2072FiedT2xJgkcv3AxNgAp0moKHUncumhuCOOC9J6O49WY0asXGFCxPoJgJCZkXTxrI5YwMwfqgPAn14GbsraF0uOy4eWYfVH61FdrkcSVMWYe6UCUiI9IfaaULRuaPYuWMrfsraiw/ftlL2s/+L6fRQIfi7nBaSt80PsCaTAanLHsE/PzELPi2BbV2JQ5CUEIl3Xn8DO05VIXfrOhxbMh7jfBXN1lwSulrvMIyd8wAdbXtP290az+Obz9figjIC8xbOw7BwA3IzPsb7a7YhK78SLg1ZhC1m2DQ+SEqdjcefJleGMK+bRnXoCiO+xv0JsMh1/znmETKBbiUgNvsMidYjinx1hQj5YidtKMlrENGAuDCBX0TAi/xCp432x5QRfhA+uOya0HWcdnMFtn3+Dc6WWxEwbhlWPfEQZR4jEdtirI2JjUdCtB8cb72HPdmH8NWaTIz59V3wJmuujCIzUCRcqXFl1AQsuWv8ZYErXhOrO75Rd2DSuDE4mr0V1aYLOHzeiHFpXh122OVswokNa7D9vAVxaVMxd+JQeNTtxVvvfY1T1lDMWLECk4dHAHWF2Pndl9j14zdY7Z+Mv7wwGVp2W+iQLb/ZPgEWue1z4VeZABPogID4ojSQIBlBkeRjwz1w4HQtvv2pHD9TQHn21+0AHL91HQGhXTzINWFEvBeW0ipBbKiOXBOE0GJVcx2sTr/ggrlsJ7afo4dPZRTmTbsTSSGeV/m3ysi/NihpEqanHseZnB0oObkFB6tnYUYgyQKKcWto8Q4JHBKNEL9rY9fS/Cg9ERMSimBKdlZpomgMBUY4SeRekxn4co9F6t6qrI34YOthICgOc1YsRryvC6dXr8WpajVS596LRx6gdL5aatg1HDE6C6rKP8SZXetw6vF0pLZ2qNMM+EQmQA9pDIEJMAEm0FUCQoiIzUCzxgaSSPHG94cryYWhBkUVtNzIm9O6inXAXGfQKZAQ4YnJZLmdOkqEBGNh212Tby7NR61YXdEHkc+t71Uby5rbIKGqIF/ZQC94U/SwIiv52VdQXFwSuTKlH+KDZTj6M+Cgv2Nnu5m+KYsZreooW1VtR1NHyzzmyhx8s3Y7coqBtFWrMDfRC3J7MfadbqQ++iJt6VyEAAAMi0lEQVQiJQ2BlOBDerah8GfBSYMRHBmAUyfzcarKTiKX0zV3170xkOphkTuQZpvHygR6kECQr1raAT860RsHsmvx06lasuw2tRNLswc7wVX3CwJCzI4ky+2k4b7S/wHeKrbcdvPMybWUBY7qdFqMMJOPa3NahmuUKMXDFQkazJSgQUYWVBXFt5WK3IChNDf4uQI1eSUUOtAMyvd9VQ+Fz29lg4mup9NpPoMoHu+NdK7TbsSZvd9h57EL8Bi2BA/PS4SGTnbZG1Fvs0Gp0kDvQ0k9LldAAlylpexoFJrMVQ+LpV2V3c3EuDp3JMDbVd1xVnlMTOA2ERCW3YRIT2lz2q+XD8J900KhJ2sdFyYgCAgRI9JGP7MoSjpmkP9toI+IsXojecTcukpAGzoC4eLipnzszy2EUcqj27ZQ9IWGIvKnP4tKMuB6qCKQENRiLSVLasT4aQig020X9+H786WXM5c110DWXeMlZOccRwnpX5UiGmMSbyxyG8pOYsNXu1GiHIql989FjGfLZ4KChCz5/zpsDjTWWto8EFP95kYYLU0UTkwHXwPb466ZPP61kwRY5HYSFJ/GBJhA5wgIvaKlKAyDyLfygZmheP25ZNxLQfzDAzRQt+zO7lxNfJY7EBD3g46WoePJLeHFZTF45YkEzBoTAGH553S8PTXDFN3AfyyWTgmBSmbG0c/ex8ffH8Olqjo0Gk0wGRtQWXIBW9Z8gA0/5MAKDQZNux/DKAdw8+OGDKGJM3B3WiCUlDhi659ex8ZTRaiub4TJZERdVRn2bvwEX28+C6tci8HzHkKqd+tWtbZjIrFqrUTG+29gX6UGkxYuwPTRUZKFWSoqCk02xAvOhmoUHiUR3GgloUvX2JuQd/Q0ivIqoQ1Mw/gAflDuqTvF3evlxyN3n2EeHxO4TQSEuBGRGMIDtHh8fiTuGhcohR07fK4OheTG0MRLkLdpZnqvWX9yQ0gky/7YZB9MSvGFpweLld6iL6dYs+MefBpnKt5CRnYJNvzxNzg4ZCxSYoOhdTbiwsmDOFlIiXsVesSMvAv/tCyZrKpXLOoavyhMXvoQzpX+DQcvnsFf/+VF7EodQ3FuVajKy8Le44VwKunaUfPx7JJh0LQTy1aEIivYswafHKxB4NDZmDd9IoIouUdrMzKZB+5YNBeJe/4bxyiSwgeeVqQlB8NZW4g9WzfjPEVcmL18IcI53W9v3TZu147MRaW2thbl5eWIjo6GRqNxu0HygJgAE+gbBJyU7P5n2pR28kIDDp2tw/Gceo7G0Demplt74eelwpgkb7LS+SCZfDW99bSZiV0SupXxzSsjL1yHBaU5R7Bry2Zs3XUQRVfFtJZDH5yAcVNmYv68qUiJ8JEyjF0pdD35zOYezsTG9euw6WAe5Um7UrRe5KIwcz4W3T0NKVHtbGxzOWEs+Al//cMbyChSY9GL/46HJ8c0J4xo23lKTHFqy0f46MutOF5YAwc9GIuG9EHxSL9nOVYuHI8gT950dvP55jNycnJgMBgQEhIiwaDPHBmLXL4vmAAT6HUCIlNaTYMNOUVGbD1QiRMkei023lzS6xPRzQ0KcSti3Ir4yVHBHvDy5MXCbkZ8y9W5aHOZhdwBSoqKUVJahsraRthlavgGhiA0NAxhoUHw0qmuEbhXmnE5rain7Gh5+YUoLauA0S6HzjsQkZERCA8Pg6+e3E7ae4AhkdtUVYTzBSWwyL0weGgS/ChUXHve1w6rCRVF+Si4WIzyWhPUhgCERUYhOjIUXlp+QLrlSR+gF7DIHaATz8NmAn2VAC0kwUHW3bIqK3ZnVWPPiWpU1dlgNDs4uURfnbQ2/RJRErxJyEZSYpApI/2QPtwPGtqh35zdtT050w8G5aZdFH9rFM/g8t9Vs2VdxCO++YCbr6WrWzO+0EXisg6t83Tu1VvdOm7rqjY6U//Nu81nDDAC7YlcfsweYDcBD5cJ9CUC4ktSCKUIEkkPzgzDXPLbPUjhx7JyG5BbbEIxuTaQBubSxwiI5A1C2KbEGiS3hERySRCbDbn0XQK3ImqvHUWrmO1Q1F5/UbtW22tPa/29S23cqDJ+nQm0EGCRy7cCE2ACfYaAr0GF2ZRYYiJtUioobcKZwkaczmvE2YsUT5OyKnG5vQQiArUYFqtHUpReCgUWE+LBERJu75Rw60yACXRAgEVuB3D4LSbABG4PAb2HksSUQbIQTqNMWMKF4URePXYeoVBDFJmhddX09vRuYLWqoyQBKbFemDjMB0nRnpQTQAVPCgnG4b8G1n3Ao2UC/ZEAi9z+OGvcZyYwQAiolHLKhqWGP21oSojUYVF6iJQyeN+pGhw9X0+bVKxoNNnRZHWy8O2Ge0JsbBcPGAadEuFktU2nrFepSV60MenKV8UtLVl3Q5+4CibABJhAVwmwyO0qOb6OCTCBXiPQKqyU5PYplsjFsZgC3ecWmaQIDXklTZL4FT689Ub7NRteeq2b/bIh4RMtso6F+msQTVxFXNt4eqAI9tFAQe9xYQJMgAn0VwLK4uJi2Ch3NBcmwASYQH8ioCYr75AYvXSYrQ5cqrZKIvdiuZlErwkX6CirplShHJnsumkVG8eEf21smE7yrRVW21A/jSR22Q3hOlz8AhNgAv2EgMlEG5ZJ17YWpb+/PxoaGmC1UvJqLkyACTCBfkhA7OwXVsioYC1S7S6YLA4pDJnw5RWW3uxCI84UNKLOaGt2a6CIDQMhaIMIDyVsscJaG0IiNpkeCFIGGxBNnAzkliDS7YpD0U62qn54G3CXmQATGOAEREIzoWtbi1Kr1cJsNg9wLDx8JsAE3IGAcGtQq8QhlzZIiZTCw0nUieKgBBTCpSG32IiCMjPyydJb02iT0gs3kSg2kSi2kkDuj0VoVC3Fp9VSylSxKUwcQWSVjSLhL3yZ48J1Eg/2p+2Ps8t9ZgJMoLMEFAoFhK5tLeyT21lyfB4TYAL9moDwLxXWXnGIIlIM15H/7qUaK7k6WFBSaUZVvU3y6W1sclDIMvpfHPSzsAz3hYgO0sYw2gQmrLB6nYI2iSmkTWFCwAb5qunQICyg2e3Ag6zbnQn0368nlTvPBJgAE+iAAIvcDuDwW0yACbgvAeF7KuLyiiOJQpWJjEsi3bCw6BrNTjrs0s/iEEK3qp7SmwoBLN6n38VrwiVCHEIMCyH8S/x/1UqZ5DogohsI8eopDmGVFdEO6Gcf6qfILia9R6lORWgv6Xz6WfjYsi+t+96rPDImwAS6RoBFbte48VVMgAm4GQGxlK8ioemtl9MhBqe5PEIhgG3kyiBSEF8+KDeF+FlYhFtfEyJZOuhcm8N5+Wcrveai84Q1WUXmWCW1o6KflW1+Fu8JS60Qq0o6xP/CV1a8Jt4TfrXid3Y5cLMbj4fDBJhAjxFgkdtjaLliJsAE3IVAq6+vu4yHx8EEmAATGAgEyEbAhQkwASbABJgAE2ACTIAJuBcBFrnuNZ88GibABJgAE2ACTIAJMAEiwCKXbwMmwASYABNgAkyACTABtyPAItftppQHxASYABNgAkyACTABJsAil+8BJsAEmAATYAJMgAkwAbcjwCLX7aaUB8QEmAATYAJMgAkwASbAIpfvASbABJgAE2ACTIAJMAG3I8Ai1+2mlAfEBJgAE2ACTIAJMAEmwCKX7wEmwASYABNgAkyACTABtyPAItftppQHxASYABNgAkyACTABJsAil+8BJsAEmAATYAJMgAkwAbcjwCLX7aaUB8QEmAATYAJMgAkwASbAIpfvASbABJgAE2ACTIAJMAG3I8Ai1+2mlAfEBJgAE2ACTIAJMAEmwCKX7wEmwASYABNgAkyACTABtyPAItftppQHxASYABNgAkyACTABJsAil+8BJsAEmAATYAJMgAkwAbcjwCLX7aaUB8QEmAATYAJMgAkwASagNJvNsNlsEgmr1cpEmAATYAJMgAkwASbABJhAvyPgcDggdG1rUVZVVV0WuaWlpf1uQNxhJsAEmAATYAJMgAkwASZgsVggdG1rkbmoiBebmpp6lA41IzUcEBDQo+0M1Mqrq6vh4+MDuZw9UNzpHmhsbIRSqYRWq3WnYfWJsYgVLKPRKP3dcOl+ApWVlfx53/1YpRrr6urg4eEBtVrdQy0M3GqFHhKr2gaDYeBC6MGR9/Tngvib0Ol00ghkVJTiB41GIx09WYTIramp4S+UHoIsPvS8vLwkQcTFfQgIISb+NsXcculeAmJJS3yZscjtXq6ttQmjBrPtGbbCKKXX6y9/mfdMKwOz1oaGBmngfO/2zPz39ufC/weALMSnSpIGfgAAAABJRU5ErkJggg==;" vertex="1" parent="uucI94osu4saLkTW7OXQ-7">
          <mxGeometry x="390" y="500" width="314.44" height="180" as="geometry" />
        </mxCell>
        <mxCell id="uucI94osu4saLkTW7OXQ-69" value="&lt;div&gt;&lt;b&gt;暑假期间，票务系统共出售门票84万张，&lt;br&gt;其中线上出售门票73万张，&lt;br&gt;售票窗口出售了11万张，&lt;br&gt;平均每天售出门票量超2000张，&lt;br&gt;满足了不同观众的购票需求。&lt;/b&gt;&lt;br&gt;&lt;/div&gt;" style="text;html=1;align=center;verticalAlign=middle;resizable=0;points=[];autosize=1;strokeColor=#666666;fillColor=#f5f5f5;fontColor=#333333;" vertex="1" parent="uucI94osu4saLkTW7OXQ-7">
          <mxGeometry x="60" y="590" width="240" height="90" as="geometry" />
        </mxCell>
        <mxCell id="uucI94osu4saLkTW7OXQ-32" value="" style="edgeStyle=orthogonalEdgeStyle;rounded=0;orthogonalLoop=1;jettySize=auto;html=1;entryX=0.003;entryY=0.507;entryDx=0;entryDy=0;entryPerimeter=0;" edge="1" parent="1" source="uucI94osu4saLkTW7OXQ-2" target="uucI94osu4saLkTW7OXQ-6">
          <mxGeometry relative="1" as="geometry">
            <mxPoint x="470" y="235" as="targetPoint" />
            <Array as="points">
              <mxPoint x="360" y="235" />
              <mxPoint x="360" y="185" />
            </Array>
          </mxGeometry>
        </mxCell>
        <mxCell id="uucI94osu4saLkTW7OXQ-34" value="" style="edgeStyle=orthogonalEdgeStyle;rounded=0;orthogonalLoop=1;jettySize=auto;html=1;entryX=0;entryY=0.667;entryDx=0;entryDy=0;entryPerimeter=0;exitX=1.007;exitY=0.526;exitDx=0;exitDy=0;exitPerimeter=0;" edge="1" parent="1" source="uucI94osu4saLkTW7OXQ-2" target="uucI94osu4saLkTW7OXQ-10">
          <mxGeometry relative="1" as="geometry">
            <mxPoint x="541" y="195" as="targetPoint" />
            <mxPoint x="400" y="245" as="sourcePoint" />
            <Array as="points">
              <mxPoint x="360" y="236" />
              <mxPoint x="360" y="290" />
            </Array>
          </mxGeometry>
        </mxCell>
        <mxCell id="uucI94osu4saLkTW7OXQ-37" value="" style="endArrow=classic;html=1;rounded=0;exitX=0.995;exitY=0.492;exitDx=0;exitDy=0;exitPerimeter=0;entryX=-0.005;entryY=0.502;entryDx=0;entryDy=0;entryPerimeter=0;" edge="1" parent="1" source="uucI94osu4saLkTW7OXQ-2" target="uucI94osu4saLkTW7OXQ-9">
          <mxGeometry width="50" height="50" relative="1" as="geometry">
            <mxPoint x="610" y="250" as="sourcePoint" />
            <mxPoint x="660" y="200" as="targetPoint" />
          </mxGeometry>
        </mxCell>
        <mxCell id="uucI94osu4saLkTW7OXQ-39" value="" style="endArrow=classic;html=1;rounded=0;entryX=-0.002;entryY=0.511;entryDx=0;entryDy=0;entryPerimeter=0;exitX=1.004;exitY=0.526;exitDx=0;exitDy=0;exitPerimeter=0;" edge="1" parent="1" source="uucI94osu4saLkTW7OXQ-9" target="uucI94osu4saLkTW7OXQ-28">
          <mxGeometry width="50" height="50" relative="1" as="geometry">
            <mxPoint x="870" y="270" as="sourcePoint" />
            <mxPoint x="920" y="220" as="targetPoint" />
          </mxGeometry>
        </mxCell>
        <mxCell id="uucI94osu4saLkTW7OXQ-40" value="" style="edgeStyle=orthogonalEdgeStyle;rounded=0;orthogonalLoop=1;jettySize=auto;html=1;entryX=0.495;entryY=0.047;entryDx=0;entryDy=0;entryPerimeter=0;" edge="1" parent="1" source="uucI94osu4saLkTW7OXQ-6" target="uucI94osu4saLkTW7OXQ-28">
          <mxGeometry relative="1" as="geometry">
            <mxPoint x="890" y="185" as="targetPoint" />
          </mxGeometry>
        </mxCell>
        <mxCell id="uucI94osu4saLkTW7OXQ-41" value="" style="edgeStyle=orthogonalEdgeStyle;rounded=0;orthogonalLoop=1;jettySize=auto;html=1;exitX=1.002;exitY=0.494;exitDx=0;exitDy=0;exitPerimeter=0;entryX=0.498;entryY=0.992;entryDx=0;entryDy=0;entryPerimeter=0;" edge="1" parent="1" source="uucI94osu4saLkTW7OXQ-10" target="uucI94osu4saLkTW7OXQ-28">
          <mxGeometry relative="1" as="geometry" />
        </mxCell>
        <mxCell id="uucI94osu4saLkTW7OXQ-44" value="" style="edgeStyle=orthogonalEdgeStyle;rounded=0;orthogonalLoop=1;jettySize=auto;html=1;" edge="1" parent="1" source="uucI94osu4saLkTW7OXQ-42" target="uucI94osu4saLkTW7OXQ-43">
          <mxGeometry relative="1" as="geometry" />
        </mxCell>
        <mxCell id="uucI94osu4saLkTW7OXQ-47" value="" style="edgeStyle=orthogonalEdgeStyle;rounded=0;orthogonalLoop=1;jettySize=auto;html=1;" edge="1" parent="1" source="uucI94osu4saLkTW7OXQ-43" target="uucI94osu4saLkTW7OXQ-46">
          <mxGeometry relative="1" as="geometry" />
        </mxCell>
        <mxCell id="uucI94osu4saLkTW7OXQ-51" value="" style="endArrow=classic;html=1;rounded=0;exitX=1.001;exitY=0.532;exitDx=0;exitDy=0;exitPerimeter=0;entryX=-0.003;entryY=0.542;entryDx=0;entryDy=0;entryPerimeter=0;" edge="1" parent="1" source="uucI94osu4saLkTW7OXQ-42" target="uucI94osu4saLkTW7OXQ-45">
          <mxGeometry width="50" height="50" relative="1" as="geometry">
            <mxPoint x="310" y="500" as="sourcePoint" />
            <mxPoint x="360" y="450" as="targetPoint" />
            <Array as="points">
              <mxPoint x="370" y="386" />
              <mxPoint x="370" y="478" />
            </Array>
          </mxGeometry>
        </mxCell>
        <mxCell id="uucI94osu4saLkTW7OXQ-53" value="" style="edgeStyle=orthogonalEdgeStyle;rounded=0;orthogonalLoop=1;jettySize=auto;html=1;entryX=0.498;entryY=0.992;entryDx=0;entryDy=0;entryPerimeter=0;" edge="1" parent="1" source="uucI94osu4saLkTW7OXQ-45" target="uucI94osu4saLkTW7OXQ-46">
          <mxGeometry relative="1" as="geometry">
            <mxPoint x="900" y="475" as="targetPoint" />
          </mxGeometry>
        </mxCell>
        <mxCell id="uucI94osu4saLkTW7OXQ-58" value="" style="edgeStyle=orthogonalEdgeStyle;rounded=0;orthogonalLoop=1;jettySize=auto;html=1;" edge="1" parent="1" source="uucI94osu4saLkTW7OXQ-54" target="uucI94osu4saLkTW7OXQ-57">
          <mxGeometry relative="1" as="geometry" />
        </mxCell>
        <mxCell id="uucI94osu4saLkTW7OXQ-60" value="" style="edgeStyle=orthogonalEdgeStyle;rounded=0;orthogonalLoop=1;jettySize=auto;html=1;" edge="1" parent="1" source="uucI94osu4saLkTW7OXQ-57" target="uucI94osu4saLkTW7OXQ-59">
          <mxGeometry relative="1" as="geometry" />
        </mxCell>
      </root>
    </mxGraphModel>
  </diagram>
</mxfile>
